<?xml version="1.0" encoding="UTF-8" standalone="no"?>
<svg width="864px" height="69px" viewBox="0 0 864 69" version="1.1" xmlns="http://www.w3.org/2000/svg" xmlns:xlink="http://www.w3.org/1999/xlink" xmlns:sketch="http://www.bohemiancoding.com/sketch/ns">
    <!-- Generator: Sketch 3.3.3 (12081) - http://www.bohemiancoding.com/sketch -->
    <title>Imported Layers</title>
    <desc>Created with Sketch.</desc>
    <defs></defs>
    <g id="Page-1" stroke="none" stroke-width="1" fill="none" fill-rule="evenodd" sketch:type="MSPage">
        <g id="Imported-Layers" sketch:type="MSLayerGroup" transform="translate(-5.000000, -2.854839)" fill="#000000">
            <path d="M27.2789935,66.7766696 C27.2789935,67.2928463 27.1598923,67.6700502 26.9216184,67.9082813 L25.8495883,67.9082813 C20.7275686,67.9082813 17.1540554,66.5980106 15.1290726,63.9774406 C14.9305563,63.6994949 14.771726,63.4612638 14.6526105,63.2627475 C14.533495,63.0642026 14.4342368,62.8458289 14.3548074,62.6075979 C14.2754066,62.3693668 14.1960058,62.1112785 14.1165764,61.8333327 C14.0371756,61.555387 13.9974609,61.2576125 13.9974609,60.939952 C13.9974609,60.6223202 13.9776035,60.1855442 13.9379174,59.6296814 C13.8982027,59.0737899 13.8783454,58.5377558 13.8783454,58.0216076 L13.8783454,55.8179276 L13.8783454,53.0186987 L13.8783454,49.8620851 C13.8386306,46.3282961 13.7393725,44.3430137 13.5805423,43.9062616 C13.5408562,43.8665373 13.5209988,43.8268608 13.5209988,43.7871365 C12.9651073,42.3577312 11.9724685,41.2459769 10.5430823,40.4518734 C9.11366748,39.65777 7.70413865,39.2606944 6.31443378,39.2606944 C5.87767212,39.2606944 5.59973115,39.2011558 5.48061563,39.0820307 C5.36150011,38.9629295 5.30193997,38.6452547 5.30193997,38.129078 C5.30193997,37.6129012 5.36150011,37.2952741 5.48061563,37.1761729 C5.59973115,37.0570478 5.87767212,36.9974853 6.31443378,36.9974853 C7.66442394,36.9974853 9.05412403,36.6004098 10.4835102,35.8063302 C11.912925,35.0122029 12.9254212,33.9004485 13.5209988,32.4710671 C13.7195151,32.0342911 13.8188019,31.3989893 13.8188019,30.5651855 C13.8188019,29.7313816 13.8386306,26.7137456 13.8783454,21.5123252 L13.8783454,18.5343896 C13.8783454,16.3505813 13.9974609,14.8219131 14.2356919,13.948385 C14.4739229,13.0748569 15.0496718,12.241053 15.9628812,11.4469258 C16.99523,10.414596 18.5834607,9.58076836 20.7275686,8.94546653 C22.1966504,8.62783946 23.2488661,8.44915188 23.8841679,8.40947532 L24.6584331,8.40947532 C25.0951852,8.40947532 25.4525127,8.3896132 25.7304632,8.34988895 L26.9216184,8.34988895 C27.1598923,8.58811522 27.2789935,8.94546653 27.2789935,9.42196675 C27.2789935,9.93811968 27.219431,10.2557706 27.1003059,10.3748956 C27.0209051,10.4939969 26.7032542,10.5535832 26.147377,10.5535832 C24.0429934,10.6726844 22.3952001,11.1491608 21.2040211,11.9829647 C20.012866,12.8167685 19.2981633,13.6505962 19.0599371,14.4844239 C18.8613874,15.0006006 18.7621483,17.9387881 18.7621483,23.2990579 L18.7621483,28.1828513 C18.7621483,30.0490087 18.7025619,31.3195885 18.5834607,31.9945669 C18.4643356,32.6695691 18.1268465,33.4438343 17.5709454,34.3173624 C16.3400851,36.0246943 14.6128958,37.1960112 12.3893871,37.831313 L11.5555785,38.129078 L12.3893871,38.4268906 C13.1040802,38.6651169 13.8188019,38.9629295 14.533495,39.3202808 C15.2481881,39.6776083 16.0819967,40.3525867 17.0349542,41.3452398 C17.9878831,42.3378691 18.5437603,43.5092098 18.7025619,44.8591905 C18.7422862,45.0974167 18.7621483,47.7974256 18.7621483,52.9591266 C18.7621483,58.3193821 18.8613874,61.2576125 19.0599371,61.7737607 C19.4569649,62.8458289 20.3106309,63.7392096 21.620935,64.4539027 C22.9312152,65.1685958 24.4400213,65.5855144 26.147377,65.7046299 C26.7032542,65.7046299 27.0209051,65.7641734 27.1003059,65.8833175 C27.219431,66.002433 27.2789935,66.3002075 27.2789935,66.7766696 L27.2789935,66.7766696 Z" id="Fill-1" sketch:type="MSShapeGroup"></path>
            <path d="M35.3193624,16.747633 C35.3193624,15.6358786 35.6767137,14.7623505 36.3914163,14.1270726 C37.106119,13.4917707 37.9796471,13.1741437 39.0119768,13.1741437 C39.9252053,13.2535445 40.7193326,13.5910337 41.3943109,14.1866112 C42.0693132,14.7822127 42.4068024,15.6358786 42.4068024,16.747633 C42.4068024,17.9387881 42.0693132,18.8321784 41.3943109,19.4277559 C40.7193326,20.0233574 39.8855049,20.3211223 38.8928517,20.3211223 C37.9002224,20.3211223 37.0664186,20.0233574 36.3914163,19.4277559 C35.716438,18.8321784 35.3590866,17.9387881 35.3193624,16.747633 L35.3193624,16.747633 Z M45.920753,53.0186987 C45.3251754,52.8995832 43.2604683,52.8400111 39.7267033,52.8400111 L37.523009,52.8400111 C36.4907031,52.8400111 35.49805,52.8797258 34.5450972,52.9591266 L33.2348409,53.0186987 L32.7583645,53.0186987 L32.7583645,50.2790227 L33.7112934,50.2790227 C34.8230477,50.2790227 35.7958388,50.2194364 36.6296665,50.1003352 C36.9870178,49.9414859 37.2053819,49.7231217 37.2847827,49.4451712 C37.3642074,49.1672684 37.4039078,48.3334169 37.4039078,46.9437597 L37.4039078,40.8092248 L37.4039078,35.5680801 C37.4039078,33.503373 37.3642074,32.1931166 37.2847827,31.6372156 C37.2053819,31.0813622 36.9274314,30.7041488 36.4509789,30.5055991 C35.8950778,30.2276963 34.9620111,30.0887091 33.6517309,30.0887091 L32.9965908,30.0887091 L32.9965908,28.7188663 C32.9965908,27.8056378 33.0362912,27.3490236 33.1157158,27.3490236 L33.7112934,27.2894611 C34.1083451,27.2497845 34.6642223,27.2100603 35.3789488,27.170336 C36.0936276,27.1306356 36.8083302,27.0909352 37.523009,27.0512348 C38.1980351,27.0115106 38.9127138,26.971834 39.6671169,26.9321098 C40.4215438,26.8924094 40.9972592,26.8328468 41.3943109,26.753446 C41.7913865,26.6740214 42.0097506,26.6541592 42.0494749,26.6938835 L42.2281625,26.6938835 L42.2281625,49.32607 C42.4266645,49.7231217 42.6648908,49.961348 42.9428413,50.0407726 C43.2207918,50.1201734 43.9156323,50.1995742 45.0273866,50.2790227 L46.3972294,50.2790227 L46.3972294,53.0186987 L45.920753,53.0186987 L45.920753,53.0186987 Z" id="Fill-3" sketch:type="MSShapeGroup"></path>
            <path d="M50.2089688,50.2790227 L51.0427965,50.2790227 C52.5912791,50.2790227 53.5243936,50.0010722 53.8420207,49.4451712 L53.8420207,48.9687187 L53.8420207,47.5988759 L53.8420207,45.7525568 C53.8420207,45.0775546 53.8618828,44.3033133 53.9015832,43.429809 C53.9413074,42.5562809 53.9413074,41.7224294 53.9015832,40.9283498 L53.9015832,36.9974853 C53.9015832,35.6077805 53.8817211,34.4364874 53.8420207,33.4835585 L53.8420207,32.1137158 C53.7228956,31.3593127 53.4449928,30.8629742 53.0082168,30.6247241 C52.5714647,30.3864979 51.6780745,30.2078341 50.3280939,30.0887091 L49.2560161,30.0887091 L49.2560161,28.7188663 C49.2560161,27.8056378 49.2957403,27.3490236 49.3751411,27.3490236 L49.9707187,27.2894611 C50.3677704,27.2497845 50.9236715,27.2100603 51.6383741,27.170336 C52.3530529,27.1306356 53.0876176,27.0909352 53.8420207,27.0512348 C54.5170229,27.0115106 55.2317255,26.971834 55.9861286,26.9321098 C56.7405316,26.8924094 57.3162709,26.8328468 57.7133226,26.753446 C58.1103744,26.6740214 58.3287385,26.6541592 58.3684627,26.6938835 L58.5471503,26.6938835 L58.5471503,29.0762177 C58.5471503,30.5850476 58.5669886,31.3394506 58.606689,31.3394506 C58.6464133,31.3394506 58.7456762,31.2401877 58.9045016,31.041638 C59.0633033,30.843136 59.3015534,30.5453233 59.6191804,30.1482716 C59.9368313,29.751196 60.3140209,29.3938447 60.7507969,29.0762177 C61.187549,28.7585667 61.7632883,28.3813533 62.477991,27.9446012 C63.1926936,27.5078252 63.9470966,27.1901981 64.7412239,26.9916961 C65.5353274,26.7931464 66.5477949,26.6938835 67.7786982,26.6938835 C72.3051164,26.852709 74.8264378,29.0960798 75.3426145,33.4239722 C75.3823149,33.7019227 75.4021532,36.4614703 75.4021532,41.702615 L75.4021532,46.8246108 C75.4021532,48.3334169 75.4418775,49.2268071 75.5212783,49.5047576 C75.6007029,49.7826842 75.8190671,49.9812101 76.1764184,50.1003352 C77.0102222,50.2194364 77.9830371,50.2790227 79.0947915,50.2790227 L80.0477203,50.2790227 L80.0477203,53.0186987 L79.571244,53.0186987 L78.1418387,52.9591266 C77.2286341,52.9194405 76.2359809,52.8995832 75.163927,52.8995832 C74.091873,52.8995832 73.33747,52.8797258 72.900694,52.8400111 C68.8110279,52.8400111 66.5875192,52.8995832 66.2301679,53.0186987 L65.7537153,53.0186987 L65.7537153,50.2790227 L66.7066442,50.2790227 C69.1286788,50.2790227 70.3396961,49.961348 70.3396961,49.32607 C70.3794203,49.2466692 70.3992348,46.5069837 70.3992348,41.1070135 C70.3595582,35.7467438 70.319834,32.9077954 70.2801336,32.5901683 C70.0419073,31.478414 69.6448556,30.6445863 69.0889784,30.0887091 C68.5330774,29.5328319 68.0566249,29.1953427 67.6595493,29.0762177 C67.2625214,28.9571165 66.7463447,28.9173922 66.1110667,28.9571165 C64.3242862,28.9571165 62.7559415,29.6320948 61.4059609,30.9820993 C60.3338831,32.0541294 59.6589047,33.1460455 59.3809542,34.2577998 C59.1030037,35.3695542 58.9441782,37.0173236 58.9045016,39.2011558 L58.9045016,43.0128713 L58.9045016,46.5863845 C58.9045016,47.7775635 58.9243638,48.5716431 58.9640403,48.9687187 C59.0037646,49.3657704 59.0633033,49.6238588 59.1427279,49.7429838 C59.2221287,49.8620851 59.4008163,49.9812101 59.6787668,50.1003352 C60.5125706,50.2194364 61.4853617,50.2790227 62.597116,50.2790227 L63.5500211,50.2790227 L63.5500211,53.0186987 L63.0735685,53.0186987 L61.7037258,52.9591266 C60.7507969,52.9194405 59.7383055,52.8995832 58.6662754,52.8995832 C57.5941976,52.8995832 56.8397945,52.8797258 56.4030424,52.8400111 C52.3133763,52.8400111 50.0898438,52.8995832 49.7324924,53.0186987 L49.2560161,53.0186987 L49.2560161,50.2790227 L50.2089688,50.2790227 L50.2089688,50.2790227 Z" id="Fill-4" sketch:type="MSShapeGroup"></path>
            <path d="M83.0256321,61.8333327 L83.8594359,61.8333327 C85.4079663,61.8333327 86.3410569,61.555387 86.6587078,60.9995241 L86.6587078,60.523062 L86.6587078,59.3914503 L86.6587078,57.604689 C86.6587078,56.8899959 86.6785461,56.1157307 86.7182703,55.2819221 C86.7579469,54.4480849 86.7579469,53.5745616 86.7182703,52.6613521 C86.6785461,51.7481046 86.6785461,50.7753374 86.7182703,49.7429838 C86.7579469,48.7106303 86.7579469,47.6981389 86.7182703,46.7054857 L86.7182703,42.4768563 L86.7182703,38.5460156 L86.7182703,35.3893925 C86.7182703,34.4364874 86.6984082,33.6622223 86.6587078,33.0666447 C86.6189835,32.4710671 86.6189835,32.1533923 86.6587078,32.1137158 C86.5395827,31.3593127 86.2616322,30.8629742 85.8248801,30.6247241 C85.3881041,30.3864979 84.4947378,30.2078341 83.1447572,30.0887091 L82.0727032,30.0887091 L82.0727032,28.7188663 C82.0727032,27.8056378 82.1124036,27.3490236 82.1918283,27.3490236 L82.7874058,27.2894611 C83.1844576,27.2497845 83.760173,27.2100603 84.5145999,27.170336 C85.2690029,27.1306356 86.0035438,27.0909352 86.7182703,27.0512348 C87.3932487,27.0115106 88.1277896,26.971834 88.9219169,26.9321098 C89.7160203,26.8924094 90.3116218,26.8328468 90.7086497,26.753446 C91.1057252,26.6740214 91.3241132,26.6541592 91.3638136,26.6938835 L91.5425012,26.6938835 L91.5425012,28.2424138 L91.6020399,29.7909203 L92.0784924,29.3740303 C94.42115,27.6269741 97.1608355,26.753446 100.297573,26.753446 C103.513735,26.753446 106.25342,28.024002 108.516629,30.5651855 C110.779838,33.1063451 111.931293,36.3026448 111.971017,40.1540847 C111.971017,44.1643499 110.680575,47.4202122 108.099715,49.9216714 C105.518855,52.4231306 102.600482,53.6738483 99.3446199,53.6738483 C96.6446587,53.6738483 94.2623245,52.800325 92.1976413,51.0532879 L91.7211411,50.6363502 L91.7211411,55.6988121 L91.7211411,59.0340752 C91.7211411,60.1061434 91.7608653,60.7612931 91.8402661,60.9995241 C91.9196908,61.2377551 92.1380788,61.4561288 92.4954062,61.6546451 C93.3292339,61.7737607 94.3020249,61.8333327 95.4137793,61.8333327 L96.3667082,61.8333327 L96.3667082,64.5730182 L95.8902557,64.5730182 L94.4608266,64.5134748 C93.5476219,64.47376 92.5549926,64.4539027 91.4829148,64.4539027 C90.4108847,64.4539027 89.6564817,64.4340453 89.2197057,64.3943306 C85.1300158,64.3943306 82.906507,64.4539027 82.5491796,64.5730182 L82.0727032,64.5730182 L82.0727032,61.8333327 L83.0256321,61.8333327 L83.0256321,61.8333327 Z M106.134295,40.0349596 C106.134295,37.0967721 105.459293,34.5357265 104.109312,32.351942 C102.759332,30.1681099 101.071814,29.0762177 99.046855,29.0762177 C96.2277449,29.0762177 93.7858482,30.3666596 91.7211411,32.9475196 L91.7211411,47.1819859 C93.3093956,50.0407726 95.5329044,51.4701779 98.3917149,51.4701779 C100.416698,51.4701779 102.20343,50.398124 103.751961,48.254016 C105.300467,46.1099081 106.094595,43.3702227 106.134295,40.0349596 L106.134295,40.0349596 Z" id="Fill-5" sketch:type="MSShapeGroup"></path>
            <path d="M136.806874,49.5642963 C134.583342,52.2642813 132.062044,53.6142763 129.242934,53.6142763 L128.826044,53.6142763 C123.862826,53.6142763 121.004015,51.6488655 120.249612,47.7179772 C120.209936,47.4400743 120.170212,44.7202033 120.130511,39.5585071 C120.090811,35.230567 120.070949,32.8085563 120.070949,32.2923795 C120.070949,31.7762027 119.951847,31.3593127 119.713621,31.041638 C119.316546,30.40636 118.125367,30.0887091 116.140084,30.0887091 L115.484968,30.0887091 L115.484968,28.7188663 C115.484968,27.8056378 115.524644,27.3490236 115.604093,27.3490236 L116.259209,27.2894611 C116.656261,27.2497845 117.232024,27.2100603 117.986427,27.170336 C118.74083,27.1306356 119.495209,27.0909352 120.249612,27.0512348 C120.924615,27.0115106 121.659179,26.971834 122.453307,26.9321098 C123.247386,26.8924094 123.842988,26.8328468 124.240039,26.753446 C124.637091,26.6740214 124.875317,26.6541592 124.954742,26.6938835 L125.133406,26.6938835 L125.133406,37.4739617 C125.17313,44.7797897 125.232669,48.6907682 125.312093,49.2069449 C125.431218,49.8025464 125.709169,50.2790227 126.145897,50.6363502 C126.940024,51.1922274 128.13118,51.4701779 129.71941,51.4701779 C130.751764,51.4701779 131.684855,51.2915142 132.518658,50.934139 C133.352462,50.5767877 133.987764,50.1201734 134.42454,49.5642963 C134.861292,49.0084191 135.258344,48.3731411 135.615695,47.6584385 C135.973047,46.9437597 136.211273,46.3481344 136.330374,45.8716819 C136.449499,45.3952294 136.528924,44.918753 136.568624,44.4423005 L136.568624,43.429809 C136.568624,42.7945072 136.588462,42.0003799 136.628187,41.047451 C136.667911,40.0944983 136.667911,39.1614315 136.628187,38.248203 L136.628187,34.2577998 C136.628187,32.4313428 136.429661,31.2997264 136.032609,30.8629742 C135.635557,30.4261983 134.642904,30.1681099 133.054697,30.0887091 L131.982619,30.0887091 L131.982619,27.3490236 C132.062044,27.3490236 133.570874,27.2497845 136.509062,27.0512348 C139.447273,26.852709 141.015665,26.7336077 141.214167,26.6938835 L141.631105,26.6938835 L141.631105,37.2952741 C141.631105,44.4423005 141.650943,48.0753285 141.690644,48.1944535 C141.809745,48.9885808 142.087695,49.5047576 142.524471,49.7429838 C142.961224,49.9812101 143.854614,50.1598977 145.204594,50.2790227 L146.276648,50.2790227 L146.276648,53.0186987 C146.197224,53.0186987 144.70828,53.1179568 141.809745,53.3164732 C138.911258,53.5150181 137.38259,53.6341336 137.223764,53.6738483 L136.806874,53.6738483 L136.806874,49.5642963 L136.806874,49.5642963 Z" id="Fill-6" sketch:type="MSShapeGroup"></path>
            <path d="M148.718545,27.8850387 C150.822929,27.726237 152.45086,26.6144827 153.602338,24.5497756 C154.753769,22.4850923 155.389071,20.0630339 155.508172,17.2836719 L155.508172,16.3902817 L157.89053,16.3902817 L157.89053,27.3490236 L165.930923,27.3490236 L165.930923,30.0887091 L157.89053,30.0887091 L157.89053,38.6651169 C157.930231,43.628311 157.950093,46.4275829 157.950093,47.0628609 C157.950093,47.6981389 158.089056,48.3334169 158.366983,48.9687187 C158.922884,50.517249 159.895651,51.2915142 161.285356,51.2915142 C163.032412,51.2915142 164.104442,49.8819472 164.501494,47.0628609 C164.541218,46.74521 164.56108,45.8319576 164.56108,44.3231754 L164.56108,42.2386062 L166.943415,42.2386062 L166.943415,44.3231754 L166.943415,45.037878 C166.943415,48.0951906 166.109587,50.4179861 164.441955,52.006193 C163.369901,53.0782421 161.980196,53.6142763 160.272865,53.6142763 C158.922884,53.6142763 157.751543,53.3760452 156.758914,52.8995832 C155.766261,52.4231306 155.011858,51.8076671 154.495705,51.0532879 C153.979528,50.298861 153.602338,49.6039967 153.364112,48.9687187 C153.125862,48.3334169 152.986899,47.6981389 152.947174,47.0628609 C152.907474,46.7849104 152.887612,43.846699 152.887612,38.248203 L152.887612,30.0887091 L148.182506,30.0887091 L148.182506,27.8850387 L148.718545,27.8850387 L148.718545,27.8850387 Z" id="Fill-7" sketch:type="MSShapeGroup"></path>
            <path d="M174.924245,50.934139 L174.924245,49.4451712 C174.924245,48.4525419 175.241872,47.5988759 175.877174,46.8841733 C176.512452,46.1694945 177.366118,45.8121432 178.438172,45.8121432 C179.549926,45.8121432 180.542579,46.3084578 181.416083,47.3010872 C182.289611,48.2937403 182.746226,50.0407726 182.785926,52.5422366 C182.785926,53.9319081 182.607262,55.2819221 182.249911,56.5921928 C181.89256,57.9024921 181.475646,59.0340752 180.999193,59.9870279 C180.522717,60.939952 180.00654,61.7539319 179.450663,62.4289103 C178.894786,63.1039173 178.418333,63.6399514 178.021282,64.0369841 C177.624206,64.4340453 177.366118,64.6127329 177.247016,64.5730182 C177.088167,64.5730182 176.830079,64.3943306 176.472751,64.0369841 C176.1154,63.6796375 175.936712,63.4215491 175.936712,63.2627475 C175.936712,63.1039173 176.1551,62.7862568 176.591852,62.3097948 C177.028628,61.8333327 177.524943,61.2377551 178.08082,60.523062 C178.636697,59.8083403 179.152874,58.8157015 179.629351,57.5451169 C180.105803,56.2745609 180.42343,54.8252888 180.582279,53.1973577 L180.582279,52.4826646 L180.522717,52.5422366 C180.443292,52.5819227 180.344029,52.6216374 180.224928,52.6613521 C180.105803,52.7010382 179.986702,52.7606103 179.867577,52.8400111 C179.748452,52.9194405 179.569764,52.9591266 179.331538,52.9591266 C179.093312,52.9591266 178.855085,52.978984 178.616859,53.0186987 C177.544805,53.0186987 176.671277,52.6811809 175.996275,52.006193 L174.924245,50.934139 Z" id="Fill-8" sketch:type="MSShapeGroup"></path>
            <path d="M198.747563,43.5489102 C198.747563,39.220994 200.454942,35.3298538 203.869606,31.8754418 C207.284294,28.4210776 210.976908,26.6938835 214.947449,26.6938835 C217.170982,26.6938835 218.918038,27.170336 220.188594,28.1232888 C221.459174,29.0762177 222.114338,30.3269592 222.154038,31.8754418 C222.154038,33.0269204 221.776848,33.9997115 221.022422,34.7938149 C220.268019,35.5879422 219.315066,36.0048322 218.163635,36.0445564 C217.409232,36.0445564 216.813607,35.8460306 216.376878,35.4489788 C215.940102,35.0519033 215.721714,34.4563257 215.721714,33.6622223 C215.721714,32.868095 215.940102,32.1931166 216.376878,31.6372156 C216.813607,31.0813622 217.250383,30.6644484 217.687135,30.3864979 C218.123911,30.1085712 218.401861,29.98947 218.520986,30.0291466 L218.580525,30.0291466 C218.580525,29.9497458 218.4614,29.8306207 218.223174,29.6717952 C217.984947,29.5129698 217.568033,29.3541682 216.972456,29.1953427 C216.376878,29.0365173 215.701852,28.9571165 214.947449,28.9571165 C213.756294,28.9571165 212.624678,29.2350431 211.552647,29.7909203 C210.71882,30.1482716 209.865154,30.7636875 208.991626,31.6372156 C207.244569,33.3842717 205.97399,35.8460306 205.179886,39.0224682 C204.385783,42.1989296 203.968893,44.5018391 203.929169,45.9312444 C203.929169,47.7577014 204.445345,49.1275441 205.477675,50.0407726 C206.351203,50.9937015 207.502658,51.4701779 208.932087,51.4701779 L209.170313,51.4701779 C213.617331,51.4701779 217.290107,49.7826842 220.188594,46.4077208 C220.545945,46.0106452 220.784195,45.8121432 220.90332,45.8121432 C221.062122,45.8121432 221.32021,45.9908069 221.677562,46.3481344 C222.034889,46.7054857 222.233439,46.9834362 222.273163,47.1819859 C222.31284,47.380488 222.134176,47.6783006 221.737124,48.0753285 C221.340072,48.472404 220.764333,49.0282812 220.00993,49.7429838 C219.255527,50.4576626 218.362137,51.0532879 217.329783,51.5297404 C216.297477,52.006193 215.026874,52.5025219 213.518068,53.0186987 C212.009262,53.5348755 210.421031,53.7532491 208.753399,53.6738483 C205.775464,53.6738483 203.373268,52.7208956 201.546834,50.815014 C199.720377,48.90918 198.787287,46.4871216 198.747563,43.5489102 L198.747563,43.5489102 Z" id="Fill-9" sketch:type="MSShapeGroup"></path>
            <path d="M231.481725,8.1886314 L230.934194,8.39919852 C230.541148,8.53956866 229.979619,8.67996263 229.249633,8.82035661 C228.51967,8.96072675 227.705466,9.05898823 226.807021,9.11514105 L226.006861,9.11514105 L226.006861,7.17788059 L226.807021,7.17788059 C228.126576,7.12175161 229.347894,6.91118449 230.470951,6.54620306 C231.594031,6.18117395 232.38017,5.84428086 232.829393,5.53545226 C233.278616,5.22659981 233.671566,4.91777121 234.008483,4.60891876 C234.064755,4.52470145 234.233094,4.48256895 234.513978,4.48256895 C234.766487,4.48256895 235.005166,4.56681011 235.229777,4.73529242 L235.229777,17.3274019 L235.271981,29.961644 C235.468456,30.1581669 235.637034,30.2845167 235.777237,30.3406934 C235.917679,30.3968224 236.254596,30.452999 236.787988,30.509128 C237.321619,30.565257 238.191928,30.5933692 239.399154,30.5933692 L240.494074,30.5933692 L240.494074,32.5306058 L240.030784,32.5306058 C239.441358,32.4463646 237.209313,32.4042798 233.334649,32.4042798 C229.516376,32.4042798 227.312396,32.4463646 226.722803,32.5306058 L226.217428,32.5306058 L226.217428,30.5933692 L227.312396,30.5933692 L228.912716,30.5933692 C229.361938,30.5933692 229.712876,30.579325 229.965599,30.5512367 C230.218275,30.5231722 230.442886,30.4810635 230.639409,30.4248869 C230.835932,30.3687579 230.948238,30.3406934 230.976326,30.3406934 C231.004391,30.3406934 231.088632,30.2704726 231.229002,30.1301024 C231.36942,29.9897084 231.453589,29.9335795 231.481725,29.961644 L231.481725,8.1886314 L231.481725,8.1886314 Z" id="Fill-10" sketch:type="MSShapeGroup"></path>
            <path d="M223.606357,55.0891856 C223.409811,54.8926436 223.311549,54.7522687 223.311549,54.6680323 C223.311549,54.5557266 223.353658,54.3311153 223.437899,53.9941984 C223.522116,53.6572815 223.592289,53.460768 223.648466,53.4046009 C223.704595,53.264226 223.830969,53.1940386 224.027492,53.1940386 C224.224015,53.1940386 224.939957,53.1799896 226.175295,53.1519204 L228.407364,53.1519204 L229.207524,49.7827796 C229.291765,49.473951 229.390027,49.0668609 229.502332,48.5614617 C229.614638,48.0561101 229.712876,47.6911287 229.797117,47.4665174 C229.881358,47.2419061 229.965599,46.961142 230.049793,46.6242251 C230.134034,46.2873081 230.246339,46.0486765 230.386709,45.9082826 C230.527103,45.7679124 230.667497,45.599454 230.807868,45.4029072 C230.948238,45.2063842 231.144784,45.0800582 231.397556,45.0238816 C231.650065,44.9677526 231.902812,44.9396642 232.155559,44.9396642 C232.660815,44.9677526 233.0118,45.1221669 233.208276,45.4029072 C233.404989,45.6836713 233.503227,45.9503912 233.503227,46.203067 C233.503227,46.3996138 233.376853,47.0594035 233.124106,48.1824599 C232.871359,49.3054926 232.590714,50.4145048 232.281933,51.509473 L231.860608,53.067684 C231.860608,53.1238511 232.562578,53.1519204 233.966517,53.1519204 L236.114154,53.1519204 C236.310868,53.3484624 236.409106,53.5028576 236.409106,53.6151633 C236.409106,54.2328586 236.22646,54.7241708 235.861645,55.0891856 L231.355352,55.0891856 L229.839249,61.1957228 C228.744281,65.6878914 228.196797,68.1024484 228.196797,68.4393654 C228.196797,69.6185603 228.575799,70.2081578 229.333874,70.2081578 C230.316536,70.2081578 231.27111,69.730866 232.197525,68.7762823 C233.124106,67.82167 233.86828,66.642475 234.429808,65.2386688 C234.485842,65.0702246 234.555943,64.9719679 234.640351,64.94387 C234.724521,64.9158008 234.935064,64.8877315 235.271981,64.8596623 L235.44032,64.8596623 C235.861645,64.8596623 236.072189,64.9719679 236.072189,65.1965792 C236.072189,65.280787 236.029985,65.4492598 235.945815,65.7019403 C235.805373,66.1511629 235.552626,66.6845932 235.187812,67.30226 C234.822759,67.9199553 234.3454,68.5797403 233.755974,69.2816434 C233.16631,69.9835465 232.450272,70.573144 231.608099,71.0504358 C230.765759,71.5277277 229.909422,71.7663593 229.039089,71.7663593 C228.196797,71.7663593 227.396613,71.5557969 226.638562,71.1346722 C225.880511,70.7135189 225.333027,69.9835465 224.99611,68.9447265 C224.939957,68.7201152 224.911893,68.34108 224.911893,67.8076497 L224.911893,67.0495794 L226.385886,61.1536046 C227.368549,57.1948664 227.8739,55.2014626 227.902013,55.1733934 C227.902013,55.1172548 227.186046,55.0891856 225.754185,55.0891856 L223.606357,55.0891856 L223.606357,55.0891856 Z" id="Fill-11" sketch:type="MSShapeGroup"></path>
            <path d="M241.236341,61.3220774 L241.236341,60.7745695 C241.236341,60.4095833 241.432816,60.1288335 241.826005,59.9322914 L266.294329,59.9322914 C266.715416,60.1569027 266.925959,60.4376811 266.925959,60.7745695 C266.925959,61.1114864 266.715416,61.3922648 266.294329,61.6168761 L241.826005,61.6168761 C241.432816,61.4203341 241.236341,61.1395843 241.236341,60.7745695 L241.236341,61.3220774 Z" id="Fill-12" sketch:type="MSShapeGroup"></path>
            <path d="M279.426221,46.961142 L278.878761,47.1717091 C278.485572,47.3120793 277.924044,47.4524494 277.194176,47.5928672 C276.46407,47.7332374 275.649795,47.8314988 274.75135,47.8876517 L273.951381,47.8876517 L273.951381,45.9503912 L274.75135,45.9503912 C276.07112,45.8942622 277.292414,45.6836713 278.41547,45.3186898 C279.538527,44.9536846 280.324666,44.6167676 280.773889,44.3079629 C281.223112,43.9991104 281.616301,43.690258 281.952979,43.3814532 C282.009013,43.2972121 282.17759,43.2550796 282.458235,43.2550796 C282.711221,43.2550796 282.9499,43.3393207 283.174512,43.5077792 L283.174512,56.0999078 L283.216477,68.7341641 C283.413191,68.9306775 283.581292,69.0570321 283.721733,69.1131706 C283.862413,69.1693378 284.199092,69.2254763 284.732484,69.2816434 C285.266115,69.3377819 286.136424,69.3658798 287.34365,69.3658798 L288.43857,69.3658798 L288.43857,71.3031164 L287.975518,71.3031164 C287.385616,71.21888 285.153571,71.1767618 281.279145,71.1767618 C277.460753,71.1767618 275.257083,71.21888 274.66718,71.3031164 L274.161924,71.3031164 L274.161924,69.3658798 L275.257083,69.3658798 L276.857259,69.3658798 C277.306482,69.3658798 277.657228,69.3518308 277.909976,69.3237616 C278.162723,69.2956637 278.387334,69.2535741 278.58381,69.197407 C278.780285,69.1412685 278.892829,69.1131706 278.920965,69.1131706 C278.948863,69.1131706 279.033032,69.0429832 279.173474,68.9026083 C279.313916,68.7622334 279.398085,68.7060662 279.426221,68.7341641 L279.426221,46.961142 L279.426221,46.961142 Z" id="Fill-13" sketch:type="MSShapeGroup"></path>
            <path d="M302.140813,50.934139 L302.140813,49.4451712 C302.140813,48.4525419 302.458655,47.5988759 303.093861,46.8841733 C303.729067,46.1694945 304.582924,45.8121432 305.654716,45.8121432 C306.766566,45.8121432 307.759195,46.3084578 308.632842,47.3010872 C309.506251,48.2937403 309.963104,50.0407726 310.002685,52.5422366 C310.002685,53.9319081 309.823854,55.2819221 309.46667,56.5921928 C309.109247,57.9024921 308.692214,59.0340752 308.215809,59.9870279 C307.739404,60.939952 307.223418,61.7539319 306.667374,62.4289103 C306.11133,63.1039173 305.634925,63.6399514 305.237921,64.0369841 C304.840917,64.4340453 304.582924,64.6127329 304.463704,64.5730182 C304.304902,64.5730182 304.046671,64.3943306 303.689248,64.0369841 C303.332302,63.6796375 303.153471,63.4215491 303.153471,63.2627475 C303.153471,63.1039173 303.371645,62.7862568 303.808707,62.3097948 C304.245292,61.8333327 304.741726,61.2377551 305.29777,60.523062 C305.853337,59.8083403 306.369562,58.8157015 306.845966,57.5451169 C307.32261,56.2745609 307.640213,54.8252888 307.799015,53.1973577 L307.799015,52.4826646 L307.739404,52.5422366 C307.660003,52.5819227 307.560574,52.6216374 307.441592,52.6613521 C307.32261,52.7010382 307.203389,52.7606103 307.084169,52.8400111 C306.965187,52.9194405 306.786356,52.9591266 306.548392,52.9591266 C306.309951,52.9591266 306.071987,52.978984 305.833547,53.0186987 C304.761516,53.0186987 303.887869,52.6811809 303.212843,52.006193 L302.140813,50.934139 Z" id="Fill-14" sketch:type="MSShapeGroup"></path>
            <path d="M332.158371,12.340316 C332.198191,12.340316 333.627644,12.241053 336.446492,12.0425272 C339.265816,11.8439775 340.71506,11.7248763 340.794222,11.685152 C341.270627,11.685152 341.509068,11.8638396 341.509068,12.2211909 C341.509068,12.6579669 340.794222,15.6557408 339.365008,21.2145125 C337.855916,27.0909352 337.101727,30.0887091 337.101727,30.2078341 C337.101727,30.2872349 337.2405,30.187972 337.51876,29.9100215 C339.940842,27.7659136 342.521726,26.6938835 345.261412,26.6938835 C347.405234,26.6938835 349.132738,27.2299224 350.442732,28.3019525 C351.752964,29.3740303 352.42799,30.9423751 352.46781,33.0070583 C352.46781,35.032065 351.713145,38.1688022 350.204529,42.4172938 C348.695676,46.6658092 347.941487,49.2069449 347.941487,50.0407726 C347.981068,50.5966498 348.08026,50.9738394 348.239061,51.1723891 C348.397863,51.370915 348.695676,51.4701779 349.132738,51.4701779 C350.244349,51.4701779 351.276559,50.8746003 352.229369,49.6834452 C353.182417,48.4922423 353.956873,46.8643112 354.55226,44.7996518 C354.67148,44.3628758 354.790462,44.1047874 354.909683,44.0253866 C355.028903,43.9459858 355.346506,43.9062616 355.862731,43.9062616 C356.656739,43.9062616 357.053743,44.065087 357.053743,44.3827141 C357.053743,44.4224383 356.974342,44.7202033 356.815541,45.2761043 C356.180334,47.6187381 355.167676,49.544458 353.778042,51.0532879 C352.42799,52.7606103 350.819945,53.6142763 348.953907,53.6142763 L348.655856,53.6142763 C346.789818,53.6142763 345.439766,53.0782421 344.606176,52.006193 C343.772349,50.934139 343.355316,49.8025464 343.355316,48.6113674 C343.355316,47.9760655 344.070161,45.6334556 345.499376,41.5834899 C346.928829,37.5335004 347.663465,34.4960261 347.703046,32.4710671 C347.703046,30.1284095 346.829637,28.9571165 345.082581,28.9571165 L344.78453,28.9571165 C341.489277,28.9571165 338.630372,30.9026747 336.208528,34.7938149 L335.791256,35.5680801 L333.766416,43.6084489 C332.496003,48.7701928 331.761129,51.5892791 331.562984,52.0657555 C331.04676,53.1378142 330.173113,53.6738483 328.942281,53.6738483 C328.386237,53.6738483 327.909832,53.4951608 327.512828,53.1378142 C327.115824,52.7804677 326.897174,52.4231306 326.857831,52.0657555 C326.857831,51.5098783 328.307074,45.4746302 331.205562,33.960011 L335.612664,16.3307191 C335.612664,15.8145424 335.473653,15.4969153 335.195869,15.3777902 C334.918086,15.258689 334.143868,15.1594261 332.872978,15.0800015 L331.622356,15.0800015 C331.384154,14.8417513 331.264933,14.6829259 331.264933,14.6035251 C331.264933,14.5241243 331.304753,14.1469347 331.384154,13.4719086 C331.582537,12.7175056 331.840768,12.340316 332.158371,12.340316 L332.158371,12.340316 Z" id="Fill-15" sketch:type="MSShapeGroup"></path>
            <path d="M367.274987,8.1886314 L366.727289,8.39919852 C366.3341,8.53956866 365.77281,8.67996263 365.042942,8.82035661 C364.312598,8.96072675 363.498561,9.05898823 362.600116,9.11514105 L361.799908,9.11514105 L361.799908,7.17788059 L362.600116,7.17788059 C363.919886,7.12175161 365.140942,6.91118449 366.263998,6.54620306 C367.387055,6.18117395 368.173433,5.84428086 368.622655,5.53545226 C369.071639,5.22659981 369.46459,4.91777121 369.801745,4.60891876 C369.857779,4.52470145 370.026356,4.48256895 370.307001,4.48256895 C370.559749,4.48256895 370.798428,4.56681011 371.023039,4.73529242 L371.023039,17.3274019 L371.065005,29.961644 C371.26148,30.1581669 371.430058,30.2845167 371.570499,30.3406934 C371.710703,30.3968224 372.047858,30.452999 372.58125,30.509128 C373.114642,30.565257 373.984952,30.5933692 375.192416,30.5933692 L376.287098,30.5933692 L376.287098,32.5306058 L375.823808,32.5306058 C375.234382,32.4463646 373.002337,32.4042798 369.127911,32.4042798 C365.309519,32.4042798 363.105372,32.4463646 362.515946,32.5306058 L362.010452,32.5306058 L362.010452,30.5933692 L363.105372,30.5933692 L364.705787,30.5933692 C365.15501,30.5933692 365.505995,30.579325 365.758742,30.5512367 C366.011489,30.5231722 366.236101,30.4810635 366.432576,30.4248869 C366.629051,30.3687579 366.741357,30.3406934 366.769254,30.3406934 C366.79739,30.3406934 366.881798,30.2704726 367.022002,30.1301024 C367.162443,29.9897084 367.246613,29.9335795 367.274987,29.961644 L367.274987,8.1886314 L367.274987,8.1886314 Z" id="Fill-16" sketch:type="MSShapeGroup"></path>
            <path d="M359.399524,55.0891856 C359.203049,54.8926436 359.104811,54.7522687 359.104811,54.6680323 C359.104811,54.5557266 359.146777,54.3311153 359.230947,53.9941984 C359.315116,53.6572815 359.385456,53.460768 359.44149,53.4046009 C359.497762,53.264226 359.624135,53.1940386 359.820611,53.1940386 C360.017324,53.1940386 360.733124,53.1799896 361.968486,53.1519204 L364.200531,53.1519204 L365.000738,49.7827796 C365.084908,49.473951 365.183146,49.0668609 365.295451,48.5614617 C365.407757,48.0561101 365.505995,47.6911287 365.590164,47.4665174 C365.674572,47.2419061 365.758742,46.961142 365.842912,46.6242251 C365.92732,46.2873081 366.039387,46.0486765 366.179828,45.9082826 C366.320032,45.7679124 366.460712,45.599454 366.601153,45.4029072 C366.741357,45.2063842 366.937832,45.0800582 367.190579,45.0238816 C367.443088,44.9677526 367.695835,44.9396642 367.948821,44.9396642 C368.454077,44.9677526 368.804824,45.1221669 369.001538,45.4029072 C369.198013,45.6836713 369.296251,45.9503912 369.296251,46.203067 C369.296251,46.3996138 369.169877,47.0594035 368.917368,48.1824599 C368.664621,49.3054926 368.383737,50.4145048 368.074956,51.509473 L367.65387,53.067684 C367.65387,53.1238511 368.355601,53.1519204 369.75978,53.1519204 L371.907416,53.1519204 C372.103892,53.3484624 372.202129,53.5028576 372.202129,53.6151633 C372.202129,54.2328586 372.019722,54.7241708 371.654669,55.0891856 L367.148375,55.0891856 L365.632368,61.1957228 C364.537209,65.6878914 363.989988,68.1024484 363.989988,68.4393654 C363.989988,69.6185603 364.369109,70.2081578 365.126874,70.2081578 C366.109488,70.2081578 367.064444,69.730866 367.990787,68.7762823 C368.917368,67.82167 369.661303,66.642475 370.222832,65.2386688 C370.279104,65.0702246 370.349205,64.9719679 370.433613,64.94387 C370.517545,64.9158008 370.728326,64.8877315 371.065005,64.8596623 L371.233583,64.8596623 C371.654669,64.8596623 371.865212,64.9719679 371.865212,65.1965792 C371.865212,65.280787 371.823247,65.4492598 371.738839,65.7019403 C371.598635,66.1511629 371.345888,66.6845932 370.980835,67.30226 C370.615782,67.9199553 370.138424,68.5797403 369.548998,69.2816434 C368.959334,69.9835465 368.243534,70.573144 367.401123,71.0504358 C366.558711,71.5277277 365.702708,71.7663593 364.832161,71.7663593 C363.989988,71.7663593 363.18978,71.5557969 362.431538,71.1346722 C361.673773,70.7135189 361.126074,69.9835465 360.789158,68.9447265 C360.733124,68.7201152 360.705226,68.34108 360.705226,67.8076497 L360.705226,67.0495794 L362.179029,61.1536046 C363.161644,57.1948664 363.667139,55.2014626 363.695275,55.1733934 C363.695275,55.1172548 362.979237,55.0891856 361.547161,55.0891856 L359.399524,55.0891856 L359.399524,55.0891856 Z" id="Fill-17" sketch:type="MSShapeGroup"></path>
            <path d="M377.029365,61.3220774 L377.029365,60.7745695 C377.029365,60.4095833 377.22584,60.1288335 377.619029,59.9322914 L402.087353,59.9322914 C402.508678,60.1569027 402.719221,60.4376811 402.719221,60.7745695 C402.719221,61.1114864 402.508678,61.3922648 402.087353,61.6168761 L377.619029,61.6168761 C377.22584,61.4203341 377.029365,61.1395843 377.029365,60.7745695 L377.029365,61.3220774 Z" id="Fill-18" sketch:type="MSShapeGroup"></path>
            <path d="M415.219245,46.961142 L414.672023,47.1717091 C414.278834,47.3120793 413.717067,47.4524494 412.9872,47.5928672 C412.257333,47.7332374 411.443057,47.8314988 410.544612,47.8876517 L409.744404,47.8876517 L409.744404,45.9503912 L410.544612,45.9503912 C411.864144,45.8942622 413.085676,45.6836713 414.208733,45.3186898 C415.331789,44.9536846 416.11769,44.6167676 416.566913,44.3079629 C417.016135,43.9991104 417.409324,43.690258 417.746003,43.3814532 C417.802275,43.2972121 417.970614,43.2550796 418.251497,43.2550796 C418.504245,43.2550796 418.742924,43.3393207 418.967535,43.5077792 L418.967535,56.0999078 L419.009739,68.7341641 C419.206215,68.9306775 419.374554,69.0570321 419.514995,69.1131706 C419.655437,69.1693378 419.992116,69.2254763 420.525746,69.2816434 C421.059138,69.3377819 421.929686,69.3658798 423.136674,69.3658798 L424.231833,69.3658798 L424.231833,71.3031164 L423.768542,71.3031164 C423.178878,71.21888 420.946833,71.1767618 417.072169,71.1767618 C413.253777,71.1767618 411.050106,71.21888 410.460442,71.3031164 L409.955186,71.3031164 L409.955186,69.3658798 L411.050106,69.3658798 L412.650522,69.3658798 C413.099744,69.3658798 413.450491,69.3518308 413.702999,69.3237616 C413.955985,69.2956637 414.180597,69.2535741 414.376833,69.197407 C414.573547,69.1412685 414.685853,69.1131706 414.713989,69.1131706 C414.742125,69.1131706 414.826056,69.0429832 414.966736,68.9026083 C415.107178,68.7622334 415.191347,68.7060662 415.219245,68.7341641 L415.219245,46.961142 L415.219245,46.961142 Z" id="Fill-19" sketch:type="MSShapeGroup"></path>
            <path d="M437.933837,50.934139 L437.933837,49.4451712 C437.933837,48.4525419 438.251917,47.5988759 438.887123,46.8841733 C439.52233,46.1694945 440.375948,45.8121432 441.447978,45.8121432 C442.559828,45.8121432 443.552457,46.3084578 444.425866,47.3010872 C445.299513,48.2937403 445.756127,50.0407726 445.795947,52.5422366 C445.795947,53.9319081 445.617116,55.2819221 445.259694,56.5921928 C444.902271,57.9024921 444.485476,59.0340752 444.009071,59.9870279 C443.532666,60.939952 443.016442,61.7539319 442.460398,62.4289103 C441.904592,63.1039173 441.428187,63.6399514 441.030945,64.0369841 C440.634179,64.4340453 440.375948,64.6127329 440.256727,64.5730182 C440.097926,64.5730182 439.839933,64.3943306 439.48251,64.0369841 C439.125326,63.6796375 438.946495,63.4215491 438.946495,63.2627475 C438.946495,63.1039173 439.164907,62.7862568 439.60173,62.3097948 C440.038316,61.8333327 440.534749,61.2377551 441.090794,60.523062 C441.646361,59.8083403 442.162585,58.8157015 442.63899,57.5451169 C443.115633,56.2745609 443.433237,54.8252888 443.592038,53.1973577 L443.592038,52.4826646 L443.532666,52.5422366 C443.453027,52.5819227 443.353836,52.6216374 443.234854,52.6613521 C443.115633,52.7010382 442.996413,52.7606103 442.877431,52.8400111 C442.758449,52.9194405 442.579618,52.9591266 442.341416,52.9591266 C442.103213,52.9591266 441.865011,52.978984 441.626809,53.0186987 C440.55454,53.0186987 439.681131,52.6811809 439.006105,52.006193 L437.933837,50.934139 Z" id="Fill-20" sketch:type="MSShapeGroup"></path>
            <path d="M489.213882,49.4451712 C489.213882,48.4922423 489.551276,47.6584385 490.226302,46.9437597 C490.901328,46.2290332 491.755184,45.8716819 492.787395,45.8716819 C493.740205,45.8716819 494.574032,46.1893328 495.288878,46.8246108 C496.003485,47.4598888 496.380699,48.3136024 496.420518,49.3856325 C496.420518,50.3782618 496.082886,51.2319278 495.40786,51.9466304 C494.732834,52.6613521 493.879216,53.0186987 492.847005,53.0186987 C491.814556,53.0186987 490.960699,52.6811809 490.285912,52.006193 C489.610886,51.3311907 489.253463,50.4775248 489.213882,49.4451712 L489.213882,49.4451712 Z M515.836519,49.4451712 C515.836519,48.4922423 516.173913,47.6584385 516.848939,46.9437597 C517.523965,46.2290332 518.377583,45.8716819 519.410032,45.8716819 C520.362842,45.8716819 521.19667,46.1893328 521.911277,46.8246108 C522.626123,47.4598888 523.003336,48.3136024 523.042917,49.3856325 C523.042917,50.3782618 522.705285,51.2319278 522.030497,51.9466304 C521.355471,52.6613521 520.501853,53.0186987 519.469642,53.0186987 C518.437194,53.0186987 517.583337,52.6811809 516.908311,52.006193 C516.233523,51.3311907 515.8761,50.4775248 515.836519,49.4451712 L515.836519,49.4451712 Z M542.459156,49.4451712 C542.459156,48.4922423 542.79655,47.6584385 543.471576,46.9437597 C544.146364,46.2290332 545.000221,45.8716819 546.03267,45.8716819 C546.985479,45.8716819 547.819307,46.1893328 548.533914,46.8246108 C549.24876,47.4598888 549.625735,48.3136024 549.665555,49.3856325 C549.665555,50.3782618 549.327922,51.2319278 548.652896,51.9466304 C547.978109,52.6613521 547.12449,53.0186987 546.092041,53.0186987 C545.059831,53.0186987 544.205974,52.6811809 543.530948,52.006193 C542.855922,51.3311907 542.498738,50.4775248 542.459156,49.4451712 L542.459156,49.4451712 Z" id="Fill-21" sketch:type="MSShapeGroup"></path>
            <path d="M583.852013,50.934139 L583.852013,49.4451712 C583.852013,48.4525419 584.169855,47.5988759 584.805061,46.8841733 C585.440267,46.1694945 586.294124,45.8121432 587.365916,45.8121432 C588.477766,45.8121432 589.470395,46.3084578 590.344042,47.3010872 C591.217451,48.2937403 591.674304,50.0407726 591.713647,52.5422366 C591.713647,53.9319081 591.535054,55.2819221 591.17787,56.5921928 C590.820447,57.9024921 590.403414,59.0340752 589.927009,59.9870279 C589.450604,60.939952 588.934618,61.7539319 588.378574,62.4289103 C587.82253,63.1039173 587.346125,63.6399514 586.949121,64.0369841 C586.552117,64.4340453 586.294124,64.6127329 586.174904,64.5730182 C586.016102,64.5730182 585.757871,64.3943306 585.400448,64.0369841 C585.043263,63.6796375 584.864671,63.4215491 584.864671,63.2627475 C584.864671,63.1039173 585.082845,62.7862568 585.519907,62.3097948 C585.956492,61.8333327 586.452926,61.2377551 587.008493,60.523062 C587.564537,59.8083403 588.080762,58.8157015 588.557166,57.5451169 C589.03381,56.2745609 589.351413,54.8252888 589.510215,53.1973577 L589.510215,52.4826646 L589.450604,52.5422366 C589.371203,52.5819227 589.271774,52.6216374 589.152792,52.6613521 C589.03381,52.7010382 588.914589,52.7606103 588.795369,52.8400111 C588.676387,52.9194405 588.497556,52.9591266 588.259592,52.9591266 C588.021151,52.9591266 587.782949,52.978984 587.544747,53.0186987 C586.472716,53.0186987 585.599069,52.6811809 584.924043,52.006193 L583.852013,50.934139 Z" id="Fill-22" sketch:type="MSShapeGroup"></path>
            <path d="M607.675355,43.5489102 C607.675355,39.220994 609.38283,35.3298538 612.797303,31.8754418 C616.212014,28.4210776 619.904748,26.6938835 623.875503,26.6938835 C626.098965,26.6938835 627.845782,27.170336 629.116434,28.1232888 C630.387085,29.0762177 631.042082,30.3269592 631.081902,31.8754418 C631.081902,33.0269204 630.704688,33.9997115 629.950261,34.7938149 C629.196073,35.5879422 628.243025,36.0048322 627.091594,36.0445564 C626.336928,36.0445564 625.741542,35.8460306 625.304718,35.4489788 C624.868133,35.0519033 624.649721,34.4563257 624.649721,33.6622223 C624.649721,32.868095 624.868133,32.1931166 625.304718,31.6372156 C625.741542,31.0813622 626.178127,30.6644484 626.615189,30.3864979 C627.051774,30.1085712 627.329558,29.98947 627.449017,30.0291466 L627.508388,30.0291466 C627.508388,29.9497458 627.389406,29.8306207 627.150966,29.6717952 C626.912763,29.5129698 626.49573,29.3541682 625.900343,29.1953427 C625.304718,29.0365173 624.629692,28.9571165 623.875503,28.9571165 C622.684253,28.9571165 621.552613,29.2350431 620.480583,29.7909203 C619.646755,30.1482716 618.792898,30.7636875 617.919489,31.6372156 C616.172672,33.3842717 614.901782,35.8460306 614.107774,39.0224682 C613.313527,42.1989296 612.896733,44.5018391 612.856913,45.9312444 C612.856913,47.7577014 613.373137,49.1275441 614.405348,50.0407726 C615.278995,50.9937015 616.430665,51.4701779 617.859879,51.4701779 L618.09832,51.4701779 C622.545242,51.4701779 626.217947,49.7826842 629.116434,46.4077208 C629.473856,46.0106452 629.712297,45.8121432 629.831279,45.8121432 C629.990081,45.8121432 630.248074,45.9908069 630.605497,46.3481344 C630.96292,46.7054857 631.161541,46.9834362 631.200884,47.1819859 C631.240703,47.380488 631.062111,47.6783006 630.665107,48.0753285 C630.267865,48.472404 629.692268,49.0282812 628.937841,49.7429838 C628.183415,50.4576626 627.290215,51.0532879 626.257766,51.5297404 C625.225317,52.006193 623.954666,52.5025219 622.446051,53.0186987 C620.937197,53.5348755 619.348942,53.7532491 617.681287,53.6738483 C614.703399,53.6738483 612.301346,52.7208956 610.47465,50.815014 C608.648193,48.90918 607.715174,46.4871216 607.675355,43.5489102 L607.675355,43.5489102 Z" id="Fill-23" sketch:type="MSShapeGroup"></path>
            <path d="M641.041099,5.6443482 C640.086621,5.6443482 639.581365,5.58817153 639.525331,5.47586589 C639.497195,5.41973691 639.482888,5.30743126 639.482888,5.1389728 C639.482888,4.46513892 639.637398,4.00187218 639.946417,3.7491964 C640.002451,3.72113191 640.213233,3.70708774 640.578047,3.70708774 C642.094054,3.79130505 643.877115,3.83343755 645.926514,3.83343755 C649.885109,3.83343755 652.159358,3.79130505 652.749023,3.70708774 L653.254279,3.70708774 C653.422856,3.87554621 653.507026,4.00187218 653.507026,4.08611333 C653.507026,4.17035449 653.47889,4.42303027 653.422856,4.84418836 C653.282415,5.26529876 653.15628,5.53204255 653.043735,5.6443482 L651.44332,5.6443482 C649.506227,5.67241269 648.369341,5.7987625 648.032185,6.02337379 C647.83571,6.13565559 647.638997,6.52874919 647.44276,7.20258306 C647.246284,7.87636925 646.305635,11.5824317 644.621051,18.3206989 C644.171828,20.1456537 643.694469,22.0828903 643.189213,24.1324564 C642.683957,26.1819987 642.304836,27.7261894 642.052089,28.7650047 L641.672968,30.281107 C641.672968,30.3934127 641.799341,30.4495655 642.052089,30.4495655 C642.304836,30.4495655 643.13318,30.4776538 644.536881,30.5337828 L645.25268,30.5337828 C646.151126,30.5337828 646.867163,30.5197625 647.400317,30.4916741 C647.933948,30.4636097 648.62185,30.3653482 649.464261,30.1968659 C650.306434,30.0284312 651.008166,29.7757555 651.569933,29.4388385 C652.131222,29.1019216 652.749023,28.6246345 653.422856,28.0069535 C654.09669,27.3892724 654.686355,26.6171771 655.191611,25.6906674 C655.640833,24.8483751 656.062158,23.9078451 656.45487,22.8690298 C656.848059,21.8302145 657.086739,21.240598 657.171147,21.1002278 C657.31135,21.0159867 657.550029,20.973878 657.886946,20.973878 L658.434406,20.973878 C658.602984,21.2265538 658.687154,21.3809919 658.687154,21.4371448 C658.687154,21.4932976 658.40627,22.3215458 657.844742,23.9218654 C657.283214,25.522209 656.665652,27.2067698 655.991818,28.9755718 C655.317984,30.7443499 654.95317,31.7831652 654.896659,32.0920177 C654.840626,32.2323878 654.784592,32.316629 654.728559,32.3446934 C654.672287,32.3727818 654.447675,32.4148904 654.054725,32.4710671 C653.661536,32.5271961 653.057803,32.5412402 652.243766,32.5131758 L649.043175,32.5131758 C647.218148,32.5131758 645.477292,32.4991316 643.820843,32.4710671 L636.324739,32.4710671 C633.966082,32.4710671 632.786992,32.3306493 632.786992,32.049909 C632.786992,31.8533622 632.81489,31.6568392 632.871162,31.4603163 C633.011603,30.9268764 633.152045,30.6320681 633.292248,30.5759153 C633.404792,30.5478508 633.615336,30.5337828 633.924117,30.5337828 L634.176626,30.5337828 C634.934629,30.5337828 635.777041,30.4916741 636.703383,30.4074568 C637.096572,30.3232395 637.363388,30.1547572 637.503829,29.9020814 C637.587999,29.7897758 638.59875,25.8871904 640.535843,18.1943729 C642.473175,10.5015077 643.441722,6.44450804 643.441722,6.02337379 C643.441722,5.82682699 642.641515,5.70047718 641.041099,5.6443482 L641.041099,5.6443482 Z" id="Fill-24" sketch:type="MSShapeGroup"></path>
            <path d="M632.534245,55.0891856 C632.33777,54.8926436 632.239532,54.7522687 632.239532,54.6680323 C632.239532,54.5557266 632.281736,54.3311153 632.365667,53.9941984 C632.449837,53.6572815 632.520177,53.460768 632.576449,53.4046009 C632.632483,53.264226 632.758856,53.1940386 632.95557,53.1940386 C633.152045,53.1940386 633.867845,53.1799896 635.103207,53.1519204 L637.335252,53.1519204 L638.135459,49.7827796 C638.219629,49.473951 638.317866,49.0668609 638.430172,48.5614617 C638.542478,48.0561101 638.640954,47.6911287 638.724885,47.4665174 C638.809055,47.2419061 638.893463,46.961142 638.977632,46.6242251 C639.06204,46.2873081 639.174108,46.0486765 639.314788,45.9082826 C639.454991,45.7679124 639.595433,45.599454 639.735874,45.4029072 C639.876077,45.2063842 640.072553,45.0800582 640.3253,45.0238816 C640.578047,44.9677526 640.830556,44.9396642 641.083542,44.9396642 C641.588798,44.9677526 641.939545,45.1221669 642.136258,45.4029072 C642.332734,45.6836713 642.430971,45.9503912 642.430971,46.203067 C642.430971,46.3996138 642.304836,47.0594035 642.052089,48.1824599 C641.799341,49.3054926 641.518458,50.4145048 641.209677,51.509473 L640.788591,53.067684 C640.788591,53.1238511 641.490322,53.1519204 642.8945,53.1519204 L645.042137,53.1519204 C645.238612,53.3484624 645.33685,53.5028576 645.33685,53.6151633 C645.33685,54.2328586 645.154681,54.7241708 644.78939,55.0891856 L640.283334,55.0891856 L638.767089,61.1957228 C637.67193,65.6878914 637.124708,68.1024484 637.124708,68.4393654 C637.124708,69.6185603 637.503829,70.2081578 638.261833,70.2081578 C639.244209,70.2081578 640.199165,69.730866 641.125508,68.7762823 C642.052089,67.82167 642.796024,66.642475 643.357791,65.2386688 C643.413824,65.0702246 643.483926,64.9719679 643.568096,64.94387 C643.652504,64.9158008 643.863047,64.8877315 644.199726,64.8596623 L644.368303,64.8596623 C644.78939,64.8596623 645.000172,64.9719679 645.000172,65.1965792 C645.000172,65.280787 644.957967,65.4492598 644.873559,65.7019403 C644.733356,66.1511629 644.480847,66.6845932 644.115556,67.30226 C643.750503,67.9199553 643.273383,68.5797403 642.683957,69.2816434 C642.094054,69.9835465 641.378255,70.573144 640.535843,71.0504358 C639.693432,71.5277277 638.837429,71.7663593 637.96712,71.7663593 C637.124708,71.7663593 636.324739,71.5557969 635.566497,71.1346722 C634.808494,70.7135189 634.260795,69.9835465 633.924117,68.9447265 C633.867845,68.7201152 633.839947,68.34108 633.839947,67.8076497 L633.839947,67.0495794 L635.31375,61.1536046 C636.296365,57.1948664 636.801859,55.2014626 636.829995,55.1733934 C636.829995,55.1172548 636.113958,55.0891856 634.681882,55.0891856 L632.534245,55.0891856 L632.534245,55.0891856 Z" id="Fill-25" sketch:type="MSShapeGroup"></path>
            <path d="M650.164085,61.3220774 L650.164085,60.7745695 C650.164085,60.4095833 650.360799,60.1288335 650.753749,59.9322914 L675.222074,59.9322914 C675.643399,60.1569027 675.853942,60.4376811 675.853942,60.7745695 C675.853942,61.1114864 675.643399,61.3922648 675.222074,61.6168761 L650.753749,61.6168761 C650.360799,61.4203341 650.164085,61.1395843 650.164085,60.7745695 L650.164085,61.3220774 Z" id="Fill-26" sketch:type="MSShapeGroup"></path>
            <path d="M688.353966,46.961142 L687.806744,47.1717091 C687.413555,47.3120793 686.851788,47.4524494 686.121921,47.5928672 C685.392053,47.7332374 684.577778,47.8314988 683.679333,47.8876517 L682.879363,47.8876517 L682.879363,45.9503912 L683.679333,45.9503912 C684.998864,45.8942622 686.220397,45.6836713 687.343453,45.3186898 C688.46651,44.9536846 689.252411,44.6167676 689.701633,44.3079629 C690.150856,43.9991104 690.544045,43.690258 690.880962,43.3814532 C690.936995,43.2972121 691.105573,43.2550796 691.386218,43.2550796 C691.639204,43.2550796 691.877645,43.3393207 692.102256,43.5077792 L692.102256,56.0999078 L692.14446,68.7341641 C692.340935,68.9306775 692.509274,69.0570321 692.649716,69.1131706 C692.790158,69.1693378 693.127075,69.2254763 693.660228,69.2816434 C694.193859,69.3377819 695.064407,69.3658798 696.271633,69.3658798 L697.366553,69.3658798 L697.366553,71.3031164 L696.903263,71.3031164 C696.313598,71.21888 694.081553,71.1767618 690.207128,71.1767618 C686.388736,71.1767618 684.184827,71.21888 683.595163,71.3031164 L683.089907,71.3031164 L683.089907,69.3658798 L684.184827,69.3658798 L685.785242,69.3658798 C686.234465,69.3658798 686.585211,69.3518308 686.837959,69.3237616 C687.090706,69.2956637 687.315079,69.2535741 687.511792,69.197407 C687.708268,69.1412685 687.820812,69.1131706 687.848709,69.1131706 C687.876845,69.1131706 687.961015,69.0429832 688.101457,68.9026083 C688.241898,68.7622334 688.326068,68.7060662 688.353966,68.7341641 L688.353966,46.961142 L688.353966,46.961142 Z" id="Fill-27" sketch:type="MSShapeGroup"></path>
            <path d="M711.068796,50.934139 L711.068796,49.4451712 C711.068796,48.4525419 711.386637,47.5988759 712.021844,46.8841733 C712.65705,46.1694945 713.510907,45.8121432 714.582699,45.8121432 C715.694548,45.8121432 716.687178,46.3084578 717.560587,47.3010872 C718.434234,48.2937403 718.890848,50.0407726 718.930668,52.5422366 C718.930668,53.9319081 718.751837,55.2819221 718.394414,56.5921928 C718.036991,57.9024921 717.620197,59.0340752 717.143792,59.9870279 C716.667387,60.939952 716.151163,61.7539319 715.595357,62.4289103 C715.039313,63.1039173 714.562908,63.6399514 714.165666,64.0369841 C713.7689,64.4340453 713.510907,64.6127329 713.391448,64.5730182 C713.232647,64.5730182 712.974653,64.3943306 712.617231,64.0369841 C712.260046,63.6796375 712.081216,63.4215491 712.081216,63.2627475 C712.081216,63.1039173 712.299627,62.7862568 712.736451,62.3097948 C713.173275,61.8333327 713.669709,61.2377551 714.225514,60.523062 C714.78132,59.8083403 715.297306,58.8157015 715.773711,57.5451169 C716.250592,56.2745609 716.568196,54.8252888 716.726997,53.1973577 L716.726997,52.4826646 L716.667387,52.5422366 C716.587748,52.5819227 716.488556,52.6216374 716.369574,52.6613521 C716.250592,52.7010382 716.131134,52.7606103 716.012152,52.8400111 C715.89317,52.9194405 715.714339,52.9591266 715.476137,52.9591266 C715.237934,52.9591266 714.999732,52.978984 714.761529,53.0186987 C713.689261,53.0186987 712.815852,52.6811809 712.140826,52.006193 L711.068796,50.934139 Z" id="Fill-28" sketch:type="MSShapeGroup"></path>
            <path d="M741.086116,12.340316 C741.125935,12.340316 742.555388,12.241053 745.374474,12.0425272 C748.193561,11.8439775 749.642804,11.7248763 749.722205,11.685152 C750.19861,11.685152 750.436812,11.8638396 750.436812,12.2211909 C750.436812,12.6579669 749.722205,15.6557408 748.292991,21.2145125 C746.783898,27.0909352 746.02971,30.0887091 746.02971,30.2078341 C746.02971,30.2872349 746.168483,30.187972 746.446505,29.9100215 C748.868587,27.7659136 751.449471,26.6938835 754.189156,26.6938835 C756.333216,26.6938835 758.060482,27.2299224 759.370715,28.3019525 C760.680947,29.3740303 761.355973,30.9423751 761.395554,33.0070583 C761.395554,35.032065 760.641127,38.1688022 759.132274,42.4172938 C757.623658,46.6658092 756.86947,49.2069449 756.86947,50.0407726 C756.908813,50.5966498 757.008242,50.9738394 757.167044,51.1723891 C757.325846,51.370915 757.623658,51.4701779 758.060482,51.4701779 C759.172093,51.4701779 760.204542,50.8746003 761.157352,49.6834452 C762.1104,48.4922423 762.884617,46.8643112 763.480004,44.7996518 C763.599463,44.3628758 763.718445,44.1047874 763.837427,44.0253866 C763.956886,43.9459858 764.274489,43.9062616 764.790475,43.9062616 C765.584483,43.9062616 765.981726,44.065087 765.981726,44.3827141 C765.981726,44.4224383 765.902087,44.7202033 765.743285,45.2761043 C765.108078,47.6187381 764.095659,49.544458 762.705787,51.0532879 C761.355973,52.7606103 759.747928,53.6142763 757.881651,53.6142763 L757.583839,53.6142763 C755.717801,53.6142763 754.367748,53.0782421 753.533921,52.006193 C752.700093,50.934139 752.283298,49.8025464 752.283298,48.6113674 C752.283298,47.9760655 752.998144,45.6334556 754.427359,41.5834899 C755.856812,37.5335004 756.591209,34.4960261 756.631029,32.4710671 C756.631029,30.1284095 755.757382,28.9571165 754.010326,28.9571165 L753.712513,28.9571165 C750.41726,28.9571165 747.558116,30.9026747 745.136272,34.7938149 L744.719239,35.5680801 L742.694161,43.6084489 C741.423748,48.7701928 740.689112,51.5892791 740.490729,52.0657555 C739.974504,53.1378142 739.101095,53.6738483 737.870025,53.6738483 C737.31422,53.6738483 736.837815,53.4951608 736.440572,53.1378142 C736.043807,52.7804677 735.825156,52.4231306 735.785575,52.0657555 C735.785575,51.5098783 737.234819,45.4746302 740.133306,33.960011 L744.540647,16.3307191 C744.540647,15.8145424 744.401636,15.4969153 744.123852,15.3777902 C743.84583,15.258689 743.071613,15.1594261 741.800961,15.0800015 L740.550339,15.0800015 C740.311898,14.8417513 740.192916,14.6829259 740.192916,14.6035251 C740.192916,14.5241243 740.232736,14.1469347 740.311898,13.4719086 C740.510519,12.7175056 740.768512,12.340316 741.086116,12.340316 L741.086116,12.340316 Z" id="Fill-29" sketch:type="MSShapeGroup"></path>
            <path d="M776.834362,5.6443482 C775.879883,5.6443482 775.374388,5.58817153 775.318355,5.47586589 C775.290457,5.41973691 775.276151,5.30743126 775.276151,5.1389728 C775.276151,4.46513892 775.43066,4.00187218 775.73968,3.7491964 C775.795713,3.72113191 776.006256,3.70708774 776.371071,3.70708774 C777.887316,3.79130505 779.670139,3.83343755 781.719776,3.83343755 C785.678372,3.83343755 787.952382,3.79130505 788.542046,3.70708774 L789.047541,3.70708774 C789.21588,3.87554621 789.30005,4.00187218 789.30005,4.08611333 C789.30005,4.17035449 789.272152,4.42303027 789.21588,4.84418836 C789.075438,5.26529876 788.949303,5.53204255 788.836759,5.6443482 L787.236583,5.6443482 C785.299489,5.67241269 784.162365,5.7987625 783.825209,6.02337379 C783.628734,6.13565559 783.432259,6.52874919 783.235783,7.20258306 C783.039308,7.87636925 782.098897,11.5824317 780.414074,18.3206989 C779.964852,20.1456537 779.487493,22.0828903 778.982237,24.1324564 C778.476981,26.1819987 778.09786,27.7261894 777.845112,28.7650047 L777.465991,30.281107 C777.465991,30.3934127 777.592603,30.4495655 777.845112,30.4495655 C778.09786,30.4495655 778.926203,30.4776538 780.329905,30.5337828 L781.045942,30.5337828 C781.944388,30.5337828 782.660187,30.5197625 783.193579,30.4916741 C783.72721,30.4636097 784.415112,30.3653482 785.257285,30.1968659 C786.099458,30.0284312 786.801428,29.7757555 787.362956,29.4388385 C787.924484,29.1019216 788.542046,28.6246345 789.21588,28.0069535 C789.889714,27.3892724 790.479617,26.6171771 790.984873,25.6906674 C791.434095,24.8483751 791.855182,23.9078451 792.248133,22.8690298 C792.641322,21.8302145 792.879762,21.240598 792.96417,21.1002278 C793.104374,21.0159867 793.343053,20.973878 793.680208,20.973878 L794.22743,20.973878 C794.396008,21.2265538 794.480177,21.3809919 794.480177,21.4371448 C794.480177,21.4932976 794.199533,22.3215458 793.638004,23.9218654 C793.076476,25.522209 792.458676,27.2067698 791.784842,28.9755718 C791.111008,30.7443499 790.746194,31.7831652 790.69016,32.0920177 C790.633649,32.2323878 790.577616,32.316629 790.521582,32.3446934 C790.465549,32.3727818 790.240937,32.4148904 789.847748,32.4710671 C789.454559,32.5271961 788.850827,32.5412402 788.03679,32.5131758 L784.836198,32.5131758 C783.011172,32.5131758 781.270554,32.4991316 779.614105,32.4710671 L772.117763,32.4710671 C769.759106,32.4710671 768.580016,32.3306493 768.580016,32.049909 C768.580016,31.8533622 768.608152,31.6568392 768.664185,31.4603163 C768.804627,30.9268764 768.945069,30.6320681 769.085272,30.5759153 C769.197816,30.5478508 769.408359,30.5337828 769.71714,30.5337828 L769.969888,30.5337828 C770.727653,30.5337828 771.570064,30.4916741 772.496645,30.4074568 C772.889834,30.3232395 773.156411,30.1547572 773.296853,29.9020814 C773.381023,29.7897758 774.392012,25.8871904 776.329105,18.1943729 C778.266437,10.5015077 779.234984,6.44450804 779.234984,6.02337379 C779.234984,5.82682699 778.434538,5.70047718 776.834362,5.6443482 L776.834362,5.6443482 Z" id="Fill-30" sketch:type="MSShapeGroup"></path>
            <path d="M768.327507,55.0891856 C768.130793,54.8926436 768.032794,54.7522687 768.032794,54.6680323 C768.032794,54.5557266 768.07476,54.3311153 768.158929,53.9941984 C768.243099,53.6572815 768.313439,53.460768 768.369473,53.4046009 C768.425506,53.264226 768.552118,53.1940386 768.748594,53.1940386 C768.945069,53.1940386 769.661107,53.1799896 770.89623,53.1519204 L773.128275,53.1519204 L773.928721,49.7827796 C774.012891,49.473951 774.11089,49.0668609 774.223434,48.5614617 C774.335501,48.0561101 774.433977,47.6911287 774.518147,47.4665174 C774.602555,47.2419061 774.686725,46.961142 774.770656,46.6242251 C774.855064,46.2873081 774.96737,46.0486765 775.107811,45.9082826 C775.248015,45.7679124 775.388456,45.599454 775.528898,45.4029072 C775.669101,45.2063842 775.865815,45.0800582 776.118324,45.0238816 C776.371071,44.9677526 776.623818,44.9396642 776.876566,44.9396642 C777.38206,44.9677526 777.732807,45.1221669 777.929282,45.4029072 C778.125996,45.6836713 778.223995,45.9503912 778.223995,46.203067 C778.223995,46.3996138 778.09786,47.0594035 777.845112,48.1824599 C777.592603,49.3054926 777.311482,50.4145048 777.002939,51.509473 L776.581614,53.067684 C776.581614,53.1238511 777.283584,53.1519204 778.687524,53.1519204 L780.835161,53.1519204 C781.031874,53.3484624 781.129874,53.5028576 781.129874,53.6151633 C781.129874,54.2328586 780.947705,54.7241708 780.582652,55.0891856 L776.076358,55.0891856 L774.560113,61.1957228 C773.465192,65.6878914 772.917732,68.1024484 772.917732,68.4393654 C772.917732,69.6185603 773.296853,70.2081578 774.054856,70.2081578 C775.037471,70.2081578 775.992188,69.730866 776.91877,68.7762823 C777.845112,67.82167 778.589048,66.642475 779.150815,65.2386688 C779.206848,65.0702246 779.27695,64.9719679 779.361358,64.94387 C779.445527,64.9158008 779.656071,64.8877315 779.992988,64.8596623 L780.161327,64.8596623 C780.582652,64.8596623 780.793195,64.9719679 780.793195,65.1965792 C780.793195,65.280787 780.75123,65.4492598 780.666822,65.7019403 C780.526618,66.1511629 780.273871,66.6845932 779.908818,67.30226 C779.543765,67.9199553 779.066406,68.5797403 778.476981,69.2816434 C777.887316,69.9835465 777.171278,70.573144 776.329105,71.0504358 C775.486694,71.5277277 774.630453,71.7663593 773.760144,71.7663593 C772.917732,71.7663593 772.117763,71.5557969 771.359521,71.1346722 C770.601517,70.7135189 770.053819,69.9835465 769.71714,68.9447265 C769.661107,68.7201152 769.632971,68.34108 769.632971,67.8076497 L769.632971,67.0495794 L771.106774,61.1536046 C772.089388,57.1948664 772.595122,55.2014626 772.623019,55.1733934 C772.623019,55.1172548 771.90722,55.0891856 770.475144,55.0891856 L768.327507,55.0891856 L768.327507,55.0891856 Z" id="Fill-31" sketch:type="MSShapeGroup"></path>
            <path d="M785.957347,61.3220774 L785.957347,60.7745695 C785.957347,60.4095833 786.153823,60.1288335 786.547012,59.9322914 L811.015336,59.9322914 C811.436422,60.1569027 811.646966,60.4376811 811.646966,60.7745695 C811.646966,61.1114864 811.436422,61.3922648 811.015336,61.6168761 L786.547012,61.6168761 C786.153823,61.4203341 785.957347,61.1395843 785.957347,60.7745695 L785.957347,61.3220774 Z" id="Fill-32" sketch:type="MSShapeGroup"></path>
            <path d="M824.147228,46.961142 L823.599767,47.1717091 C823.206578,47.3120793 822.64505,47.4524494 821.915183,47.5928672 C821.185077,47.7332374 820.370801,47.8314988 819.472356,47.8876517 L818.672387,47.8876517 L818.672387,45.9503912 L819.472356,45.9503912 C820.792126,45.8942622 822.01342,45.6836713 823.136477,45.3186898 C824.259533,44.9536846 825.045673,44.6167676 825.494895,44.3079629 C825.944118,43.9991104 826.337307,43.690258 826.673985,43.3814532 C826.730019,43.2972121 826.898597,43.2550796 827.179242,43.2550796 C827.432227,43.2550796 827.670907,43.3393207 827.895518,43.5077792 L827.895518,56.0999078 L827.937484,68.7341641 C828.134197,68.9306775 828.302298,69.0570321 828.44274,69.1131706 C828.58342,69.1693378 828.920098,69.2254763 829.453729,69.2816434 C829.987121,69.3377819 830.85743,69.3658798 832.064656,69.3658798 L833.159577,69.3658798 L833.159577,71.3031164 L832.696525,71.3031164 C832.106622,71.21888 829.874577,71.1767618 826.000152,71.1767618 C822.18176,71.1767618 819.978089,71.21888 819.388187,71.3031164 L818.88293,71.3031164 L818.88293,69.3658798 L819.978089,69.3658798 L821.578266,69.3658798 C822.027488,69.3658798 822.378235,69.3518308 822.630982,69.3237616 C822.883968,69.2956637 823.108579,69.2535741 823.304816,69.197407 C823.501291,69.1412685 823.613835,69.1131706 823.641972,69.1131706 C823.669869,69.1131706 823.754039,69.0429832 823.89448,68.9026083 C824.034922,68.7622334 824.119092,68.7060662 824.147228,68.7341641 L824.147228,46.961142 L824.147228,46.961142 Z" id="Fill-33" sketch:type="MSShapeGroup"></path>
            <path d="M846.08784,9.48150543 C846.08784,8.9256521 846.147451,8.60797734 846.266433,8.52857653 C846.385415,8.44915188 846.782657,8.3896132 847.457445,8.34988895 C850.753174,8.34988895 853.294238,8.8462036 855.080876,9.83885675 C856.867752,10.831486 858.118374,11.923426 858.83322,13.1145811 C859.190642,13.948385 859.389025,14.6432493 859.428845,15.1991027 C859.468426,15.7550037 859.508246,18.4152645 859.547827,23.1799328 C859.587647,28.6990281 859.627228,31.5578148 859.667047,31.7563406 C860.183033,33.5430972 861.215482,34.8534013 862.763917,35.6872051 C864.312591,36.521009 865.742044,36.9577849 867.052276,36.9974853 C867.4891,36.9974853 867.766883,37.0570478 867.886104,37.1761729 C868.005324,37.2952741 868.064934,37.6129012 868.064934,38.129078 C868.064934,38.6452547 868.005324,38.9629295 867.886104,39.0820307 C867.766883,39.2011558 867.4891,39.2606944 867.052276,39.2606944 C865.583242,39.2606944 864.153789,39.6776083 862.763917,40.511436 C861.374284,41.3452398 860.441265,42.3974555 859.96486,43.6680353 C859.766239,44.2238886 859.647257,44.9386151 859.607437,45.8121432 C859.567617,46.6856713 859.547827,49.6437209 859.547827,54.6863159 L859.547827,57.7238045 C859.547827,59.9075985 859.428845,61.4362715 859.190642,62.3097948 C858.952202,63.1833181 858.376605,64.0171267 857.463377,64.8112492 C855.319317,66.8759563 852.003797,67.9082813 847.517055,67.9082813 C846.802209,67.9082813 846.385415,67.8487378 846.266433,67.7296223 C846.147451,67.6105068 846.08784,67.272989 846.08784,66.7171261 L846.08784,66.3002075 C846.08784,66.2605214 846.107631,66.1612346 846.147451,66.002433 C846.186793,65.8436028 846.246642,65.7641734 846.325804,65.7641734 C846.405444,65.7641734 846.564245,65.7443446 846.802209,65.7046299 C847.358253,65.7046299 847.973669,65.6450578 848.648695,65.5259423 C849.323721,65.4068268 850.078148,65.2083105 850.911976,64.9303648 C851.745803,64.652419 852.480201,64.1958143 853.115408,63.560522 C853.750853,62.9252297 854.227258,62.1708219 854.544861,61.2972986 C854.58468,61.0987823 854.6245,58.279696 854.664081,52.8400111 L854.723691,44.7400654 C855.239916,42.4768563 856.629311,40.6702614 858.892591,39.3202808 C860.282463,38.6452547 861.275092,38.248203 861.870718,38.129078 C860.878088,37.8511513 859.885221,37.4540996 858.892591,36.9379228 C856.70895,35.5879422 855.358898,33.960011 854.842912,32.0541294 L854.723691,31.4585518 L854.664081,23.3586204 C854.6245,17.918926 854.58468,15.0998397 854.544861,14.9013377 C854.068456,13.3130831 853.016455,12.2013288 851.388381,11.5660508 C849.760545,10.9307728 848.231901,10.5932598 846.802209,10.5535832 C846.445025,10.5535832 846.246642,10.4939969 846.206822,10.3748956 C846.167003,10.2557706 846.127422,9.95795796 846.08784,9.48150543 L846.08784,9.48150543 Z" id="Fill-34" sketch:type="MSShapeGroup"></path>
        </g>
    </g>
</svg>