<?xml version="1.0" encoding="UTF-8" standalone="no"?>
<svg width="188px" height="29px" viewBox="0 0 188 29" version="1.1" xmlns="http://www.w3.org/2000/svg" xmlns:xlink="http://www.w3.org/1999/xlink" xmlns:sketch="http://www.bohemiancoding.com/sketch/ns">
    <!-- Generator: Sketch 3.3.3 (12081) - http://www.bohemiancoding.com/sketch -->
    <title>Imported Layers</title>
    <desc>Created with Sketch.</desc>
    <defs></defs>
    <g id="Page-1" stroke="none" stroke-width="1" fill="none" fill-rule="evenodd" sketch:type="MSPage">
        <g id="Imported-Layers" sketch:type="MSLayerGroup" transform="translate(-3.000000, 0.000000)" fill="#000000">
            <path d="M12.59699,26.257608 C12.59699,26.470848 12.54778,26.626668 12.44935,26.72508 L12.00648,26.72508 C9.89052,26.72508 8.41428,26.183796 7.57774,25.101216 C7.49572,24.986388 7.43011,24.887976 7.3809,24.805956 C7.33169,24.723948 7.29068,24.633732 7.25788,24.53532 C7.22508,24.436896 7.19227,24.330276 7.15946,24.21546 C7.12666,24.100644 7.11025,23.97762 7.11025,23.8464 C7.11025,23.71518 7.10206,23.534748 7.08565,23.305104 C7.06925,23.075472 7.06105,22.854036 7.06105,22.640796 L7.06105,21.73044 L7.06105,20.574048 L7.06105,19.27003 C7.04465,17.81018 7.00364,16.99004 6.938028,16.80961 C6.921624,16.79321 6.913428,16.7768 6.913428,16.7604 C6.683784,16.1699 6.27372,15.71063 5.683212,15.38257 C5.092716,15.05452 4.510416,14.89049 3.936324,14.89049 C3.755892,14.89049 3.641076,14.86589 3.591864,14.81668 C3.542652,14.76746 3.518052,14.63624 3.518052,14.423 C3.518052,14.20978 3.542652,14.07856 3.591864,14.02934 C3.641076,13.98013 3.755892,13.95553 3.936324,13.95553 C4.494012,13.95553 5.068116,13.7915 5.658612,13.46345 C6.249108,13.13539 6.66738,12.67612 6.913428,12.08562 C6.995436,11.90519 7.03644,11.64274 7.03644,11.29828 C7.03644,10.95383 7.04465,9.70721 7.06105,7.55845 L7.06105,6.32825 C7.06105,5.42609 7.11025,4.79459 7.20868,4.43372 C7.30709,4.07286 7.54493,3.7284 7.9222,3.40034 C8.34866,2.97388 9.00478,2.62942 9.89052,2.36698 C10.49743,2.23576 10.9321,2.16194 11.19455,2.14554 L11.5144,2.14554 C11.69483,2.14554 11.84245,2.13733 11.95728,2.12093 L12.44935,2.12093 C12.54778,2.21935 12.59699,2.36698 12.59699,2.56381 C12.59699,2.77704 12.57238,2.90826 12.52318,2.95747 C12.49037,3.00668 12.35915,3.03128 12.1295,3.03128 C11.26015,3.0805 10.57944,3.27733 10.08736,3.62178 C9.59527,3.96624 9.30002,4.3107 9.20161,4.65516 C9.11959,4.8684 9.07859,6.0822 9.07859,8.29657 L9.07859,10.31412 C9.07859,11.08505 9.05399,11.60993 9.00478,11.88878 C8.95556,12.16763 8.81615,12.48748 8.5865,12.84834 C8.07802,13.55366 7.3645,14.03754 6.445944,14.29999 L6.101484,14.423 L6.445944,14.54603 C6.741192,14.64445 7.03644,14.76746 7.33169,14.91509 C7.62695,15.06271 7.9714,15.34157 8.36507,15.75163 C8.75874,16.16171 8.98837,16.64558 9.05399,17.20328 C9.07039,17.3017 9.07859,18.41708 9.07859,20.549448 C9.07859,22.76382 9.11959,23.97762 9.20161,24.19086 C9.36564,24.633732 9.7183,25.002792 10.25959,25.29804 C10.80088,25.5933 11.42418,25.765524 12.1295,25.814736 C12.35915,25.814736 12.49037,25.839336 12.52318,25.888548 C12.57238,25.937748 12.59699,26.060772 12.59699,26.257608 L12.59699,26.257608 Z" id="Fill-1" sketch:type="MSShapeGroup"></path>
            <path d="M15.91854,5.59012 C15.91854,5.13084 16.06616,4.76998 16.36142,4.50754 C16.65667,4.2451 17.01752,4.11386 17.444,4.11386 C17.82126,4.14667 18.14932,4.2861 18.42817,4.53214 C18.70702,4.77818 18.84643,5.13084 18.84643,5.59012 C18.84643,6.0822 18.70702,6.45126 18.42817,6.69731 C18.14932,6.94334 17.80487,7.06637 17.39479,7.06637 C16.98473,7.06637 16.64027,6.94334 16.36142,6.69731 C16.08257,6.45126 15.93494,6.0822 15.91854,5.59012 L15.91854,5.59012 Z M20.29808,20.574048 C20.05204,20.524836 19.1991,20.500236 17.73925,20.500236 L16.8289,20.500236 C16.40243,20.500236 15.99235,20.51664 15.59869,20.549448 L15.0574,20.574048 L14.86056,20.574048 L14.86056,19.44226 L15.25423,19.44226 C15.71351,19.44226 16.11538,19.41766 16.45984,19.36844 C16.60746,19.30283 16.69768,19.21261 16.73048,19.0978 C16.76329,18.98298 16.77968,18.63852 16.77968,18.06443 L16.77968,15.5302 L16.77968,13.36504 C16.77968,12.51209 16.76329,11.97079 16.73048,11.74116 C16.69768,11.51152 16.58286,11.3557 16.38602,11.27368 C16.15638,11.15886 15.77092,11.10145 15.22963,11.10145 L14.95898,11.10145 L14.95898,10.53556 C14.95898,10.15829 14.97539,9.96966 15.00818,9.96966 L15.25423,9.94505 C15.41826,9.92864 15.64789,9.91225 15.94315,9.89585 C16.2384,9.87944 16.53365,9.86304 16.8289,9.84664 C17.10774,9.83023 17.403,9.81383 17.71465,9.79742 C18.0263,9.78102 18.26414,9.75642 18.42817,9.72361 C18.5922,9.69082 18.68242,9.68261 18.69881,9.69901 L18.77262,9.69901 L18.77262,19.04858 C18.85464,19.21261 18.95305,19.31104 19.06788,19.34384 C19.1827,19.37664 19.46975,19.40945 19.92902,19.44226 L20.49492,19.44226 L20.49492,20.574048 L20.29808,20.574048 L20.29808,20.574048 Z" id="Fill-3" sketch:type="MSShapeGroup"></path>
            <path d="M22.06958,19.44226 L22.41404,19.44226 C23.05375,19.44226 23.43922,19.32744 23.57044,19.0978 L23.57044,18.90096 L23.57044,18.33506 L23.57044,17.57234 C23.57044,17.29349 23.57863,16.97364 23.59504,16.61278 C23.61144,16.25191 23.61144,15.90746 23.59504,15.57941 L23.59504,13.95553 C23.59504,13.38143 23.58684,12.89755 23.57044,12.50388 L23.57044,11.93798 C23.52122,11.62633 23.40641,11.4213 23.22598,11.32289 C23.04554,11.22446 22.67648,11.15065 22.1188,11.10145 L21.67591,11.10145 L21.67591,10.53556 C21.67591,10.15829 21.69232,9.96966 21.72512,9.96966 L21.97116,9.94505 C22.13519,9.92864 22.36483,9.91225 22.66008,9.89585 C22.95533,9.87944 23.25878,9.86304 23.57044,9.84664 C23.84928,9.83023 24.14453,9.81383 24.45618,9.79742 C24.76783,9.78102 25.00567,9.75642 25.1697,9.72361 C25.33373,9.69082 25.42394,9.68261 25.44035,9.69901 L25.51416,9.69901 L25.51416,10.68318 C25.51416,11.30648 25.52237,11.61814 25.53877,11.61814 C25.55518,11.61814 25.59618,11.57713 25.66178,11.49511 C25.7274,11.4131 25.82581,11.29008 25.95704,11.12605 C26.08826,10.96202 26.24408,10.8144 26.42452,10.68318 C26.60495,10.55196 26.84279,10.39613 27.13804,10.2157 C27.43328,10.03526 27.74494,9.90404 28.07299,9.82204 C28.40105,9.74002 28.81932,9.69901 29.32781,9.69901 C31.19772,9.76463 32.2393,10.69138 32.45254,12.47928 C32.46894,12.5941 32.47714,13.7341 32.47714,15.89926 L32.47714,18.01522 C32.47714,18.63852 32.49354,19.00758 32.52635,19.12241 C32.55916,19.23722 32.64937,19.31923 32.797,19.36844 C33.14146,19.41766 33.54332,19.44226 34.0026,19.44226 L34.39626,19.44226 L34.39626,20.574048 L34.19942,20.574048 L33.60893,20.549448 C33.23167,20.533044 32.8216,20.524836 32.37872,20.524836 C31.93585,20.524836 31.6242,20.51664 31.44377,20.500236 C29.75428,20.500236 28.83572,20.524836 28.6881,20.574048 L28.49126,20.574048 L28.49126,19.44226 L28.88494,19.44226 C29.8855,19.44226 30.38579,19.31104 30.38579,19.04858 C30.40219,19.01579 30.41039,17.884 30.41039,15.65322 C30.39398,13.43885 30.37758,12.26604 30.36118,12.13482 C30.26276,11.67554 30.09874,11.33108 29.8691,11.10145 C29.63946,10.87181 29.44262,10.73239 29.2786,10.68318 C29.11457,10.63397 28.90134,10.61756 28.63889,10.63397 C27.90077,10.63397 27.25285,10.91281 26.69516,11.47051 C26.25229,11.91338 25.97344,12.36446 25.85862,12.82374 C25.7438,13.28302 25.67819,13.96373 25.66178,14.86589 L25.66178,16.44055 L25.66178,17.9168 C25.66178,18.40888 25.66999,18.73693 25.6864,18.90096 C25.7028,19.06499 25.7274,19.17161 25.76021,19.22082 C25.79302,19.27003 25.86683,19.31923 25.98164,19.36844 C26.3261,19.41766 26.72797,19.44226 27.18725,19.44226 L27.58091,19.44226 L27.58091,20.574048 L27.38408,20.574048 L26.81819,20.549448 C26.42452,20.533044 26.00624,20.524836 25.56337,20.524836 C25.1205,20.524836 24.80885,20.51664 24.62842,20.500236 C22.93892,20.500236 22.02037,20.524836 21.87275,20.574048 L21.67591,20.574048 L21.67591,19.44226 L22.06958,19.44226 L22.06958,19.44226 Z" id="Fill-4" sketch:type="MSShapeGroup"></path>
            <path d="M35.62648,24.21546 L35.97092,24.21546 C36.61063,24.21546 36.9961,24.100644 37.12733,23.871 L37.12733,23.674176 L37.12733,23.206692 L37.12733,22.468572 C37.12733,22.173312 37.13552,21.853464 37.15193,21.509004 C37.16833,21.164544 37.16833,20.803692 37.15193,20.426424 C37.13552,20.049156 37.13552,19.64729 37.15193,19.22082 C37.16833,18.79435 37.16833,18.37608 37.15193,17.966 L37.15193,16.21912 L37.15193,14.59524 L37.15193,13.29122 C37.15193,12.89755 37.14373,12.57769 37.12733,12.33166 C37.11092,12.08562 37.11092,11.95439 37.12733,11.93798 C37.07812,11.62633 36.9633,11.4213 36.78287,11.32289 C36.60244,11.22446 36.23338,11.15065 35.67568,11.10145 L35.2328,11.10145 L35.2328,10.53556 C35.2328,10.15829 35.24921,9.96966 35.28202,9.96966 L35.52805,9.94505 C35.69208,9.92864 35.92992,9.91225 36.24157,9.89585 C36.55322,9.87944 36.85668,9.86304 37.15193,9.84664 C37.43077,9.83023 37.73423,9.81383 38.06228,9.79742 C38.39034,9.78102 38.63638,9.75642 38.8004,9.72361 C38.96443,9.69082 39.05465,9.68261 39.07105,9.69901 L39.14486,9.69901 L39.14486,10.33872 L39.16946,10.97843 L39.3663,10.8062 C40.33406,10.08448 41.46586,9.72361 42.76168,9.72361 C44.0903,9.72361 45.2221,10.2485 46.15705,11.29828 C47.09201,12.34806 47.56769,13.66848 47.58409,15.25955 C47.58409,16.91623 47.051,18.26125 45.98482,19.29463 C44.91864,20.328 43.71304,20.844696 42.368,20.844696 C41.25262,20.844696 40.26846,20.483832 39.41551,19.76212 L39.21868,19.58988 L39.21868,21.68124 L39.21868,23.059068 C39.21868,23.50194 39.23508,23.772588 39.26789,23.871 C39.3007,23.969424 39.3909,24.05964 39.53854,24.141648 C39.88298,24.19086 40.28485,24.21546 40.74414,24.21546 L41.1378,24.21546 L41.1378,25.347252 L40.94096,25.347252 L40.35047,25.322652 C39.9732,25.306248 39.56314,25.29804 39.12026,25.29804 C38.67738,25.29804 38.36573,25.289844 38.18531,25.27344 C36.49582,25.27344 35.57726,25.29804 35.42964,25.347252 L35.2328,25.347252 L35.2328,24.21546 L35.62648,24.21546 L35.62648,24.21546 Z M45.17288,15.21035 C45.17288,13.99654 44.89404,12.93856 44.33634,12.03641 C43.77865,11.13425 43.08152,10.68318 42.24499,10.68318 C41.08039,10.68318 40.07162,11.21627 39.21868,12.28244 L39.21868,18.16284 C39.87479,19.34384 40.79334,19.93434 41.97434,19.93434 C42.81089,19.93434 43.54901,19.49147 44.18872,18.60571 C44.82842,17.71997 45.15648,16.58818 45.17288,15.21035 L45.17288,15.21035 Z" id="Fill-5" sketch:type="MSShapeGroup"></path>
            <path d="M57.84402,19.14701 C56.92547,20.262396 55.88389,20.820084 54.71929,20.820084 L54.54707,20.820084 C52.49672,20.820084 51.31572,20.008152 51.00407,18.38428 C50.98766,18.26946 50.97126,17.14586 50.95486,15.01351 C50.93845,13.22561 50.93026,12.22504 50.93026,12.01181 C50.93026,11.79857 50.88104,11.62633 50.78263,11.49511 C50.6186,11.23267 50.12652,11.10145 49.30638,11.10145 L49.03573,11.10145 L49.03573,10.53556 C49.03573,10.15829 49.05214,9.96966 49.08494,9.96966 L49.35559,9.94505 C49.51962,9.92864 49.75746,9.91225 50.06911,9.89585 C50.38076,9.87944 50.69242,9.86304 51.00407,9.84664 C51.28291,9.83023 51.58637,9.81383 51.91442,9.79742 C52.24248,9.78102 52.48852,9.75642 52.65254,9.72361 C52.81657,9.69082 52.91498,9.68261 52.94779,9.69901 L53.0216,9.69901 L53.0216,14.15237 C53.03801,17.17048 53.06261,18.78614 53.09542,18.99938 C53.14463,19.24542 53.25944,19.44226 53.43988,19.58988 C53.76793,19.81952 54.26002,19.93434 54.91613,19.93434 C55.3426,19.93434 55.72806,19.86053 56.07252,19.7129 C56.41698,19.56528 56.67942,19.37664 56.85985,19.14701 C57.04028,18.91736 57.20431,18.65492 57.35194,18.35968 C57.49956,18.06443 57.59798,17.81838 57.64718,17.62154 C57.6964,17.42472 57.7292,17.22788 57.74561,17.03105 L57.74561,16.61278 C57.74561,16.35034 57.7538,16.02228 57.77021,15.62861 C57.78661,15.23495 57.78661,14.84948 57.77021,14.47222 L57.77021,12.82374 C57.77021,12.06922 57.6882,11.60173 57.52417,11.4213 C57.36014,11.24087 56.95007,11.13425 56.29396,11.10145 L55.85108,11.10145 L55.85108,9.96966 C55.88389,9.96966 56.5072,9.92864 57.721,9.84664 C58.93481,9.76463 59.58271,9.71542 59.66473,9.69901 L59.83696,9.69901 L59.83696,14.07856 C59.83696,17.03105 59.84516,18.5319 59.86156,18.58111 C59.91077,18.90917 60.02558,19.12241 60.20602,19.22082 C60.38645,19.31923 60.75551,19.39304 61.31321,19.44226 L61.75608,19.44226 L61.75608,20.574048 C61.72327,20.574048 61.10818,20.615052 59.91077,20.697072 C58.71337,20.77908 58.08186,20.828292 58.01624,20.844696 L57.84402,20.844696 L57.84402,19.14701 L57.84402,19.14701 Z" id="Fill-6" sketch:type="MSShapeGroup"></path>
            <path d="M62.76485,10.1911 C63.6342,10.12548 64.30672,9.6662 64.7824,8.81327 C65.25808,7.96032 65.52052,6.95975 65.56973,5.81155 L65.56973,5.44249 L66.5539,5.44249 L66.5539,9.96966 L69.87545,9.96966 L69.87545,11.10145 L66.5539,11.10145 L66.5539,14.64445 C66.5703,16.6948 66.5785,17.85119 66.5785,18.11363 C66.5785,18.37608 66.6359,18.63852 66.75072,18.90096 C66.98036,19.54067 67.38223,19.86053 67.95632,19.86053 C68.67805,19.86053 69.12092,19.27823 69.28495,18.11363 C69.30136,17.98241 69.30955,17.60515 69.30955,16.98184 L69.30955,16.12069 L70.29372,16.12069 L70.29372,16.98184 L70.29372,17.2771 C70.29372,18.54011 69.94926,19.49966 69.26035,20.155776 C68.81747,20.598648 68.24338,20.820084 67.53805,20.820084 C66.98036,20.820084 66.49648,20.721672 66.08641,20.524836 C65.67635,20.328 65.3647,20.073768 65.15146,19.76212 C64.93822,19.45045 64.7824,19.16341 64.68397,18.90096 C64.58556,18.63852 64.52815,18.37608 64.51175,18.11363 C64.49534,17.99881 64.48715,16.78501 64.48715,14.47222 L64.48715,11.10145 L62.54341,11.10145 L62.54341,10.1911 L62.76485,10.1911 L62.76485,10.1911 Z" id="Fill-7" sketch:type="MSShapeGroup"></path>
            <path d="M73.59068,19.7129 L73.59068,19.0978 C73.59068,18.68773 73.7219,18.33506 73.98434,18.03982 C74.24678,17.74457 74.59945,17.59694 75.04232,17.59694 C75.5016,17.59694 75.91168,17.80198 76.27253,18.21205 C76.63339,18.62212 76.82202,19.34384 76.83842,20.377212 C76.83842,20.951316 76.76461,21.509004 76.61699,22.0503 C76.46936,22.591584 76.29714,23.059068 76.1003,23.452728 C75.90347,23.8464 75.69023,24.182652 75.4606,24.461508 C75.23095,24.740352 75.03413,24.961788 74.8701,25.125816 C74.70607,25.289844 74.59945,25.363656 74.55024,25.347252 C74.48464,25.347252 74.37802,25.27344 74.23039,25.125816 C74.08277,24.978192 74.00894,24.871572 74.00894,24.805956 C74.00894,24.740352 74.09916,24.609132 74.27959,24.412296 C74.46002,24.21546 74.66506,23.969424 74.8947,23.674176 C75.12434,23.378916 75.33757,22.968852 75.53441,22.44396 C75.73124,21.91908 75.86246,21.320376 75.92807,20.64786 L75.92807,20.352612 L75.90347,20.377212 C75.87066,20.393616 75.82966,20.41002 75.78044,20.426424 C75.73124,20.442828 75.68203,20.467428 75.63282,20.500236 C75.58362,20.533044 75.50981,20.549448 75.41138,20.549448 C75.31297,20.549448 75.21455,20.557644 75.11614,20.574048 C74.67326,20.574048 74.3124,20.43462 74.03356,20.155776 L73.59068,19.7129 Z" id="Fill-8" sketch:type="MSShapeGroup"></path>
            <path d="M83.43234,16.66199 C83.43234,14.87408 84.13766,13.26661 85.5483,11.83957 C86.95894,10.41253 88.48439,9.69901 90.12467,9.69901 C91.04322,9.69901 91.76495,9.89585 92.28984,10.28951 C92.81472,10.68318 93.08537,11.19986 93.10177,11.83957 C93.10177,12.31525 92.94595,12.71712 92.63429,13.04518 C92.32264,13.37323 91.92898,13.54546 91.4533,13.56186 C91.14164,13.56186 90.8956,13.47985 90.71516,13.31582 C90.53474,13.1518 90.44453,12.90575 90.44453,12.57769 C90.44453,12.24964 90.53474,11.97079 90.71516,11.74116 C90.8956,11.51152 91.07603,11.33929 91.25646,11.22446 C91.43689,11.10965 91.55171,11.06044 91.60092,11.07684 L91.62552,11.07684 C91.62552,11.04404 91.57632,10.99483 91.4779,10.92922 C91.37948,10.86361 91.20725,10.798 90.96121,10.73239 C90.71516,10.66678 90.43632,10.63397 90.12467,10.63397 C89.63258,10.63397 89.16511,10.74878 88.72223,10.97843 C88.37778,11.12605 88.02511,11.3803 87.66426,11.74116 C86.94253,12.46288 86.41764,13.47985 86.08958,14.79208 C85.76153,16.10429 85.5893,17.05565 85.5729,17.64616 C85.5729,18.40068 85.78614,18.96658 86.21261,19.34384 C86.57347,19.7375 87.04915,19.93434 87.63965,19.93434 L87.73807,19.93434 C89.57518,19.93434 91.09243,19.23722 92.28984,17.84299 C92.43746,17.67896 92.53588,17.59694 92.58509,17.59694 C92.65069,17.59694 92.75731,17.67076 92.90494,17.81838 C93.05256,17.966 93.13458,18.08083 93.15098,18.16284 C93.16739,18.24486 93.09358,18.36787 92.92955,18.5319 C92.76552,18.69593 92.52768,18.92557 92.21603,19.22082 C91.90438,19.51607 91.5353,19.76212 91.10884,19.95894 C90.68237,20.155776 90.15748,20.360808 89.53417,20.574048 C88.91087,20.787288 88.25476,20.877504 87.56584,20.844696 C86.33563,20.844696 85.34327,20.451024 84.58873,19.66369 C83.83421,18.87636 83.44874,17.87579 83.43234,16.66199 L83.43234,16.66199 Z" id="Fill-9" sketch:type="MSShapeGroup"></path>
            <path d="M96.95512,2.05432 L96.72895,2.1413 C96.56657,2.19929 96.3346,2.25728 96.03304,2.31528 C95.73148,2.37326 95.39513,2.41386 95.02397,2.43706 L94.69342,2.43706 L94.69342,1.63676 L95.02397,1.63676 C95.5691,1.61357 96.07363,1.52658 96.53758,1.3758 C97.0015,1.22502 97.3263,1.08583 97.5119,0.95825 C97.6974,0.83066 97.8598,0.70308 97.999,0.5755 C98.0222,0.54071 98.0918,0.52331 98.2078,0.52331 C98.3121,0.52331 98.4107,0.55811 98.5035,0.6277 L98.5035,5.82962 L98.5209,11.04895 C98.6021,11.13014 98.6717,11.18233 98.7297,11.20554 C98.7877,11.22874 98.9269,11.25193 99.1472,11.27513 C99.3676,11.29832 99.7272,11.30992 100.2259,11.30992 L100.6782,11.30992 L100.6782,12.11022 L100.4869,12.11022 C100.2433,12.07542 99.3212,12.05802 97.7206,12.05802 C96.14323,12.05802 95.23274,12.07542 94.98918,12.11022 L94.7804,12.11022 L94.7804,11.30992 L95.23274,11.30992 L95.89386,11.30992 C96.07944,11.30992 96.22441,11.30412 96.3288,11.29253 C96.43319,11.28092 96.52597,11.26352 96.60716,11.24033 C96.68836,11.21713 96.73475,11.20554 96.74635,11.20554 C96.75794,11.20554 96.79274,11.17654 96.85074,11.11855 C96.90872,11.06056 96.94352,11.03736 96.95512,11.04895 L96.95512,2.05432 L96.95512,2.05432 Z" id="Fill-10" sketch:type="MSShapeGroup"></path>
            <path d="M93.70174,21.429384 C93.62056,21.348192 93.57996,21.290196 93.57996,21.255408 C93.57996,21.209016 93.59735,21.11622 93.63215,20.977044 C93.66695,20.837856 93.69594,20.756664 93.71914,20.733468 C93.74233,20.675484 93.79453,20.64648 93.87571,20.64648 C93.9569,20.64648 94.25267,20.640684 94.763,20.62908 L95.68508,20.62908 L96.01565,19.23726 C96.05044,19.10968 96.09103,18.94151 96.13742,18.73273 C96.18382,18.52396 96.22441,18.37318 96.25921,18.28039 C96.29401,18.1876 96.3288,18.07162 96.3636,17.93243 C96.39839,17.79325 96.44479,17.69466 96.50278,17.63668 C96.56077,17.57868 96.61877,17.50909 96.67675,17.4279 C96.73475,17.34671 96.81594,17.29451 96.92033,17.27131 C97.0247,17.24812 97.1291,17.23652 97.2335,17.23652 C97.4423,17.24812 97.5872,17.31191 97.6684,17.4279 C97.7496,17.54388 97.7902,17.65406 97.7902,17.75845 C97.7902,17.83964 97.738,18.11221 97.6336,18.57614 C97.5292,19.04009 97.4133,19.49824 97.2857,19.95058 L97.1117,20.594292 C97.1117,20.617488 97.4017,20.62908 97.9816,20.62908 L98.8689,20.62908 C98.9501,20.710272 98.9907,20.774064 98.9907,20.820456 C98.9907,21.075624 98.9153,21.278604 98.7645,21.429384 L96.90293,21.429384 L96.27661,23.95206 C95.82427,25.807824 95.5981,26.805288 95.5981,26.944476 C95.5981,27.431616 95.75467,27.67518 96.06784,27.67518 C96.47378,27.67518 96.86813,27.478008 97.2509,27.083652 C97.6336,26.689308 97.941,26.202168 98.173,25.622244 C98.1962,25.552656 98.2252,25.51206 98.2599,25.500456 C98.2947,25.488864 98.3817,25.47726 98.5209,25.465668 L98.5905,25.465668 C98.7645,25.465668 98.8515,25.51206 98.8515,25.604844 C98.8515,25.639644 98.8341,25.709232 98.7993,25.81362 C98.7413,25.9992 98.6369,26.219568 98.4861,26.474736 C98.3353,26.729904 98.1382,27.002472 97.8946,27.292428 C97.651,27.582396 97.3553,27.82596 97.0073,28.023132 C96.65936,28.220316 96.3056,28.318896 95.94605,28.318896 C95.5981,28.318896 95.26754,28.231908 94.95438,28.057932 C94.64122,27.883956 94.41505,27.582396 94.27586,27.153252 C94.25267,27.060456 94.24108,26.90388 94.24108,26.683512 L94.24108,26.370348 L94.84999,23.93466 C95.25594,22.299276 95.46472,21.475776 95.47631,21.464184 C95.47631,21.440976 95.18054,21.429384 94.58903,21.429384 L93.70174,21.429384 L93.70174,21.429384 Z" id="Fill-11" sketch:type="MSShapeGroup"></path>
            <path d="M100.9849,24.004248 L100.9849,23.778084 C100.9849,23.627304 101.0661,23.511312 101.2284,23.430132 L111.3365,23.430132 C111.5105,23.522916 111.5975,23.638896 111.5975,23.778084 C111.5975,23.91726 111.5105,24.033252 111.3365,24.126036 L101.2284,24.126036 C101.0661,24.044844 100.9849,23.928864 100.9849,23.778084 L100.9849,24.004248 Z" id="Fill-12" sketch:type="MSShapeGroup"></path>
            <path d="M116.7614,18.07162 L116.5352,18.1586 C116.3729,18.2166 116.1409,18.27458 115.8394,18.33258 C115.5378,18.39058 115.2014,18.43117 114.8303,18.45437 L114.4998,18.45437 L114.4998,17.65406 L114.8303,17.65406 C115.3754,17.63087 115.8799,17.54388 116.344,17.3931 C116.8079,17.24232 117.1326,17.10314 117.3182,16.97556 C117.5038,16.84798 117.6661,16.72039 117.8053,16.59281 C117.8285,16.55801 117.8981,16.54061 118.0141,16.54061 C118.1185,16.54061 118.217,16.57541 118.3099,16.645 L118.3099,21.846924 L118.3273,27.066264 C118.4084,27.147444 118.478,27.199644 118.536,27.22284 C118.5941,27.246036 118.7332,27.269232 118.9536,27.292428 C119.1739,27.315624 119.5336,27.327228 120.0323,27.327228 L120.4846,27.327228 L120.4846,28.12752 L120.2932,28.12752 C120.0497,28.092732 119.1276,28.075332 117.5269,28.075332 C115.9495,28.075332 115.0391,28.092732 114.7955,28.12752 L114.5868,28.12752 L114.5868,27.327228 L115.0391,27.327228 L115.7002,27.327228 C115.8858,27.327228 116.0308,27.321432 116.1352,27.309828 C116.2396,27.298224 116.3323,27.280836 116.4136,27.25764 C116.4947,27.234432 116.5411,27.22284 116.5526,27.22284 C116.5643,27.22284 116.5991,27.193848 116.657,27.135852 C116.7151,27.077856 116.7499,27.05466 116.7614,27.066264 L116.7614,18.07162 L116.7614,18.07162 Z" id="Fill-13" sketch:type="MSShapeGroup"></path>
            <path d="M126.1452,19.7129 L126.1452,19.0978 C126.1452,18.68773 126.2764,18.33506 126.5388,18.03982 C126.8012,17.74457 127.1539,17.59694 127.5968,17.59694 C128.0561,17.59694 128.4661,17.80198 128.827,18.21205 C129.1879,18.62212 129.3764,19.34384 129.3929,20.377212 C129.3929,20.951316 129.3191,21.509004 129.1715,22.0503 C129.0239,22.591584 128.8516,23.059068 128.6548,23.452728 C128.458,23.8464 128.2447,24.182652 128.015,24.461508 C127.7855,24.740352 127.5886,24.961788 127.4245,25.125816 C127.2605,25.289844 127.1539,25.363656 127.1047,25.347252 C127.0391,25.347252 126.9325,25.27344 126.7848,25.125816 C126.6372,24.978192 126.5634,24.871572 126.5634,24.805956 C126.5634,24.740352 126.6536,24.609132 126.8341,24.412296 C127.0145,24.21546 127.2196,23.969424 127.4491,23.674176 C127.6788,23.378916 127.892,22.968852 128.0888,22.44396 C128.2858,21.91908 128.4169,21.320376 128.4826,20.64786 L128.4826,20.352612 L128.458,20.377212 C128.4251,20.393616 128.3842,20.41002 128.335,20.426424 C128.2858,20.442828 128.2366,20.467428 128.1872,20.500236 C128.138,20.533044 128.0642,20.549448 127.9658,20.549448 C127.8674,20.549448 127.769,20.557644 127.6706,20.574048 C127.2277,20.574048 126.8669,20.43462 126.588,20.155776 L126.1452,19.7129 Z" id="Fill-14" sketch:type="MSShapeGroup"></path>
            <path d="M138.5456,3.76942 C138.5621,3.76942 139.1526,3.7284 140.3172,3.64639 C141.4818,3.56437 142.0805,3.51517 142.1132,3.49877 C142.31,3.49877 142.4084,3.57258 142.4084,3.7202 C142.4084,3.90064 142.1132,5.13904 141.5227,7.43543 C140.8994,9.86304 140.5878,11.10145 140.5878,11.15065 C140.5878,11.18346 140.6452,11.14246 140.76,11.02764 C141.7606,10.14188 142.8268,9.69901 143.9586,9.69901 C144.8443,9.69901 145.5578,9.92045 146.0992,10.36332 C146.6404,10.8062 146.9192,11.45411 146.9357,12.30706 C146.9357,13.14359 146.624,14.43941 146.0008,16.1945 C145.3774,17.9496 145.0657,18.99938 145.0657,19.34384 C145.0822,19.57348 145.1232,19.72931 145.1887,19.81132 C145.2544,19.89334 145.3774,19.93434 145.5578,19.93434 C146.0171,19.93434 146.4436,19.68829 146.8373,19.19622 C147.2309,18.70414 147.5508,18.03162 147.7968,17.17867 C147.846,16.99824 147.8952,16.89162 147.9444,16.85882 C147.9936,16.82602 148.1249,16.80961 148.3381,16.80961 C148.6662,16.80961 148.8302,16.87523 148.8302,17.00645 C148.8302,17.02285 148.7974,17.14586 148.7317,17.37551 C148.4693,18.34327 148.0511,19.1388 147.477,19.76212 C146.9192,20.467428 146.2549,20.820084 145.484,20.820084 L145.361,20.820084 C144.59,20.820084 144.0324,20.598648 143.6879,20.155776 C143.3435,19.7129 143.1713,19.24542 143.1713,18.75334 C143.1713,18.4909 143.4665,17.52313 144.057,15.85004 C144.6475,14.17697 144.9509,12.92215 144.9673,12.08562 C144.9673,11.11786 144.6065,10.63397 143.8848,10.63397 L143.7617,10.63397 C142.4003,10.63397 141.2192,11.4377 140.2187,13.04518 L140.0465,13.36504 L139.21,16.68659 C138.6851,18.81895 138.3816,19.98355 138.2996,20.180376 C138.0864,20.62326 137.7256,20.844696 137.217,20.844696 C136.9874,20.844696 136.7905,20.770884 136.6265,20.62326 C136.4624,20.475636 136.3723,20.328 136.3559,20.180376 C136.3559,19.95074 136.9546,17.45752 138.1519,12.70072 L139.9727,5.41789 C139.9727,5.20465 139.9153,5.07343 139.8005,5.02422 C139.6856,4.97502 139.3658,4.934 138.8408,4.9012 L138.3242,4.9012 C138.2258,4.80278 138.1766,4.73717 138.1766,4.70437 C138.1766,4.67156 138.193,4.51573 138.2258,4.23689 C138.3078,3.92524 138.4145,3.76942 138.5456,3.76942 L138.5456,3.76942 Z" id="Fill-15" sketch:type="MSShapeGroup"></path>
            <path d="M153.0526,2.05432 L152.8265,2.1413 C152.664,2.19929 152.432,2.25728 152.1305,2.31528 C151.8289,2.37326 151.4926,2.41386 151.1214,2.43706 L150.7909,2.43706 L150.7909,1.63676 L151.1214,1.63676 C151.6666,1.61357 152.1712,1.52658 152.6351,1.3758 C153.099,1.22502 153.4237,1.08583 153.6094,0.95825 C153.7949,0.83066 153.9572,0.70308 154.0964,0.5755 C154.1196,0.54071 154.1892,0.52331 154.3052,0.52331 C154.4096,0.52331 154.5082,0.55811 154.601,0.6277 L154.601,5.82962 L154.6184,11.04895 C154.6996,11.13014 154.7692,11.18233 154.8271,11.20554 C154.8852,11.22874 155.0243,11.25193 155.2447,11.27513 C155.465,11.29832 155.8247,11.30992 156.3234,11.30992 L156.7757,11.30992 L156.7757,12.11022 L156.5843,12.11022 C156.3408,12.07542 155.4187,12.05802 153.818,12.05802 C152.2406,12.05802 151.3302,12.07542 151.0866,12.11022 L150.8779,12.11022 L150.8779,11.30992 L151.3302,11.30992 L151.9913,11.30992 C152.1769,11.30992 152.3219,11.30412 152.4263,11.29253 C152.5307,11.28092 152.6234,11.26352 152.7047,11.24033 C152.7858,11.21713 152.8322,11.20554 152.8438,11.20554 C152.8554,11.20554 152.8902,11.17654 152.9482,11.11855 C153.0062,11.06056 153.041,11.03736 153.0526,11.04895 L153.0526,2.05432 L153.0526,2.05432 Z" id="Fill-16" sketch:type="MSShapeGroup"></path>
            <path d="M149.7992,21.429384 C149.718,21.348192 149.6774,21.290196 149.6774,21.255408 C149.6774,21.209016 149.6948,21.11622 149.7296,20.977044 C149.7644,20.837856 149.7934,20.756664 149.8166,20.733468 C149.8398,20.675484 149.892,20.64648 149.9732,20.64648 C150.0544,20.64648 150.3502,20.640684 150.8605,20.62908 L151.7826,20.62908 L152.1131,19.23726 C152.1479,19.10968 152.1886,18.94151 152.2349,18.73273 C152.2813,18.52396 152.3219,18.37318 152.3567,18.28039 C152.3915,18.1876 152.4263,18.07162 152.4611,17.93243 C152.4959,17.79325 152.5422,17.69466 152.6003,17.63668 C152.6582,17.57868 152.7162,17.50909 152.7743,17.4279 C152.8322,17.34671 152.9134,17.29451 153.0178,17.27131 C153.1222,17.24812 153.2266,17.23652 153.331,17.23652 C153.5398,17.24812 153.6847,17.31191 153.7658,17.4279 C153.8471,17.54388 153.8876,17.65406 153.8876,17.75845 C153.8876,17.83964 153.8354,18.11221 153.7312,18.57614 C153.6268,19.04009 153.5107,19.49824 153.3832,19.95058 L153.2092,20.594292 C153.2092,20.617488 153.4991,20.62908 154.079,20.62908 L154.9663,20.62908 C155.0476,20.710272 155.0881,20.774064 155.0881,20.820456 C155.0881,21.075624 155.0128,21.278604 154.8619,21.429384 L153.0004,21.429384 L152.3741,23.95206 C151.9217,25.807824 151.6956,26.805288 151.6956,26.944476 C151.6956,27.431616 151.8522,27.67518 152.1653,27.67518 C152.5712,27.67518 152.9656,27.478008 153.3484,27.083652 C153.7312,26.689308 154.0385,26.202168 154.2704,25.622244 C154.2936,25.552656 154.3226,25.51206 154.3574,25.500456 C154.3922,25.488864 154.4792,25.47726 154.6184,25.465668 L154.688,25.465668 C154.8619,25.465668 154.9489,25.51206 154.9489,25.604844 C154.9489,25.639644 154.9315,25.709232 154.8967,25.81362 C154.8388,25.9992 154.7344,26.219568 154.5836,26.474736 C154.4328,26.729904 154.2356,27.002472 153.992,27.292428 C153.7486,27.582396 153.4528,27.82596 153.1048,28.023132 C152.7569,28.220316 152.4031,28.318896 152.0435,28.318896 C151.6956,28.318896 151.365,28.231908 151.0518,28.057932 C150.7387,27.883956 150.5125,27.582396 150.3733,27.153252 C150.3502,27.060456 150.3385,26.90388 150.3385,26.683512 L150.3385,26.370348 L150.9475,23.93466 C151.3534,22.299276 151.5622,21.475776 151.5738,21.464184 C151.5738,21.440976 151.278,21.429384 150.6865,21.429384 L149.7992,21.429384 L149.7992,21.429384 Z" id="Fill-17" sketch:type="MSShapeGroup"></path>
            <path d="M157.0823,24.004248 L157.0823,23.778084 C157.0823,23.627304 157.1635,23.511312 157.3259,23.430132 L167.434,23.430132 C167.608,23.522916 167.695,23.638896 167.695,23.778084 C167.695,23.91726 167.608,24.033252 167.434,24.126036 L157.3259,24.126036 C157.1635,24.044844 157.0823,23.928864 157.0823,23.778084 L157.0823,24.004248 Z" id="Fill-18" sketch:type="MSShapeGroup"></path>
            <path d="M172.8589,18.07162 L172.6327,18.1586 C172.4704,18.2166 172.2384,18.27458 171.9368,18.33258 C171.6353,18.39058 171.2989,18.43117 170.9278,18.45437 L170.5973,18.45437 L170.5973,17.65406 L170.9278,17.65406 C171.4729,17.63087 171.9774,17.54388 172.4414,17.3931 C172.9054,17.24232 173.2301,17.10314 173.4157,16.97556 C173.6012,16.84798 173.7636,16.72039 173.9028,16.59281 C173.926,16.55801 173.9956,16.54061 174.1116,16.54061 C174.216,16.54061 174.3145,16.57541 174.4073,16.645 L174.4073,21.846924 L174.4247,27.066264 C174.5059,27.147444 174.5755,27.199644 174.6335,27.22284 C174.6914,27.246036 174.8306,27.269232 175.0511,27.292428 C175.2714,27.315624 175.6309,27.327228 176.1298,27.327228 L176.582,27.327228 L176.582,28.12752 L176.3906,28.12752 C176.1472,28.092732 175.2251,28.075332 173.6244,28.075332 C172.047,28.075332 171.1366,28.092732 170.893,28.12752 L170.6842,28.12752 L170.6842,27.327228 L171.1366,27.327228 L171.7976,27.327228 C171.9833,27.327228 172.1282,27.321432 172.2326,27.309828 C172.337,27.298224 172.4298,27.280836 172.5109,27.25764 C172.5922,27.234432 172.6386,27.22284 172.6501,27.22284 C172.6618,27.22284 172.6966,27.193848 172.7545,27.135852 C172.8126,27.077856 172.8473,27.05466 172.8589,27.066264 L172.8589,18.07162 L172.8589,18.07162 Z" id="Fill-19" sketch:type="MSShapeGroup"></path>
            <path d="M181.9228,2.58841 C181.9228,2.35877 181.9474,2.22755 181.9966,2.19474 C182.0458,2.16194 182.2098,2.13733 182.4887,2.12093 C183.8501,2.12093 184.8998,2.32597 185.638,2.73604 C186.3761,3.1461 186.8928,3.59718 187.188,4.08926 C187.3357,4.43372 187.4177,4.72078 187.4341,4.95041 C187.4506,5.18005 187.4669,6.27904 187.4833,8.24737 C187.4998,10.52735 187.5161,11.70835 187.5325,11.79036 C187.7458,12.52849 188.1722,13.06978 188.812,13.41424 C189.4517,13.7587 190.0421,13.93913 190.5834,13.95553 C190.7639,13.95553 190.8787,13.98013 190.9279,14.02934 C190.9771,14.07856 191.0017,14.20978 191.0017,14.423 C191.0017,14.63624 190.9771,14.76746 190.9279,14.81668 C190.8787,14.86589 190.7639,14.89049 190.5834,14.89049 C189.9766,14.89049 189.386,15.06271 188.812,15.40717 C188.2379,15.75163 187.8523,16.18631 187.6555,16.7112 C187.5736,16.94083 187.5244,17.23608 187.5079,17.59694 C187.4915,17.95781 187.4833,19.17982 187.4833,21.262968 L187.4833,22.517772 C187.4833,23.419932 187.4341,24.051432 187.3357,24.412296 C187.2373,24.77316 186.9995,25.11762 186.6222,25.445664 C185.7364,26.298612 184.3668,26.72508 182.5133,26.72508 C182.218,26.72508 182.0458,26.70048 181.9966,26.651268 C181.9474,26.602068 181.9228,26.46264 181.9228,26.233008 L181.9228,26.060772 C181.9228,26.044368 181.9309,26.003364 181.9474,25.937748 C181.9638,25.872144 181.9884,25.839336 182.0212,25.839336 C182.054,25.839336 182.1196,25.83114 182.218,25.814736 C182.4476,25.814736 182.7019,25.790124 182.9808,25.740924 C183.2596,25.691712 183.5712,25.609692 183.9157,25.494876 C184.2601,25.38006 184.5636,25.191432 184.826,24.92898 C185.0885,24.66654 185.2853,24.354888 185.4166,23.994024 C185.433,23.912016 185.4493,22.747416 185.4658,20.500236 L185.4904,17.15407 C185.7036,16.21912 186.2777,15.47279 187.2126,14.91509 C187.7868,14.63624 188.1968,14.47222 188.4428,14.423 C188.0328,14.30819 187.6228,14.14416 187.2126,13.93093 C186.3106,13.37323 185.7528,12.70072 185.5396,11.91338 L185.4904,11.66735 L185.4658,8.32118 C185.4493,6.074 185.433,4.9094 185.4166,4.82738 C185.2198,4.17128 184.785,3.712 184.1125,3.44956 C183.44,3.18712 182.8085,3.04769 182.218,3.03128 C182.0704,3.03128 181.9884,3.00668 181.972,2.95747 C181.9555,2.90826 181.9392,2.78525 181.9228,2.58841 L181.9228,2.58841 Z" id="Fill-20" sketch:type="MSShapeGroup"></path>
        </g>
    </g>
</svg>