<?xml version="1.0" encoding="UTF-8" standalone="no"?>
<svg width="489px" height="357px" viewBox="0 0 489 357" version="1.1" xmlns="http://www.w3.org/2000/svg" xmlns:xlink="http://www.w3.org/1999/xlink" xmlns:sketch="http://www.bohemiancoding.com/sketch/ns">
    <!-- Generator: Sketch 3.3.3 (12081) - http://www.bohemiancoding.com/sketch -->
    <title>Network comparison</title>
    <desc>Created with Sketch.</desc>
    <defs></defs>
    <g id="Page-1" stroke="none" stroke-width="1" fill="none" fill-rule="evenodd" sketch:type="MSPage">
        <g id="Network-comparison" sketch:type="MSLayerGroup" transform="translate(1.000000, 1.000000)">
            <g id="Regular" transform="translate(279.000000, 0.000000)">
                <g id="L1" stroke="#979797">
                    <ellipse id="Oval-1" sketch:type="MSShapeGroup" cx="26" cy="147.195122" rx="26" ry="25.9756098"></ellipse>
                    <ellipse id="Oval-1-Copy-10" sketch:type="MSShapeGroup" cx="26" cy="86.5853659" rx="26" ry="25.9756098"></ellipse>
                    <ellipse id="Oval-1-Copy" sketch:type="MSShapeGroup" cx="26" cy="207.804878" rx="26" ry="25.9756098"></ellipse>
                    <ellipse id="Oval-1-Copy-2" sketch:type="MSShapeGroup" cx="26" cy="268.414634" rx="26" ry="25.9756098"></ellipse>
                    <ellipse id="Oval-1-Copy-3" sketch:type="MSShapeGroup" cx="26" cy="329.02439" rx="26" ry="25.9756098"></ellipse>
                    <path d="M52.4300003,85.7195122 C52.4300003,85.7195122 68.3608322,80.7553497 85.4279574,89.8211802 C107.294397,103.503453 102.807153,141.46375 102.807153,141.46375 L102.807153,151.663532" id="Line" stroke-linecap="square" sketch:type="MSShapeGroup"></path>
                    <path id="Line-decoration-1" d="M102.807153,151.663532 L105.807153,140.863532 L99.8071526,140.863532 L102.807153,151.663532 Z" stroke-linecap="square"></path>
                    <path d="M103.19,325.5 L103.19,350.5" id="Line" stroke-linecap="square" sketch:type="MSShapeGroup"></path>
                    <path id="Line-decoration-1" d="M103.19,350.5 L106.19,339.7 L100.19,339.7 L103.19,350.5 Z" stroke-linecap="square"></path>
                    <path d="M183.19,325.5 L183.19,350.5" id="Line-Copy-40" stroke-linecap="square" sketch:type="MSShapeGroup"></path>
                    <path id="Line-Copy-40-decoration-1" d="M183.19,350.5 L186.19,339.7 L180.19,339.7 L183.19,350.5 Z" stroke-linecap="square"></path>
                    <ellipse id="Oval-1-Copy-11" sketch:type="MSShapeGroup" cx="26" cy="25.9756098" rx="26" ry="25.9756098"></ellipse>
                    <path d="M52.4333333,25.1097561 C52.4333333,25.1097561 107.008101,17.7595933 149.161862,34.3331825 C191.315622,50.9067716 182.90745,136.85092 182.90745,136.85092 L182.90745,151.719105" id="Line-Copy-20" stroke-linecap="square" sketch:type="MSShapeGroup"></path>
                    <path id="Line-Copy-20-decoration-1" d="M182.90745,151.719105 L185.90745,140.919105 L179.90745,140.919105 L182.90745,151.719105 Z" stroke-linecap="square"></path>
                </g>
                <g id="L2" transform="translate(78.000000, 151.524390)" stroke="#979797" sketch:type="MSShapeGroup">
                    <ellipse id="Oval-1-Copy-4" cx="26" cy="25.9756098" rx="26" ry="25.9756098"></ellipse>
                    <ellipse id="Oval-1-Copy-5" cx="26" cy="86.5853659" rx="26" ry="25.9756098"></ellipse>
                    <ellipse id="Oval-1-Copy-6" cx="26" cy="147.195122" rx="26" ry="25.9756098"></ellipse>
                </g>
                <g id="L3" transform="translate(156.000000, 151.524390)" stroke="#979797" sketch:type="MSShapeGroup">
                    <ellipse id="Oval-1-Copy-9" cx="26" cy="25.9756098" rx="26" ry="25.9756098"></ellipse>
                    <ellipse id="Oval-1-Copy-7" cx="26" cy="86.5853659" rx="26" ry="25.9756098"></ellipse>
                    <ellipse id="Oval-1-Copy-8" cx="26" cy="147.195122" rx="26" ry="25.9756098"></ellipse>
                </g>
                <g id="L1-L2" transform="translate(52.000000, 146.329268)" stroke="#979797" stroke-linecap="square" sketch:type="MSShapeGroup">
                    <path d="M0.433333333,0.432926829 L25.5666667,29.8719512" id="Line"></path>
                    <path d="M0.433333333,0.432926829 L25.5666667,90.4817073" id="Line-Copy-6"></path>
                    <path d="M0.433333333,61.0426829 L25.5666667,151.091463" id="Line-Copy-7"></path>
                    <path d="M0.433333333,61.0426829 L25.5666667,90.4817073" id="Line-Copy"></path>
                    <path d="M0.433333333,121.652439 L25.5666667,151.091463" id="Line-Copy-2"></path>
                    <path d="M0.433333333,0.432926829 L25.5666667,151.091463" id="Line-Copy-11"></path>
                    <path d="M0.433333333,121.652439 L25.5666667,90.4817073" id="Line-Copy-3"></path>
                    <path d="M0.433333333,182.262195 L25.5666667,90.4817073" id="Line-Copy-8"></path>
                    <path d="M0.433333333,121.652439 L25.5666667,29.8719512" id="Line-Copy-9"></path>
                    <path d="M0.433333333,182.262195 L25.5666667,29.8719512" id="Line-Copy-10"></path>
                    <path d="M0.433333333,61.0426829 L25.5666667,29.8719512" id="Line-Copy-5"></path>
                    <path d="M0.433333333,182.262195 L25.5666667,151.091463" id="Line-Copy-4"></path>
                </g>
                <g id="L2-L3" transform="translate(130.000000, 174.902439)" stroke="#979797" stroke-linecap="square" sketch:type="MSShapeGroup">
                    <path d="M0.433333333,1.29878049 L25.5666667,1.29878049" id="Line"></path>
                    <path d="M0.433333333,1.29878049 L25.5666667,61.9085366" id="Line-Copy-16"></path>
                    <path d="M0.433333333,1.29878049 L25.5666667,122.518293" id="Line-Copy-19"></path>
                    <path d="M0.433333333,61.9085366 L25.5666667,122.518293" id="Line-Copy-17"></path>
                    <path d="M0.433333333,61.9085366 L25.5666667,61.9085366" id="Line-Copy-12"></path>
                    <path d="M0.433333333,122.518293 L25.5666667,122.518293" id="Line-Copy-13"></path>
                    <path d="M0.433333333,122.518293 L25.5666667,61.9085366" id="Line-Copy-14"></path>
                    <path d="M0.433333333,122.518293 L25.5666667,1.29878049" id="Line-Copy-18"></path>
                    <path d="M0.433333333,61.9085366 L25.5666667,1.29878049" id="Line-Copy-15"></path>
                </g>
                <g id="LaTeX" transform="translate(5.200000, 13.853659)" fill="#000000" sketch:type="MSShapeGroup">
                    <g id="Imported-Layers" transform="translate(11.440000, 126.587805)">
                        <path d="M1.62820667,3.70895341 C1.72766187,3.11277854 2.11127107,2.42435561 2.779036,1.64365 C3.4467992,0.862961707 4.2708536,0.465517561 5.2511888,0.451317561 C5.7484648,0.451317561 6.20311467,0.57906561 6.61513667,0.834579024 C7.02716733,1.09007512 7.33263267,1.40944524 7.53153267,1.79269805 C8.12826733,0.89844439 8.84576333,0.451317561 9.684012,0.451317561 C10.2096973,0.451317561 10.6643593,0.60746561 11.0479633,0.91974439 C11.431576,1.23201451 11.6304847,1.65075 11.6446893,2.1759422 C11.6446893,2.58758634 11.5452393,2.92115646 11.3463307,3.17666122 C11.1474133,3.43215732 10.9556113,3.58828805 10.770916,3.64507073 C10.586212,3.70185341 10.4228193,3.73024476 10.2807467,3.73024476 C10.0107887,3.73024476 9.79056867,3.65217073 9.62008667,3.49604 C9.44958733,3.33989195 9.36433333,3.13406988 9.36433333,2.87857378 C9.36433333,2.22563354 9.71953667,1.77850671 10.4299173,1.53719329 C10.27364,1.35267122 9.98947733,1.26040585 9.57745533,1.26040585 C9.39276,1.26040585 9.25777667,1.27460585 9.17254,1.30298854 C8.63264133,1.53010195 8.234824,1.99852012 7.979088,2.70823439 C7.12661733,5.8452222 6.70039067,7.6763018 6.70039067,8.20149746 C6.70039067,8.59893468 6.81404533,8.88282732 7.041372,9.05315459 C7.26869867,9.22349224 7.517328,9.30866107 7.78727733,9.30866107 C8.31297133,9.30866107 8.83154133,9.07445459 9.34303067,8.60603122 C9.85451133,8.13761824 10.2025993,7.56274683 10.3873033,6.88140659 C10.4299173,6.7394672 10.4725487,6.66139317 10.5151713,6.64720183 C10.5578027,6.63301049 10.6714573,6.61881049 10.8561527,6.60461915 L10.9414067,6.60461915 C11.15452,6.60461915 11.2610767,6.66139317 11.2610767,6.77494988 C11.2610767,6.78914122 11.246872,6.86721524 11.2184627,7.00915463 C10.991136,7.81824293 10.550696,8.53506585 9.89712533,9.15961302 C9.243572,9.78417059 8.48345333,10.0964494 7.61678667,10.0964494 C6.62224333,10.0964494 5.8692296,9.649326 5.3577472,8.75507927 C4.7752328,9.63513293 4.1074592,10.0751598 3.3544472,10.0751598 L3.2265792,10.0751598 C2.53039973,10.0751598 2.03312807,9.89062902 1.73476507,9.52157795 C1.4364012,9.15251649 1.28011607,8.7621758 1.2659088,8.35053512 C1.2659088,7.89631522 1.40088173,7.52725376 1.67082933,7.24337151 C1.94077867,6.95947888 2.26045213,6.81754122 2.6298584,6.81754122 C3.2407856,6.81754122 3.5462544,7.11561307 3.5462544,7.71178449 C3.5462544,7.99567712 3.4610056,8.24407668 3.2905184,8.45699356 C3.1200208,8.66991044 2.9566368,8.81185156 2.8003456,8.88282732 C2.6440648,8.95380307 2.55171193,8.98928576 2.52329653,8.98928576 L2.45936167,9.01057537 C2.45936167,9.02476844 2.5019852,9.05315459 2.58723227,9.0957442 C2.6724776,9.13832341 2.7861392,9.18800956 2.9282136,9.24478185 C3.0702984,9.30156454 3.2052696,9.32285415 3.3331376,9.30866107 C3.84462,9.30866107 4.28506,8.98928576 4.654468,8.35053512 C4.782336,8.12342517 4.94572,7.64080873 5.1446304,6.90269793 C5.3435408,6.16458366 5.5424512,5.39808671 5.7413616,4.60319841 C5.940272,3.80831878 6.0539336,3.33989195 6.08234467,3.19795256 C6.15338533,2.81469976 6.18890133,2.53791232 6.18890133,2.36757293 C6.18890133,1.97012878 6.08234467,1.68624134 5.8692296,1.51590195 C5.6561128,1.34557988 5.4145832,1.26040585 5.1446304,1.26040585 C4.5763224,1.26040585 4.0435304,1.48751927 3.5462544,1.94173744 C3.0489888,2.39595561 2.7008904,2.97793915 2.5019852,3.68765341 C2.47356893,3.81541012 2.43805033,3.88637549 2.3954268,3.90056683 C2.35280327,3.91476683 2.2391408,3.92896683 2.05444027,3.94315817 L1.7560764,3.94315817 C1.67082933,3.8579928 1.62820667,3.77991878 1.62820667,3.70895341 L1.62820667,3.70895341 Z" id="Fill-1"></path>
                        <path d="M15.9201033,4.35391915 L15.7241933,4.42919646 C15.5835507,4.47938134 15.3826227,4.52956622 15.1214093,4.5797511 C14.8602047,4.62993598 14.5688573,4.66506366 14.247376,4.68513415 L13.9610553,4.68513415 L13.9610553,3.99258976 L14.247376,3.99258976 C14.7195533,3.97251061 15.1565787,3.89723329 15.5584347,3.7667578 C15.9602907,3.63627366 16.2415847,3.51583341 16.4023253,3.40541976 C16.5630747,3.29501476 16.7037173,3.18460976 16.8242793,3.07420476 C16.8443687,3.04409037 16.9046453,3.02903317 17.0051093,3.02903317 C17.0955287,3.02903317 17.1809213,3.05914756 17.261296,3.11936768 L17.261296,7.62096337 L17.2763673,12.1376128 C17.3466887,12.2078716 17.4069653,12.253038 17.4571973,12.273112 C17.5074293,12.2931859 17.6279913,12.3132599 17.8188747,12.3333338 C18.0097493,12.3534078 18.3211947,12.3634447 18.7531933,12.3634447 L19.1450047,12.3634447 L19.1450047,13.055996 L18.9792373,13.055996 C18.7682647,13.0258851 17.9695707,13.0108297 16.583164,13.0108297 C15.2168553,13.0108297 14.4282147,13.0258851 14.2172333,13.055996 L14.0364033,13.055996 L14.0364033,12.3634447 L14.4282147,12.3634447 L15.000856,12.3634447 C15.1615967,12.3634447 15.2871767,12.3584262 15.377596,12.3483893 C15.4680153,12.3383523 15.5483813,12.3232968 15.6187113,12.3032229 C15.6890327,12.2831489 15.72922,12.273112 15.7392647,12.273112 C15.7493093,12.273112 15.779452,12.2480195 15.829684,12.1978346 C15.879916,12.1476498 15.9100587,12.1275758 15.9201033,12.1376128 L15.9201033,4.35391915 L15.9201033,4.35391915 Z" id="Fill-3"></path>
                    </g>
                    <g id="Imported-Layers" transform="translate(11.266667, 187.024390)">
                        <path d="M1.62820667,3.70895341 C1.72766187,3.11277854 2.11127107,2.42435561 2.779036,1.64365 C3.4467992,0.862961707 4.2708536,0.465517561 5.2511888,0.451317561 C5.7484648,0.451317561 6.20311467,0.57906561 6.61513667,0.834579024 C7.02716733,1.09007512 7.33263267,1.40944524 7.53153267,1.79269805 C8.12826733,0.89844439 8.84576333,0.451317561 9.684012,0.451317561 C10.2096973,0.451317561 10.6643593,0.60746561 11.0479633,0.91974439 C11.431576,1.23201451 11.6304847,1.65075 11.6446893,2.1759422 C11.6446893,2.58758634 11.5452393,2.92115646 11.3463307,3.17666122 C11.1474133,3.43215732 10.9556113,3.58828805 10.770916,3.64507073 C10.586212,3.70185341 10.4228193,3.73024476 10.2807467,3.73024476 C10.0107887,3.73024476 9.79056867,3.65217073 9.62008667,3.49604 C9.44958733,3.33989195 9.36433333,3.13406988 9.36433333,2.87857378 C9.36433333,2.22563354 9.71953667,1.77850671 10.4299173,1.53719329 C10.27364,1.35267122 9.98947733,1.26040585 9.57745533,1.26040585 C9.39276,1.26040585 9.25777667,1.27460585 9.17254,1.30298854 C8.63264133,1.53010195 8.234824,1.99852012 7.979088,2.70823439 C7.12661733,5.8452222 6.70039067,7.6763018 6.70039067,8.20149746 C6.70039067,8.59893468 6.81404533,8.88282732 7.041372,9.05315459 C7.26869867,9.22349224 7.517328,9.30866107 7.78727733,9.30866107 C8.31297133,9.30866107 8.83154133,9.07445459 9.34303067,8.60603122 C9.85451133,8.13761824 10.2025993,7.56274683 10.3873033,6.88140659 C10.4299173,6.7394672 10.4725487,6.66139317 10.5151713,6.64720183 C10.5578027,6.63301049 10.6714573,6.61881049 10.8561527,6.60461915 L10.9414067,6.60461915 C11.15452,6.60461915 11.2610767,6.66139317 11.2610767,6.77494988 C11.2610767,6.78914122 11.246872,6.86721524 11.2184627,7.00915463 C10.991136,7.81824293 10.550696,8.53506585 9.89712533,9.15961302 C9.243572,9.78417059 8.48345333,10.0964494 7.61678667,10.0964494 C6.62224333,10.0964494 5.8692296,9.649326 5.3577472,8.75507927 C4.7752328,9.63513293 4.1074592,10.0751598 3.3544472,10.0751598 L3.2265792,10.0751598 C2.53039973,10.0751598 2.03312807,9.89062902 1.73476507,9.52157795 C1.4364012,9.15251649 1.28011607,8.7621758 1.2659088,8.35053512 C1.2659088,7.89631522 1.40088173,7.52725376 1.67082933,7.24337151 C1.94077867,6.95947888 2.26045213,6.81754122 2.6298584,6.81754122 C3.2407856,6.81754122 3.5462544,7.11561307 3.5462544,7.71178449 C3.5462544,7.99567712 3.4610056,8.24407668 3.2905184,8.45699356 C3.1200208,8.66991044 2.9566368,8.81185156 2.8003456,8.88282732 C2.6440648,8.95380307 2.55171193,8.98928576 2.52329653,8.98928576 L2.45936167,9.01057537 C2.45936167,9.02476844 2.5019852,9.05315459 2.58723227,9.0957442 C2.6724776,9.13832341 2.7861392,9.18800956 2.9282136,9.24478185 C3.0702984,9.30156454 3.2052696,9.32285415 3.3331376,9.30866107 C3.84462,9.30866107 4.28506,8.98928576 4.654468,8.35053512 C4.782336,8.12342517 4.94572,7.64080873 5.1446304,6.90269793 C5.3435408,6.16458366 5.5424512,5.39808671 5.7413616,4.60319841 C5.940272,3.80831878 6.0539336,3.33989195 6.08234467,3.19795256 C6.15338533,2.81469976 6.18890133,2.53791232 6.18890133,2.36757293 C6.18890133,1.97012878 6.08234467,1.68624134 5.8692296,1.51590195 C5.6561128,1.34557988 5.4145832,1.26040585 5.1446304,1.26040585 C4.5763224,1.26040585 4.0435304,1.48751927 3.5462544,1.94173744 C3.0489888,2.39595561 2.7008904,2.97793915 2.5019852,3.68765341 C2.47356893,3.81541012 2.43805033,3.88637549 2.3954268,3.90056683 C2.35280327,3.91476683 2.2391408,3.92896683 2.05444027,3.94315817 L1.7560764,3.94315817 C1.67082933,3.8579928 1.62820667,3.77991878 1.62820667,3.70895341 L1.62820667,3.70895341 Z" id="Fill-1"></path>
                        <path d="M14.3528667,6.59719012 C14.0816087,6.59719012 13.8656093,6.50685561 13.7048687,6.32619524 C13.544128,6.14552622 13.4637533,5.92471622 13.4637533,5.66375659 C13.4637533,4.95111573 13.7299847,4.33384 14.2624473,3.81192073 C14.7949013,3.29000146 15.4579707,3.02903317 16.2516293,3.02903317 C17.1658587,3.02903317 17.9293833,3.31007195 18.5422207,3.87214085 C19.1550493,4.43420976 19.4664947,5.1619078 19.4765393,6.05519171 C19.4765393,6.48678512 19.3760753,6.89829939 19.1751473,7.28974317 C18.9742193,7.68118522 18.733104,8.02244239 18.4518013,8.31351468 C18.1704987,8.60458698 17.7686427,8.97595507 17.2462247,9.42761898 C16.884556,9.73876522 16.382236,10.2004661 15.7392647,10.8127216 L14.85016,11.655838 L15.9954513,11.6708934 C17.5727327,11.6708934 18.4116227,11.645801 18.5120867,11.5956161 C18.582408,11.5755421 18.7029613,11.1288863 18.8737553,10.2556695 L18.8737553,10.2105031 L19.4765393,10.2105031 L19.4765393,10.2556695 C19.4664947,10.2857804 19.4011913,10.7424628 19.2806293,11.625727 C19.160076,12.5089809 19.084728,12.9706818 19.0545853,13.0108297 L19.0545853,13.055996 L13.4637533,13.055996 L13.4637533,12.7699422 L13.4637533,12.5892767 C13.4637533,12.5190179 13.493896,12.4437405 13.5541727,12.3634447 C13.6144493,12.2831489 13.7651453,12.1075019 14.0062607,11.8365035 C14.297608,11.5153203 14.548768,11.234285 14.7597407,10.9933872 C14.85016,10.8930174 15.0209453,10.7073334 15.2721053,10.436335 C15.5232653,10.1653367 15.6940593,9.97965263 15.7844787,9.87928288 C15.8748893,9.77891312 16.0205673,9.61330302 16.2214953,9.38245259 C16.4224233,9.15160215 16.5630747,8.98097356 16.6434407,8.87056683 C16.7238153,8.7601601 16.8393507,8.60960546 16.9900467,8.41890293 C17.1407427,8.22820039 17.2462247,8.06760878 17.3065013,7.9371281 C17.3667867,7.80664741 17.4421347,7.66111127 17.5325453,7.50051966 C17.6229647,7.33992805 17.688268,7.17933644 17.7284553,7.01874483 C17.7686427,6.85814976 17.8038033,6.70759512 17.8339373,6.56708439 C17.86408,6.426565 17.8791513,6.26095317 17.8791513,6.0702489 C17.8791513,5.43792463 17.7083573,4.89089561 17.3667867,4.42919646 C17.0252073,3.96749732 16.5379587,3.73664341 15.905032,3.73664341 C15.5734973,3.73664341 15.2821587,3.82195598 15.0309987,3.99258976 C14.7798387,4.16321488 14.6040267,4.32882671 14.5035627,4.48941659 C14.4030987,4.65000646 14.3528667,4.74537159 14.3528667,4.77547732 C14.3528667,4.7855039 14.3779827,4.79053451 14.4282147,4.79053451 C14.6090447,4.79053451 14.7949013,4.86078122 14.9857847,5.00130927 C15.176668,5.14182866 15.2721053,5.37268256 15.2721053,5.69386232 C15.2721053,5.94478671 15.1917393,6.15556146 15.0309987,6.32619524 C14.8702493,6.49682037 14.6442053,6.58715488 14.3528667,6.59719012 L14.3528667,6.59719012 Z" id="Fill-3"></path>
                    </g>
                    <g id="Imported-Layers" transform="translate(11.266667, 247.634146)">
                        <path d="M1.62820667,4.06285378 C1.72766187,3.46668756 2.11127107,2.77825598 2.779036,1.99755902 C3.4467992,1.21686207 4.2708536,0.819417927 5.2511888,0.805226585 C5.7484648,0.805226585 6.20311467,0.932974634 6.61513667,1.18847939 C7.02716733,1.44397549 7.33263267,1.76334561 7.53153267,2.14660707 C8.12826733,1.25234476 8.84576333,0.805226585 9.684012,0.805226585 C10.2096973,0.805226585 10.6643593,0.961365976 11.0479633,1.27364476 C11.431576,1.58591488 11.6304847,2.00465037 11.6446893,2.52985122 C11.6446893,2.94148671 11.5452393,3.27505683 11.3463307,3.53056159 C11.1474133,3.78605768 10.9556113,3.94219707 10.770916,3.99897976 C10.586212,4.05574512 10.4228193,4.08414512 10.2807467,4.08414512 C10.0107887,4.08414512 9.79056867,4.0060711 9.62008667,3.84994037 C9.44958733,3.69379232 9.36433333,3.48797024 9.36433333,3.23247415 C9.36433333,2.5795339 9.71953667,2.13239841 10.4299173,1.89109366 C10.27364,1.70658024 9.98947733,1.61431488 9.57745533,1.61431488 C9.39276,1.61431488 9.25777667,1.62850622 9.17254,1.6568889 C8.63264133,1.88400232 8.234824,2.35242049 7.979088,3.06214341 C7.12661733,6.1991139 6.70039067,8.0302039 6.70039067,8.55538917 C6.70039067,8.95283678 6.81404533,9.23672941 7.041372,9.40705668 C7.26869867,9.57739434 7.517328,9.66256317 7.78727733,9.66256317 C8.31297133,9.66256317 8.83154133,9.42835668 9.34303067,8.95993332 C9.85451133,8.49152034 10.2025993,7.91663854 10.3873033,7.23530868 C10.4299173,7.09336756 10.4725487,7.01529527 10.5151713,7.0011022 C10.5578027,6.98690912 10.6714573,6.97271605 10.8561527,6.95852298 L10.9414067,6.95852298 C11.15452,6.95852298 11.2610767,7.01529527 11.2610767,7.12885024 C11.2610767,7.14304332 11.246872,7.22111561 11.2184627,7.36305673 C10.991136,8.17214502 10.550696,8.88896795 9.89712533,9.51351512 C9.243572,10.1380727 8.48345333,10.4503515 7.61678667,10.4503515 C6.62224333,10.4503515 5.8692296,10.0032281 5.3577472,9.10898137 C4.7752328,9.98903502 4.1074592,10.4290619 3.3544472,10.4290619 L3.2265792,10.4290619 C2.53039973,10.4290619 2.03312807,10.2445311 1.73476507,9.87548005 C1.4364012,9.50641859 1.28011607,9.1160779 1.2659088,8.70443722 C1.2659088,8.25021732 1.40088173,7.88115585 1.67082933,7.59726322 C1.94077867,7.31338098 2.26045213,7.17143985 2.6298584,7.17143985 C3.2407856,7.17143985 3.5462544,7.46951517 3.5462544,8.06568659 C3.5462544,8.34957922 3.4610056,8.59797878 3.2905184,8.81089566 C3.1200208,9.02381254 2.9566368,9.16575366 2.8003456,9.23672941 C2.6440648,9.30769478 2.55171193,9.34318785 2.52329653,9.34318785 L2.45936167,9.36447746 C2.45936167,9.37867054 2.5019852,9.40705668 2.58723227,9.44964629 C2.6724776,9.49222551 2.7861392,9.54191166 2.9282136,9.59868395 C3.0702984,9.65546663 3.2052696,9.67675624 3.3331376,9.66256317 C3.84462,9.66256317 4.28506,9.34318785 4.654468,8.70443722 C4.782336,8.47732727 4.94572,7.99471083 5.1446304,7.25659829 C5.3435408,6.51848402 5.5424512,5.75198707 5.7413616,4.95709878 C5.940272,4.16221049 6.0539336,3.69379232 6.08234467,3.55185293 C6.15338533,3.16860012 6.18890133,2.89181268 6.18890133,2.72147329 C6.18890133,2.32402915 6.08234467,2.04014171 5.8692296,1.86981098 C5.6561128,1.69947159 5.4145832,1.61431488 5.1446304,1.61431488 C4.5763224,1.61431488 4.0435304,1.84141963 3.5462544,2.2956378 C3.0489888,2.74986463 2.7008904,3.33183951 2.5019852,4.04155378 C2.47356893,4.16931049 2.43805033,4.24027585 2.3954268,4.25447585 C2.35280327,4.2686672 2.2391408,4.2828672 2.05444027,4.29705854 L1.7560764,4.29705854 C1.67082933,4.21189317 1.62820667,4.13381915 1.62820667,4.06285378 L1.62820667,4.06285378 Z" id="Fill-1"></path>
                        <path d="M14.624116,6.43920646 C14.3528667,6.43920646 14.1418853,6.3538939 13.9911893,6.18326878 C13.8404933,6.012635 13.7601273,5.791825 13.7500827,5.5208128 C13.7500827,4.96877915 13.9911893,4.47696561 14.47342,4.04538085 C14.9556507,3.61378744 15.5383367,3.39799073 16.2214953,3.39799073 C16.5731193,3.39799073 16.7941367,3.40301268 16.884556,3.41304793 C17.6279913,3.53349683 18.1956147,3.79946976 18.5874347,4.21099268 C18.9792373,4.62250695 19.1801653,5.0691489 19.1902187,5.5509272 C19.1902187,6.07285512 19.0194247,6.57972585 18.6778453,7.07153766 C18.3362573,7.56334946 17.86408,7.9196621 17.261296,8.14047556 L17.2160907,8.17058649 C17.2160907,8.18062346 17.261296,8.19567893 17.3517153,8.21575288 C17.4421347,8.23582683 17.587804,8.28099322 17.788732,8.35125205 C17.98966,8.42151088 18.1805433,8.52689912 18.3613733,8.66741678 C19.185192,9.19937649 19.5970927,9.90196478 19.5970927,10.7751817 C19.5970927,11.5681027 19.285656,12.2606644 18.6627827,12.852846 C18.039892,13.4450276 17.2512513,13.7411183 16.2968433,13.7411183 C15.4931313,13.7411183 14.799928,13.5253234 14.2172333,13.0937334 C13.6345473,12.6621435 13.3432,12.1151283 13.3432,11.4526775 C13.3432,11.1716422 13.4336193,10.9458102 13.6144493,10.7751817 C13.795288,10.6045531 14.021332,10.5142203 14.2925813,10.5041833 C14.573884,10.5041833 14.8049547,10.5945161 14.9857847,10.7751817 C15.1666233,10.9558472 15.2570427,11.1816792 15.2570427,11.4526775 C15.2570427,11.5630842 15.2419713,11.663454 15.2118287,11.7537868 C15.1816947,11.8441196 15.1465253,11.9244154 15.1063467,11.9946742 C15.0661593,12.0649434 15.0109007,12.1251653 14.9405793,12.1753501 C14.8702493,12.225535 14.8099727,12.2656829 14.7597407,12.2957939 C14.7095087,12.3259048 14.6592767,12.3459787 14.6090447,12.3560157 C14.5588127,12.3660527 14.5186253,12.3811081 14.4884913,12.4011821 L14.4282147,12.4162376 C14.9405793,12.8679015 15.5634527,13.0937334 16.2968433,13.0937334 C16.8493953,13.0937334 17.2663227,12.8277536 17.5476167,12.2957939 C17.7184107,11.9645633 17.8038033,11.457696 17.8038033,10.7751817 L17.8038033,10.4740724 C17.8038033,9.52055971 17.4823133,8.88321176 16.8393507,8.56202854 C16.6886547,8.50180668 16.382236,8.46667727 15.9201033,8.45664029 L15.2871767,8.44158483 L15.2419713,8.4114739 C15.2218733,8.38136298 15.2118287,8.30106717 15.2118287,8.17058649 C15.2118287,7.98992093 15.252016,7.89958815 15.3323907,7.89958815 C15.6136847,7.89958815 15.905032,7.87449571 16.206424,7.82431083 C16.5480033,7.77412595 16.85944,7.56334946 17.1407427,7.19198137 C17.4220367,6.820615 17.562688,6.2585461 17.562688,5.50575561 L17.562688,5.38531537 C17.562688,4.81321122 17.386876,4.41674549 17.035252,4.19593549 C16.8142347,4.0554161 16.5781373,3.98516073 16.3269773,3.98516073 C16.005496,3.98516073 15.7091307,4.0403589 15.4378727,4.1507639 C15.1666233,4.26117756 14.97574,4.37659585 14.8652313,4.49704476 C14.7547227,4.617485 14.699464,4.67770512 14.699464,4.67770512 L14.7446693,4.67770512 C14.774812,4.68774902 14.8149993,4.69778427 14.8652313,4.70781951 C14.9154633,4.71785476 14.9656953,4.7429472 15.0159273,4.78309683 C15.0661593,4.82324646 15.126436,4.85837415 15.1967573,4.88848854 C15.2670873,4.91859427 15.3173193,4.9738011 15.3474533,5.05409171 C15.377596,5.13439098 15.4177833,5.20966829 15.4680153,5.27992366 C15.5182473,5.35018768 15.5333187,5.45055744 15.5132207,5.58105024 C15.5132207,5.80186024 15.4428993,5.9975778 15.302248,6.16821159 C15.1615967,6.33883671 14.9355527,6.42917122 14.624116,6.43920646 L14.624116,6.43920646 Z" id="Fill-3"></path>
                    </g>
                    <g id="Imported-Layers" transform="translate(11.266667, 308.243902)">
                        <path d="M1.62820667,3.70895341 C1.72766187,3.11277854 2.11127107,2.42435561 2.779036,1.64365 C3.4467992,0.862961707 4.2708536,0.465517561 5.2511888,0.451317561 C5.7484648,0.451317561 6.20311467,0.57906561 6.61513667,0.834579024 C7.02716733,1.09007512 7.33263267,1.40944524 7.53153267,1.79269805 C8.12826733,0.89844439 8.84576333,0.451317561 9.684012,0.451317561 C10.2096973,0.451317561 10.6643593,0.60746561 11.0479633,0.91974439 C11.431576,1.23201451 11.6304847,1.65075 11.6446893,2.1759422 C11.6446893,2.58758634 11.5452393,2.92115646 11.3463307,3.17666122 C11.1474133,3.43215732 10.9556113,3.58828805 10.770916,3.64507073 C10.586212,3.70185341 10.4228193,3.73024476 10.2807467,3.73024476 C10.0107887,3.73024476 9.79056867,3.65217073 9.62008667,3.49604 C9.44958733,3.33989195 9.36433333,3.13406988 9.36433333,2.87857378 C9.36433333,2.22563354 9.71953667,1.77850671 10.4299173,1.53719329 C10.27364,1.35267122 9.98947733,1.26040585 9.57745533,1.26040585 C9.39276,1.26040585 9.25777667,1.27460585 9.17254,1.30298854 C8.63264133,1.53010195 8.234824,1.99852012 7.979088,2.70823439 C7.12661733,5.8452222 6.70039067,7.6763018 6.70039067,8.20149746 C6.70039067,8.59893468 6.81404533,8.88282732 7.041372,9.05315459 C7.26869867,9.22349224 7.517328,9.30866107 7.78727733,9.30866107 C8.31297133,9.30866107 8.83154133,9.07445459 9.34303067,8.60603122 C9.85451133,8.13761824 10.2025993,7.56274683 10.3873033,6.88140659 C10.4299173,6.7394672 10.4725487,6.66139317 10.5151713,6.64720183 C10.5578027,6.63301049 10.6714573,6.61881049 10.8561527,6.60461915 L10.9414067,6.60461915 C11.15452,6.60461915 11.2610767,6.66139317 11.2610767,6.77494988 C11.2610767,6.78914122 11.246872,6.86721524 11.2184627,7.00915463 C10.991136,7.81824293 10.550696,8.53506585 9.89712533,9.15961302 C9.243572,9.78417059 8.48345333,10.0964494 7.61678667,10.0964494 C6.62224333,10.0964494 5.8692296,9.649326 5.3577472,8.75507927 C4.7752328,9.63513293 4.1074592,10.0751598 3.3544472,10.0751598 L3.2265792,10.0751598 C2.53039973,10.0751598 2.03312807,9.89062902 1.73476507,9.52157795 C1.4364012,9.15251649 1.28011607,8.7621758 1.2659088,8.35053512 C1.2659088,7.89631522 1.40088173,7.52725376 1.67082933,7.24337151 C1.94077867,6.95947888 2.26045213,6.81754122 2.6298584,6.81754122 C3.2407856,6.81754122 3.5462544,7.11561307 3.5462544,7.71178449 C3.5462544,7.99567712 3.4610056,8.24407668 3.2905184,8.45699356 C3.1200208,8.66991044 2.9566368,8.81185156 2.8003456,8.88282732 C2.6440648,8.95380307 2.55171193,8.98928576 2.52329653,8.98928576 L2.45936167,9.01057537 C2.45936167,9.02476844 2.5019852,9.05315459 2.58723227,9.0957442 C2.6724776,9.13832341 2.7861392,9.18800956 2.9282136,9.24478185 C3.0702984,9.30156454 3.2052696,9.32285415 3.3331376,9.30866107 C3.84462,9.30866107 4.28506,8.98928576 4.654468,8.35053512 C4.782336,8.12342517 4.94572,7.64080873 5.1446304,6.90269793 C5.3435408,6.16458366 5.5424512,5.39808671 5.7413616,4.60319841 C5.940272,3.80831878 6.0539336,3.33989195 6.08234467,3.19795256 C6.15338533,2.81469976 6.18890133,2.53791232 6.18890133,2.36757293 C6.18890133,1.97012878 6.08234467,1.68624134 5.8692296,1.51590195 C5.6561128,1.34557988 5.4145832,1.26040585 5.1446304,1.26040585 C4.5763224,1.26040585 4.0435304,1.48751927 3.5462544,1.94173744 C3.0489888,2.39595561 2.7008904,2.97793915 2.5019852,3.68765341 C2.47356893,3.81541012 2.43805033,3.88637549 2.3954268,3.90056683 C2.35280327,3.91476683 2.2391408,3.92896683 2.05444027,3.94315817 L1.7560764,3.94315817 C1.67082933,3.8579928 1.62820667,3.77991878 1.62820667,3.70895341 L1.62820667,3.70895341 Z" id="Fill-1"></path>
                        <path d="M19.6724407,13.055996 C19.4916107,13.0258851 18.8436127,13.0108297 17.7284553,13.0108297 C16.5630747,13.0108297 15.8899607,13.0258851 15.7091307,13.055996 L15.5734973,13.055996 L15.5734973,12.3634447 L16.0406567,12.3634447 L16.4475393,12.3634447 C16.5178607,12.3634447 16.6032533,12.3534078 16.7037173,12.3333338 C16.8041813,12.3132599 16.8745113,12.2881674 16.9146987,12.2580565 C16.9548773,12.2279456 16.9900467,12.1877977 17.0201807,12.1376128 C17.0302253,12.1175388 17.035252,11.8465405 17.035252,11.3246178 L17.035252,10.5718342 L13.1322273,10.5718342 L13.1322273,9.87928288 L15.4077387,6.40147256 C16.9448327,4.07288037 17.7234287,2.90357098 17.7435267,2.89353573 C17.763616,2.87346524 17.8691067,2.86343 18.0599813,2.86343 L18.3312393,2.86343 L18.4216587,2.95375585 L18.4216587,9.87928288 L19.8080653,9.87928288 L19.8080653,10.5718342 L18.4216587,10.5718342 L18.4216587,11.3396732 L18.4216587,12.0623355 C18.4216587,12.1325943 18.4518013,12.1928161 18.5120867,12.243001 C18.5924527,12.3132599 18.8787733,12.3534078 19.3710487,12.3634447 L19.8080653,12.3634447 L19.8080653,13.055996 L19.6724407,13.055996 L19.6724407,13.055996 Z M17.1256713,9.87928288 L17.1256713,4.85075463 L13.8254307,9.86422741 L15.4680153,9.87928288 L17.1256713,9.87928288 L17.1256713,9.87928288 Z" id="Fill-3"></path>
                    </g>
                    <g id="Imported-Layers" transform="translate(4.333333, 59.743902)">
                        <path d="M1.92040507,3.2637661 C1.93462187,3.2637661 2.44638507,3.22824878 3.45570507,3.15724012 C4.46501467,3.0862228 4.983888,3.0436228 5.01232333,3.0294228 C5.182918,3.0294228 5.26820667,3.09333146 5.26820667,3.22114878 C5.26820667,3.37738341 5.01232333,4.44965659 4.50056533,6.43799427 C3.96035467,8.53994927 3.69025627,9.6122311 3.69025627,9.6548311 C3.69025627,9.68323976 3.74002027,9.64773976 3.83952747,9.54832244 C4.70669333,8.7813839 5.63070733,8.39792329 6.611592,8.39792329 C7.379242,8.39792329 7.997626,8.58965793 8.466744,8.97311854 C8.93587067,9.3565878 9.177532,9.91758305 9.191754,10.6561129 C9.191754,11.3804255 8.92165733,12.502416 8.38145533,14.0220671 C7.84125333,15.5417268 7.571148,16.4506827 7.571148,16.7489346 C7.58537,16.9477693 7.620912,17.0826952 7.677774,17.1537039 C7.734636,17.2247212 7.84125333,17.2602212 7.997626,17.2602212 C8.39566,17.2602212 8.765276,17.0471779 9.106448,16.6211173 C9.44763733,16.195048 9.724832,15.6127441 9.93807533,14.8742143 C9.98071533,14.7179883 10.023364,14.625671 10.0660213,14.597271 C10.10867,14.568871 10.222394,14.5546623 10.4071933,14.5546623 C10.6915033,14.5546623 10.8336627,14.6114796 10.8336627,14.725097 C10.8336627,14.739297 10.805236,14.8458056 10.748374,15.0446489 C10.520926,15.8825874 10.1584253,16.5714 9.66086333,17.1111039 C9.177532,17.7217974 8.601788,18.0271459 7.93365733,18.0271459 L7.82704,18.0271459 C7.158892,18.0271459 6.67556933,17.8354147 6.37703733,17.4519524 C6.07850533,17.0684866 5.92923933,16.6637173 5.92923933,16.237648 C5.92923933,16.0104134 6.18512267,15.1724662 6.69688933,13.7238151 C7.208656,12.2751813 7.471646,11.1886909 7.48585933,10.4643783 C7.48585933,9.62643976 7.173114,9.20746183 6.54762333,9.20746183 L6.441006,9.20746183 C5.2611,9.20746183 4.23756667,9.90337439 3.37040427,11.2952168 L3.22114347,11.5721688 L2.49613867,14.448145 C2.04123227,16.2944567 1.77824747,17.3028299 1.70716347,17.4732524 C1.52236587,17.8567251 1.20961707,18.0484563 0.768927467,18.0484563 C0.569907,18.0484563 0.3993184,17.9845459 0.2571608,17.8567251 C0.1150032,17.7289043 0.0368177333,17.6010732 0.0226018,17.4732524 C0.0226018,17.2744212 0.541475133,15.1156576 1.57922267,10.9969649 L3.15717307,4.69109988 C3.15717307,4.50646524 3.10741947,4.39284793 3.00790187,4.35023927 C2.90839467,4.30763927 2.63119307,4.27212195 2.17628667,4.24372195 L1.72849387,4.24372195 C1.64319307,4.15850463 1.60054267,4.10169598 1.60054267,4.07329598 C1.60054267,4.04488732 1.61475947,3.90996134 1.64319307,3.66852671 C1.71427707,3.39868341 1.80667067,3.2637661 1.92040507,3.2637661 L1.92040507,3.2637661 Z" id="Fill-1"></path>
                        <path d="M14.4930933,1.77874049 L14.2970707,1.85405244 C14.15635,1.90426329 13.9553093,1.95447415 13.6939573,2.00469366 C13.4326053,2.05489585 13.1410933,2.09004951 12.81943,2.11013732 L12.532936,2.11013732 L12.532936,1.41719463 L12.81943,1.41719463 C13.2918673,1.39711549 13.7291353,1.32179488 14.131208,1.19124146 C14.533298,1.06068805 14.814748,0.940169878 14.975584,0.829704268 C15.13642,0.71923 15.2771493,0.60876439 15.397772,0.49829878 C15.4178787,0.468175732 15.47819,0.453109878 15.5787147,0.453109878 C15.6691773,0.453109878 15.754622,0.483241585 15.8350313,0.543496341 L15.8350313,5.0475978 L15.8501113,9.56677378 C15.920476,9.63707244 15.9807873,9.68226134 16.031054,9.7023578 C16.081312,9.72244561 16.2019347,9.74252476 16.392922,9.76261256 C16.583918,9.78269171 16.895528,9.79273561 17.3277693,9.79273561 L17.7197973,9.79273561 L17.7197973,10.4856783 L17.5539347,10.4856783 C17.3428493,10.4555466 16.5437133,10.4404807 15.1565267,10.4404807 C13.7894467,10.4404807 13.0003553,10.4555466 12.78927,10.4856783 L12.6083273,10.4856783 L12.6083273,9.79273561 L13.0003553,9.79273561 L13.573326,9.79273561 C13.734162,9.79273561 13.8598113,9.78771366 13.9502827,9.77767841 C14.040754,9.76762585 14.1211633,9.75256 14.191528,9.73248085 C14.261884,9.71239305 14.302106,9.7023578 14.3121507,9.7023578 C14.322204,9.7023578 14.3523553,9.67724805 14.402622,9.6270372 C14.45288,9.57682634 14.4830313,9.55673854 14.4930933,9.56677378 L14.4930933,1.77874049 L14.4930933,1.77874049 Z" id="Fill-3"></path>
                        <path d="M11.6734973,18.5547105 C11.603124,18.4844101 11.567946,18.4341941 11.567946,18.4040728 C11.567946,18.3639041 11.583026,18.2835563 11.613186,18.1630503 C11.6433373,18.0425339 11.668462,17.9722335 11.6885773,17.9521491 C11.7086753,17.9019435 11.7539067,17.8768302 11.8242713,17.8768302 C11.894636,17.8768302 12.15097,17.8718118 12.5932473,17.8617644 L13.392392,17.8617644 L13.6788773,16.656652 C13.7090373,16.5461863 13.7442153,16.4005757 13.78442,16.2198028 C13.8246333,16.0390385 13.8598113,15.9084851 13.8899627,15.8281426 C13.9201227,15.7478 13.9502827,15.6473783 13.980434,15.5268601 C14.010594,15.4063506 14.0507987,15.3209861 14.1010653,15.2707839 C14.1513233,15.2205644 14.2015813,15.1603096 14.2518393,15.090011 C14.302106,15.0197123 14.372462,14.9745148 14.4629333,14.954427 C14.553396,14.9343478 14.6438673,14.9243039 14.7343387,14.9243039 C14.9152813,14.9343478 15.0409307,14.9895806 15.1112867,15.090011 C15.1816513,15.1904327 15.216838,15.2858324 15.216838,15.3762189 C15.216838,15.4465176 15.1716067,15.6825233 15.0811353,16.0842188 C14.990664,16.4859316 14.8901393,16.8826224 14.77957,17.2742827 L14.6287873,17.8316431 C14.6287873,17.8517274 14.8800947,17.8617644 15.382692,17.8617644 L16.151668,17.8617644 C16.2220413,17.9320648 16.2572193,17.9872993 16.2572193,18.027468 C16.2572193,18.2484061 16.19189,18.4241571 16.061214,18.5547105 L14.4478533,18.5547105 L13.9050427,20.7389788 C13.5130147,22.3457988 13.316992,23.2094567 13.316992,23.3299731 C13.316992,23.7517651 13.4527033,23.9626559 13.7241,23.9626559 C14.0759233,23.9626559 14.417702,23.7919338 14.7494187,23.4504792 C15.0811353,23.109035 15.347514,22.687243 15.5485547,22.1851137 C15.5686613,22.1248607 15.593786,22.0897105 15.623946,22.0796631 C15.654106,22.0696261 15.7294973,22.0595788 15.8501113,22.0495418 L15.9104227,22.0495418 C16.061214,22.0495418 16.1366053,22.0897105 16.1366053,22.1700479 C16.1366053,22.2001796 16.1215253,22.2604326 16.0913653,22.3508173 C16.0411073,22.5115024 15.950636,22.7023089 15.81996,22.923247 C15.689284,23.1441852 15.5183947,23.3801892 15.3073093,23.6312486 C15.0962067,23.8823185 14.83989,24.0932093 14.538316,24.2639314 C14.2367593,24.4346639 13.930176,24.5200197 13.618566,24.5200197 C13.316992,24.5200197 13.0305153,24.4447008 12.75911,24.2940631 C12.4877133,24.1434253 12.2916907,23.8823185 12.171068,23.5107426 C12.15097,23.4303948 12.140908,23.2948229 12.140908,23.1040165 L12.140908,22.8328623 L12.6686387,20.7239129 C13.020462,19.3079097 13.201396,18.5948792 13.211458,18.5848422 C13.211458,18.5647475 12.955124,18.5547105 12.4424733,18.5547105 L11.6734973,18.5547105 L11.6734973,18.5547105 Z" id="Fill-4"></path>
                        <path d="M17.9855347,20.784166 L17.9855347,20.588341 C17.9855347,20.4577876 18.0558993,20.3573555 18.1966373,20.2870655 L26.956982,20.2870655 C27.1077733,20.3674029 27.183156,20.4678246 27.183156,20.588341 C27.183156,20.7088471 27.1077733,20.8092792 26.956982,20.8896165 L18.1966373,20.8896165 C18.0558993,20.8193161 17.9855347,20.7188944 17.9855347,20.588341 L17.9855347,20.784166 Z" id="Fill-5"></path>
                        <path d="M31.658588,15.6473783 L31.462574,15.7226902 C31.321836,15.7729098 31.120804,15.823112 30.8594433,15.8733315 C30.5980913,15.923551 30.306588,15.958696 29.984916,15.9787838 L29.6984393,15.9787838 L29.6984393,15.2858324 L29.984916,15.2858324 C30.4573707,15.2657533 30.89463,15.1904327 31.2967113,15.0598793 C31.6988013,14.9293259 31.9802513,14.8088163 32.1410873,14.6983507 C32.3019147,14.5878851 32.442644,14.4774109 32.5632667,14.3669452 C32.5833733,14.3368135 32.6436933,14.3217477 32.7442093,14.3217477 C32.834672,14.3217477 32.9201253,14.3518794 33.0005347,14.4121341 L33.0005347,18.9162391 L33.0156147,23.4354237 C33.0859793,23.5057137 33.1462907,23.5509113 33.1965573,23.5709956 C33.2468067,23.59108 33.367438,23.6111643 33.5584253,23.6312486 C33.749404,23.651333 34.0610227,23.6613803 34.493264,23.6613803 L34.885292,23.6613803 L34.885292,24.3543161 L34.719438,24.3543161 C34.5083353,24.3241948 33.7091993,24.3091289 32.3220213,24.3091289 C30.95495,24.3091289 30.1658587,24.3241948 29.9547733,24.3543161 L29.7738307,24.3543161 L29.7738307,23.6613803 L30.1658587,23.6613803 L30.7388293,23.6613803 C30.8996653,23.6613803 31.025306,23.6563619 31.1157773,23.6463145 C31.20624,23.6362671 31.2866667,23.6212117 31.3570227,23.6011273 C31.4273873,23.5810326 31.467592,23.5709956 31.477654,23.5709956 C31.4876987,23.5709956 31.5178587,23.5458928 31.5681253,23.4956767 C31.6183747,23.4454607 31.6485347,23.4253763 31.658588,23.4354237 L31.658588,15.6473783 L31.658588,15.6473783 Z" id="Fill-6"></path>
                    </g>
                    <g id="Imported-Layers">
                        <path d="M3.6537384,3.2637661 C3.6679552,3.2637661 4.1797184,3.22824878 5.1890384,3.15724012 C6.198348,3.0862228 6.71722133,3.0436228 6.74565667,3.0294228 C6.91625133,3.0294228 7.00154,3.09333146 7.00154,3.22114878 C7.00154,3.37738341 6.74565667,4.44965659 6.23389867,6.43799427 C5.693688,8.53994927 5.4235896,9.6122311 5.4235896,9.6548311 C5.4235896,9.68323976 5.4733536,9.64773976 5.5728608,9.54832244 C6.44002667,8.7813839 7.36404067,8.39792329 8.34492533,8.39792329 C9.11257533,8.39792329 9.73095933,8.58965793 10.2000773,8.97311854 C10.669204,9.3565878 10.9108653,9.91758305 10.9250873,10.6561129 C10.9250873,11.3804255 10.6549907,12.502416 10.1147887,14.0220671 C9.57458667,15.5417268 9.30448133,16.4506827 9.30448133,16.7489346 C9.31870333,16.9477693 9.35424533,17.0826952 9.41110733,17.1537039 C9.46796933,17.2247212 9.57458667,17.2602212 9.73095933,17.2602212 C10.1289933,17.2602212 10.4986093,17.0471779 10.8397813,16.6211173 C11.1809707,16.195048 11.4581653,15.6127441 11.6714087,14.8742143 C11.7140487,14.7179883 11.7566973,14.625671 11.7993547,14.597271 C11.8420033,14.568871 11.9557273,14.5546623 12.1405267,14.5546623 C12.4248367,14.5546623 12.566996,14.6114796 12.566996,14.725097 C12.566996,14.739297 12.5385693,14.8458056 12.4817073,15.0446489 C12.2542593,15.8825874 11.8917587,16.5714 11.3941967,17.1111039 C10.9108653,17.7217974 10.3351213,18.0271459 9.66699067,18.0271459 L9.56037333,18.0271459 C8.89222533,18.0271459 8.40890267,17.8354147 8.11037067,17.4519524 C7.81183867,17.0684866 7.66257267,16.6637173 7.66257267,16.237648 C7.66257267,16.0104134 7.918456,15.1724662 8.43022267,13.7238151 C8.94198933,12.2751813 9.20497933,11.1886909 9.21919267,10.4643783 C9.21919267,9.62643976 8.90644733,9.20746183 8.28095667,9.20746183 L8.17433933,9.20746183 C6.99443333,9.20746183 5.9709,9.90337439 5.1037376,11.2952168 L4.9544768,11.5721688 L4.229472,14.448145 C3.7745656,16.2944567 3.5115808,17.3028299 3.4404968,17.4732524 C3.2556992,17.8567251 2.9429504,18.0484563 2.5022608,18.0484563 C2.30324033,18.0484563 2.13265173,17.9845459 1.99049413,17.8567251 C1.84833653,17.7289043 1.77015107,17.6010732 1.75593513,17.4732524 C1.75593513,17.2744212 2.27480847,15.1156576 3.312556,10.9969649 L4.8905064,4.69109988 C4.8905064,4.50646524 4.8407528,4.39284793 4.7412352,4.35023927 C4.641728,4.30763927 4.3645264,4.27212195 3.90962,4.24372195 L3.4618272,4.24372195 C3.3765264,4.15850463 3.333876,4.10169598 3.333876,4.07329598 C3.333876,4.04488732 3.3480928,3.90996134 3.3765264,3.66852671 C3.4476104,3.39868341 3.540004,3.2637661 3.6537384,3.2637661 L3.6537384,3.2637661 Z" id="Fill-1"></path>
                        <path d="M14.6582973,4.02325829 C14.3869007,4.02325829 14.17078,3.93287183 14.009944,3.75210756 C13.8491167,3.57133463 13.7686987,3.35039476 13.7686987,3.08928793 C13.7686987,2.3762661 14.0350773,1.75864402 14.5678347,1.23643037 C15.100592,0.714216707 15.7640253,0.453109878 16.5581433,0.453109878 C17.4728753,0.453109878 18.2368247,0.734295854 18.8500087,1.29669378 C19.463184,1.85907439 19.7747853,2.58716207 19.7848473,3.48094817 C19.7848473,3.91279268 19.6843313,4.32453207 19.4832907,4.71619232 C19.2822413,5.10785256 19.040996,5.44931061 18.7595373,5.74054915 C18.4780787,6.03177902 18.0759973,6.40335146 17.5532933,6.85527512 C17.1914167,7.16660146 16.6888193,7.62856037 16.045484,8.24116049 L15.1558767,9.08472707 L16.3018093,9.09979293 C17.8799833,9.09979293 18.719324,9.07469183 18.8198487,9.02448098 C18.8902133,9.00439317 19.010836,8.55750012 19.1817167,7.68379317 L19.1817167,7.63859561 L19.7848473,7.63859561 L19.7848473,7.68379317 C19.7747853,7.71391622 19.709456,8.17085317 19.5888247,9.05461268 C19.4682107,9.93835488 19.3928193,10.4003138 19.3626593,10.4404807 L19.3626593,10.4856783 L13.7686987,10.4856783 L13.7686987,10.1994617 L13.7686987,10.0186974 C13.7686987,9.94839878 13.7988587,9.87307817 13.8591613,9.79273561 C13.9194727,9.71239305 14.070264,9.53665073 14.3115093,9.2655 C14.6030127,8.94413841 14.85432,8.66293512 15.0654053,8.4219161 C15.1558767,8.32149439 15.3267573,8.13570817 15.5780647,7.86454878 C15.829372,7.59340671 16.0002527,7.40762049 16.090724,7.30719012 C16.1811867,7.20676841 16.3269427,7.04106134 16.5279833,6.81007756 C16.729024,6.57910244 16.8697533,6.40838207 16.9501713,6.2979078 C17.0305807,6.1874422 17.1461853,6.03680098 17.296968,5.84598415 C17.4477507,5.65518463 17.5532933,5.49449951 17.6136047,5.3639461 C17.673916,5.23339268 17.7493073,5.08777341 17.8397787,4.92709695 C17.9302413,4.76641183 17.9955793,4.60572671 18.0357927,4.44505024 C18.0759973,4.28436512 18.111184,4.1337239 18.1413353,3.99312659 C18.1714953,3.85253793 18.1865753,3.68683085 18.1865753,3.49601402 C18.1865753,2.86333476 18.0156947,2.31602 17.673916,1.85405244 C17.3321547,1.39209354 16.84462,1.16110976 16.2113467,1.16110976 C15.8796213,1.16110976 15.5881093,1.24647427 15.3368193,1.41719463 C15.085512,1.58792366 14.9096047,1.75362207 14.80908,1.9143072 C14.708564,2.07498366 14.6582973,2.17040073 14.6582973,2.20051512 C14.6582973,2.21056768 14.6834393,2.21558098 14.7336887,2.21558098 C14.9146313,2.21558098 15.100592,2.28588829 15.2915793,2.42648561 C15.4825753,2.56707427 15.5780647,2.79805805 15.5780647,3.11941963 C15.5780647,3.37049122 15.4976553,3.58137854 15.3368193,3.75210756 C15.1759833,3.92282793 14.9498093,4.01321439 14.6582973,4.02325829 L14.6582973,4.02325829 Z" id="Fill-3"></path>
                        <path d="M13.4068307,18.5547105 C13.3364573,18.4844101 13.3012793,18.4341941 13.3012793,18.4040728 C13.3012793,18.3639041 13.3163593,18.2835563 13.3465193,18.1630503 C13.3766707,18.0425339 13.4017953,17.9722335 13.4219107,17.9521491 C13.4420087,17.9019435 13.48724,17.8768302 13.5576047,17.8768302 C13.6279693,17.8768302 13.8843033,17.8718118 14.3265807,17.8617644 L15.1257253,17.8617644 L15.4122107,16.656652 C15.4423707,16.5461863 15.4775487,16.4005757 15.5177533,16.2198028 C15.5579667,16.0390385 15.5931447,15.9084851 15.623296,15.8281426 C15.653456,15.7478 15.683616,15.6473783 15.7137673,15.5268601 C15.7439273,15.4063506 15.784132,15.3209861 15.8343987,15.2707839 C15.8846567,15.2205644 15.9349147,15.1603096 15.9851727,15.090011 C16.0354393,15.0197123 16.1057953,14.9745148 16.1962667,14.954427 C16.2867293,14.9343478 16.3772007,14.9243039 16.467672,14.9243039 C16.6486147,14.9343478 16.774264,14.9895806 16.84462,15.090011 C16.9149847,15.1904327 16.9501713,15.2858324 16.9501713,15.3762189 C16.9501713,15.4465176 16.90494,15.6825233 16.8144687,16.0842188 C16.7239973,16.4859316 16.6234727,16.8826224 16.5129033,17.2742827 L16.3621207,17.8316431 C16.3621207,17.8517274 16.613428,17.8617644 17.1160253,17.8617644 L17.8850013,17.8617644 C17.9553747,17.9320648 17.9905527,17.9872993 17.9905527,18.027468 C17.9905527,18.2484061 17.9252233,18.4241571 17.7945473,18.5547105 L16.1811867,18.5547105 L15.638376,20.7389788 C15.246348,22.3457988 15.0503253,23.2094567 15.0503253,23.3299731 C15.0503253,23.7517651 15.1860367,23.9626559 15.4574333,23.9626559 C15.8092567,23.9626559 16.1510353,23.7919338 16.482752,23.4504792 C16.8144687,23.109035 17.0808473,22.687243 17.281888,22.1851137 C17.3019947,22.1248607 17.3271193,22.0897105 17.3572793,22.0796631 C17.3874393,22.0696261 17.4628307,22.0595788 17.5834447,22.0495418 L17.643756,22.0495418 C17.7945473,22.0495418 17.8699387,22.0897105 17.8699387,22.1700479 C17.8699387,22.2001796 17.8548587,22.2604326 17.8246987,22.3508173 C17.7744407,22.5115024 17.6839693,22.7023089 17.5532933,22.923247 C17.4226173,23.1441852 17.251728,23.3801892 17.0406427,23.6312486 C16.82954,23.8823185 16.5732233,24.0932093 16.2716493,24.2639314 C15.9700927,24.4346639 15.6635093,24.5200197 15.3518993,24.5200197 C15.0503253,24.5200197 14.7638487,24.4447008 14.4924433,24.2940631 C14.2210467,24.1434253 14.025024,23.8823185 13.9044013,23.5107426 C13.8843033,23.4303948 13.8742413,23.2948229 13.8742413,23.1040165 L13.8742413,22.8328623 L14.401972,20.7239129 C14.7537953,19.3079097 14.9347293,18.5948792 14.9447913,18.5848422 C14.9447913,18.5647475 14.6884573,18.5547105 14.1758067,18.5547105 L13.4068307,18.5547105 L13.4068307,18.5547105 Z" id="Fill-4"></path>
                        <path d="M19.718868,20.784166 L19.718868,20.588341 C19.718868,20.4577876 19.7892327,20.3573555 19.9299707,20.2870655 L28.6903153,20.2870655 C28.8411067,20.3674029 28.9164893,20.4678246 28.9164893,20.588341 C28.9164893,20.7088471 28.8411067,20.8092792 28.6903153,20.8896165 L19.9299707,20.8896165 C19.7892327,20.8193161 19.718868,20.7188944 19.718868,20.588341 L19.718868,20.784166 Z" id="Fill-5"></path>
                        <path d="M33.3919213,15.6473783 L33.1959073,15.7226902 C33.0551693,15.7729098 32.8541373,15.823112 32.5927767,15.8733315 C32.3314247,15.923551 32.0399213,15.958696 31.7182493,15.9787838 L31.4317727,15.9787838 L31.4317727,15.2858324 L31.7182493,15.2858324 C32.190704,15.2657533 32.6279633,15.1904327 33.0300447,15.0598793 C33.4321347,14.9293259 33.7135847,14.8088163 33.8744207,14.6983507 C34.035248,14.5878851 34.1759773,14.4774109 34.2966,14.3669452 C34.3167067,14.3368135 34.3770267,14.3217477 34.4775427,14.3217477 C34.5680053,14.3217477 34.6534587,14.3518794 34.733868,14.4121341 L34.733868,18.9162391 L34.748948,23.4354237 C34.8193127,23.5057137 34.879624,23.5509113 34.9298907,23.5709956 C34.98014,23.59108 35.1007713,23.6111643 35.2917587,23.6312486 C35.4827373,23.651333 35.794356,23.6613803 36.2265973,23.6613803 L36.6186253,23.6613803 L36.6186253,24.3543161 L36.4527713,24.3543161 C36.2416687,24.3241948 35.4425327,24.3091289 34.0553547,24.3091289 C32.6882833,24.3091289 31.899192,24.3241948 31.6881067,24.3543161 L31.507164,24.3543161 L31.507164,23.6613803 L31.899192,23.6613803 L32.4721627,23.6613803 C32.6329987,23.6613803 32.7586393,23.6563619 32.8491107,23.6463145 C32.9395733,23.6362671 33.02,23.6212117 33.090356,23.6011273 C33.1607207,23.5810326 33.2009253,23.5709956 33.2109873,23.5709956 C33.221032,23.5709956 33.251192,23.5458928 33.3014587,23.4956767 C33.351708,23.4454607 33.381868,23.4253763 33.3919213,23.4354237 L33.3919213,15.6473783 L33.3919213,15.6473783 Z" id="Fill-6"></path>
                    </g>
                </g>
            </g>
            <g id="Regular-Copy" transform="translate(0.000000, 42.000000)" sketch:type="MSShapeGroup">
                <g id="L1" stroke="#979797">
                    <circle id="Oval-1" cx="30" cy="30" r="30"></circle>
                    <circle id="Oval-1-Copy" cx="30" cy="100" r="30"></circle>
                    <circle id="Oval-1-Copy-2" cx="30" cy="170" r="30"></circle>
                    <circle id="Oval-1-Copy-3" cx="30" cy="240" r="30"></circle>
                </g>
                <g id="L2" transform="translate(90.000000, 35.000000)" stroke="#979797">
                    <circle id="Oval-1-Copy-4" cx="30" cy="30" r="30"></circle>
                    <circle id="Oval-1-Copy-5" cx="30" cy="100" r="30"></circle>
                    <circle id="Oval-1-Copy-6" cx="30" cy="170" r="30"></circle>
                </g>
                <g id="L3" transform="translate(180.000000, 35.000000)" stroke="#979797">
                    <circle id="Oval-1-Copy-9" cx="30" cy="30" r="30"></circle>
                    <circle id="Oval-1-Copy-7" cx="30" cy="100" r="30"></circle>
                    <circle id="Oval-1-Copy-8" cx="30" cy="170" r="30"></circle>
                </g>
                <g id="L1-L2" transform="translate(60.000000, 29.000000)" stroke="#979797" stroke-linecap="square">
                    <path d="M0.5,0.5 L29.5,34.5" id="Line"></path>
                    <path d="M0.5,0.5 L29.5,104.5" id="Line-Copy-6"></path>
                    <path d="M0.5,70.5 L29.5,174.5" id="Line-Copy-7"></path>
                    <path d="M0.5,70.5 L29.5,104.5" id="Line-Copy"></path>
                    <path d="M0.5,140.5 L29.5,174.5" id="Line-Copy-2"></path>
                    <path d="M0.5,0.5 L29.5,174.5" id="Line-Copy-11"></path>
                    <path d="M0.5,140.5 L29.5,104.5" id="Line-Copy-3"></path>
                    <path d="M0.5,210.5 L29.5,104.5" id="Line-Copy-8"></path>
                    <path d="M0.5,140.5 L29.5,34.5" id="Line-Copy-9"></path>
                    <path d="M0.5,210.5 L29.5,34.5" id="Line-Copy-10"></path>
                    <path d="M0.5,70.5 L29.5,34.5" id="Line-Copy-5"></path>
                    <path d="M0.5,210.5 L29.5,174.5" id="Line-Copy-4"></path>
                </g>
                <g id="L2-L3" transform="translate(150.000000, 62.000000)" stroke="#979797" stroke-linecap="square">
                    <path d="M0.5,1.5 L29.5,1.5" id="Line"></path>
                    <path d="M0.5,1.5 L29.5,71.5" id="Line-Copy-16"></path>
                    <path d="M0.5,1.5 L29.5,141.5" id="Line-Copy-19"></path>
                    <path d="M0.5,71.5 L29.5,141.5" id="Line-Copy-17"></path>
                    <path d="M0.5,71.5 L29.5,71.5" id="Line-Copy-12"></path>
                    <path d="M0.5,141.5 L29.5,141.5" id="Line-Copy-13"></path>
                    <path d="M0.5,141.5 L29.5,71.5" id="Line-Copy-14"></path>
                    <path d="M0.5,141.5 L29.5,1.5" id="Line-Copy-18"></path>
                    <path d="M0.5,71.5 L29.5,1.5" id="Line-Copy-15"></path>
                </g>
                <g id="LaTeX" transform="translate(19.000000, 22.000000)" fill="#000000">
                    <g id="Imported-Layers" transform="translate(0.200000, 0.200000)">
                        <path d="M1.8787,4.28358 C1.993456,3.59504 2.436082,2.79996 3.20658,1.8983 C3.977076,0.99666 4.927908,0.53764 6.059064,0.52124 C6.632844,0.52124 7.15744,0.66878 7.63285,0.96388 C8.10827,1.25896 8.46073,1.62781 8.69023,2.07044 C9.37877,1.03764 10.20665,0.52124 11.17386,0.52124 C11.78042,0.52124 12.30503,0.70158 12.74765,1.06224 C13.19028,1.42289 13.41979,1.9065 13.43618,2.51306 C13.43618,2.98848 13.32143,3.37373 13.09192,3.66882 C12.8624,3.9639 12.64109,4.14422 12.42798,4.2098 C12.21486,4.27538 12.02633,4.30817 11.8624,4.30817 C11.55091,4.30817 11.29681,4.218 11.1001,4.03768 C10.90337,3.85734 10.805,3.61963 10.805,3.32455 C10.805,2.57045 11.21485,2.05405 12.03452,1.77535 C11.8542,1.56224 11.52632,1.45568 11.05091,1.45568 C10.8378,1.45568 10.68205,1.47208 10.5837,1.50486 C9.96074,1.76716 9.50172,2.30815 9.20664,3.12782 C8.22302,6.75082 7.73122,8.865588 7.73122,9.472152 C7.73122,9.931164 7.86236,10.25904 8.12466,10.455756 C8.38696,10.652484 8.67384,10.750848 8.98532,10.750848 C9.59189,10.750848 10.19024,10.480356 10.78042,9.93936 C11.37059,9.398376 11.77223,8.73444 11.98535,7.94754 C12.03452,7.78361 12.08371,7.69344 12.13289,7.67705 C12.18208,7.66066 12.31322,7.64426 12.52633,7.62787 L12.6247,7.62787 C12.8706,7.62787 12.99355,7.69344 12.99355,7.82459 C12.99355,7.84098 12.97716,7.93115 12.94438,8.09508 C12.68208,9.02952 12.17388,9.8574 11.41976,10.578708 C10.66566,11.300028 9.7886,11.660688 8.7886,11.660688 C7.64105,11.660688 6.772188,11.144292 6.182016,10.1115 C5.509884,11.1279 4.739376,11.6361 3.870516,11.6361 L3.722976,11.6361 C2.919692,11.6361 2.345917,11.42298 2.001652,10.996752 C1.657386,10.570512 1.477057,10.119696 1.460664,9.64428 C1.460664,9.119688 1.616402,8.693448 1.92788,8.365584 C2.23936,8.037708 2.608214,7.87378 3.034452,7.87378 C3.739368,7.87378 4.091832,8.218032 4.091832,8.906568 C4.091832,9.234444 3.993468,9.521328 3.796752,9.767232 C3.600024,10.013136 3.411504,10.177068 3.231168,10.25904 C3.050844,10.341012 2.944283,10.381992 2.911496,10.381992 L2.837725,10.40658 C2.837725,10.422972 2.886906,10.455756 2.985268,10.504944 C3.083628,10.55412 3.214776,10.611504 3.378708,10.677072 C3.542652,10.742652 3.698388,10.76724 3.845928,10.750848 C4.4361,10.750848 4.9443,10.381992 5.37054,9.64428 C5.51808,9.381984 5.7066,8.824596 5.936112,7.97213 C6.165624,7.11966 6.395136,6.23441 6.624648,5.31637 C6.85416,4.39834 6.985308,3.85734 7.01809,3.69341 C7.10006,3.25078 7.14104,2.93111 7.14104,2.73438 C7.14104,2.27536 7.01809,1.94749 6.772188,1.75076 C6.526284,1.55405 6.247596,1.45568 5.936112,1.45568 C5.280372,1.45568 4.665612,1.71798 4.091832,2.24257 C3.518064,2.76716 3.116412,3.43931 2.886906,4.25898 C2.854118,4.40653 2.813135,4.48849 2.763954,4.50488 C2.714773,4.52128 2.583624,4.53768 2.370508,4.55407 L2.026242,4.55407 C1.92788,4.45571 1.8787,4.36554 1.8787,4.28358 L1.8787,4.28358 Z" id="Fill-1"></path>
                        <path d="M18.36935,5.02847 L18.1433,5.11541 C17.98102,5.17337 17.74918,5.23133 17.44778,5.28929 C17.14639,5.34725 16.81022,5.38782 16.43928,5.411 L16.10891,5.411 L16.10891,4.61116 L16.43928,4.61116 C16.9841,4.58797 17.48836,4.50103 17.95204,4.35034 C18.41572,4.19964 18.74029,4.06054 18.92576,3.93302 C19.11124,3.80551 19.27352,3.678 19.41263,3.55049 C19.43581,3.51571 19.50536,3.49832 19.62128,3.49832 C19.72561,3.49832 19.82414,3.5331 19.91688,3.60265 L19.91688,8.801676 L19.93427,14.018088 C20.01541,14.099232 20.08496,14.151396 20.14292,14.17458 C20.20088,14.197764 20.33999,14.220948 20.56024,14.244132 C20.78048,14.267316 21.13984,14.278908 21.6383,14.278908 L22.09039,14.278908 L22.09039,15.078756 L21.89912,15.078756 C21.65569,15.04398 20.73412,15.026592 19.13442,15.026592 C17.55791,15.026592 16.64794,15.04398 16.4045,15.078756 L16.19585,15.078756 L16.19585,14.278908 L16.64794,14.278908 L17.30868,14.278908 C17.49415,14.278908 17.63905,14.273112 17.74338,14.26152 C17.84771,14.249928 17.94044,14.23254 18.02159,14.209356 C18.10273,14.186172 18.1491,14.17458 18.16069,14.17458 C18.17228,14.17458 18.20706,14.1456 18.26502,14.08764 C18.32298,14.02968 18.35776,14.006496 18.36935,14.018088 L18.36935,5.02847 L18.36935,5.02847 Z" id="Fill-3"></path>
                    </g>
                    <g id="Imported-Layers" transform="translate(0.000000, 70.000000)">
                        <path d="M1.8787,4.28358 C1.993456,3.59504 2.436082,2.79996 3.20658,1.8983 C3.977076,0.99666 4.927908,0.53764 6.059064,0.52124 C6.632844,0.52124 7.15744,0.66878 7.63285,0.96388 C8.10827,1.25896 8.46073,1.62781 8.69023,2.07044 C9.37877,1.03764 10.20665,0.52124 11.17386,0.52124 C11.78042,0.52124 12.30503,0.70158 12.74765,1.06224 C13.19028,1.42289 13.41979,1.9065 13.43618,2.51306 C13.43618,2.98848 13.32143,3.37373 13.09192,3.66882 C12.8624,3.9639 12.64109,4.14422 12.42798,4.2098 C12.21486,4.27538 12.02633,4.30817 11.8624,4.30817 C11.55091,4.30817 11.29681,4.218 11.1001,4.03768 C10.90337,3.85734 10.805,3.61963 10.805,3.32455 C10.805,2.57045 11.21485,2.05405 12.03452,1.77535 C11.8542,1.56224 11.52632,1.45568 11.05091,1.45568 C10.8378,1.45568 10.68205,1.47208 10.5837,1.50486 C9.96074,1.76716 9.50172,2.30815 9.20664,3.12782 C8.22302,6.75082 7.73122,8.865588 7.73122,9.472152 C7.73122,9.931164 7.86236,10.25904 8.12466,10.455756 C8.38696,10.652484 8.67384,10.750848 8.98532,10.750848 C9.59189,10.750848 10.19024,10.480356 10.78042,9.93936 C11.37059,9.398376 11.77223,8.73444 11.98535,7.94754 C12.03452,7.78361 12.08371,7.69344 12.13289,7.67705 C12.18208,7.66066 12.31322,7.64426 12.52633,7.62787 L12.6247,7.62787 C12.8706,7.62787 12.99355,7.69344 12.99355,7.82459 C12.99355,7.84098 12.97716,7.93115 12.94438,8.09508 C12.68208,9.02952 12.17388,9.8574 11.41976,10.578708 C10.66566,11.300028 9.7886,11.660688 8.7886,11.660688 C7.64105,11.660688 6.772188,11.144292 6.182016,10.1115 C5.509884,11.1279 4.739376,11.6361 3.870516,11.6361 L3.722976,11.6361 C2.919692,11.6361 2.345917,11.42298 2.001652,10.996752 C1.657386,10.570512 1.477057,10.119696 1.460664,9.64428 C1.460664,9.119688 1.616402,8.693448 1.92788,8.365584 C2.23936,8.037708 2.608214,7.87378 3.034452,7.87378 C3.739368,7.87378 4.091832,8.218032 4.091832,8.906568 C4.091832,9.234444 3.993468,9.521328 3.796752,9.767232 C3.600024,10.013136 3.411504,10.177068 3.231168,10.25904 C3.050844,10.341012 2.944283,10.381992 2.911496,10.381992 L2.837725,10.40658 C2.837725,10.422972 2.886906,10.455756 2.985268,10.504944 C3.083628,10.55412 3.214776,10.611504 3.378708,10.677072 C3.542652,10.742652 3.698388,10.76724 3.845928,10.750848 C4.4361,10.750848 4.9443,10.381992 5.37054,9.64428 C5.51808,9.381984 5.7066,8.824596 5.936112,7.97213 C6.165624,7.11966 6.395136,6.23441 6.624648,5.31637 C6.85416,4.39834 6.985308,3.85734 7.01809,3.69341 C7.10006,3.25078 7.14104,2.93111 7.14104,2.73438 C7.14104,2.27536 7.01809,1.94749 6.772188,1.75076 C6.526284,1.55405 6.247596,1.45568 5.936112,1.45568 C5.280372,1.45568 4.665612,1.71798 4.091832,2.24257 C3.518064,2.76716 3.116412,3.43931 2.886906,4.25898 C2.854118,4.40653 2.813135,4.48849 2.763954,4.50488 C2.714773,4.52128 2.583624,4.53768 2.370508,4.55407 L2.026242,4.55407 C1.92788,4.45571 1.8787,4.36554 1.8787,4.28358 L1.8787,4.28358 Z" id="Fill-1"></path>
                        <path d="M16.561,7.61929 C16.24801,7.61929 15.99878,7.51496 15.81331,7.30631 C15.62784,7.09765 15.5351,6.84263 15.5351,6.54124 C15.5351,5.71819 15.84229,5.00528 16.45667,4.4025 C17.07104,3.79972 17.83612,3.49832 18.75188,3.49832 C19.80676,3.49832 20.68775,3.8229 21.39487,4.47205 C22.10198,5.1212 22.46134,5.96164 22.47293,6.99332 C22.47293,7.49178 22.35701,7.96705 22.12517,8.41914 C21.89333,8.871228 21.61512,9.265356 21.29054,9.601524 C20.96596,9.937692 20.50228,10.366596 19.89949,10.888236 C19.48218,11.247588 18.90258,11.78082 18.16069,12.487932 L17.1348,13.461672 L18.45629,13.47906 C20.27623,13.47906 21.24418,13.45008 21.3601,13.39212 C21.44124,13.368936 21.58034,12.85308 21.77741,11.844576 L21.77741,11.792412 L22.47293,11.792412 L22.47293,11.844576 C22.46134,11.879352 22.38599,12.406788 22.24688,13.426896 C22.10778,14.446992 22.02084,14.980224 21.98606,15.026592 L21.98606,15.078756 L15.5351,15.078756 L15.5351,14.748384 L15.5351,14.539728 C15.5351,14.458584 15.56988,14.371644 15.63943,14.278908 C15.70898,14.186172 15.88286,13.983312 16.16107,13.670328 C16.49724,13.299384 16.78704,12.974808 17.03047,12.696588 C17.1348,12.580668 17.33186,12.366216 17.62166,12.053232 C17.91146,11.740248 18.10853,11.525796 18.21286,11.409876 C18.31718,11.293956 18.48527,11.102688 18.71711,10.836072 C18.94895,10.569456 19.11124,10.372392 19.20397,10.24488 C19.29671,10.117368 19.43002,9.943488 19.6039,9.72324 C19.77778,9.502992 19.89949,9.31752 19.96904,9.166824 C20.0386,9.016128 20.12554,8.848044 20.22986,8.662572 C20.33419,8.4771 20.40954,8.291628 20.45591,8.106156 C20.50228,7.92068 20.54285,7.7468 20.57762,7.58452 C20.6124,7.42223 20.62979,7.23096 20.62979,7.01071 C20.62979,6.28042 20.43272,5.64864 20.0386,5.11541 C19.64447,4.58218 19.08226,4.31556 18.35196,4.31556 C17.96942,4.31556 17.63326,4.41409 17.34346,4.61116 C17.05366,4.80822 16.8508,4.99949 16.73488,5.18496 C16.61896,5.37043 16.561,5.48057 16.561,5.51534 C16.561,5.52692 16.58998,5.53273 16.64794,5.53273 C16.85659,5.53273 17.07104,5.61386 17.29129,5.77616 C17.51154,5.93845 17.62166,6.20507 17.62166,6.57601 C17.62166,6.86581 17.52893,7.10924 17.34346,7.30631 C17.15798,7.50337 16.89716,7.6077 16.561,7.61929 L16.561,7.61929 Z" id="Fill-3"></path>
                    </g>
                    <g id="Imported-Layers" transform="translate(0.000000, 140.000000)">
                        <path d="M1.8787,4.69231 C1.993456,4.00378 2.436082,3.20869 3.20658,2.30704 C3.977076,1.40539 4.927908,0.94637 6.059064,0.92998 C6.632844,0.92998 7.15744,1.07752 7.63285,1.37261 C8.10827,1.66769 8.46073,2.03654 8.69023,2.47918 C9.37877,1.44637 10.20665,0.92998 11.17386,0.92998 C11.78042,0.92998 12.30503,1.11031 12.74765,1.47097 C13.19028,1.83162 13.41979,2.31523 13.43618,2.9218 C13.43618,3.39721 13.32143,3.78246 13.09192,4.07755 C12.8624,4.37263 12.64109,4.55296 12.42798,4.61854 C12.21486,4.6841 12.02633,4.7169 11.8624,4.7169 C11.55091,4.7169 11.29681,4.62673 11.1001,4.44641 C10.90337,4.26607 10.805,4.02836 10.805,3.73328 C10.805,2.97918 11.21485,2.46277 12.03452,2.18408 C11.8542,1.97098 11.52632,1.86442 11.05091,1.86442 C10.8378,1.86442 10.68205,1.88081 10.5837,1.91359 C9.96074,2.17589 9.50172,2.71688 9.20664,3.53656 C8.22302,7.15954 7.73122,9.27432 7.73122,9.880872 C7.73122,10.339896 7.86236,10.667772 8.12466,10.864488 C8.38696,11.061216 8.67384,11.15958 8.98532,11.15958 C9.59189,11.15958 10.19024,10.889088 10.78042,10.348092 C11.37059,9.807108 11.77223,9.14316 11.98535,8.356272 C12.03452,8.19234 12.08371,8.102172 12.13289,8.08578 C12.18208,8.069388 12.31322,8.052996 12.52633,8.036604 L12.6247,8.036604 C12.8706,8.036604 12.99355,8.102172 12.99355,8.23332 C12.99355,8.249712 12.97716,8.33988 12.94438,8.503812 C12.68208,9.438252 12.17388,10.266132 11.41976,10.98744 C10.66566,11.70876 9.7886,12.06942 8.7886,12.06942 C7.64105,12.06942 6.772188,11.553024 6.182016,10.520232 C5.509884,11.536632 4.739376,12.044832 3.870516,12.044832 L3.722976,12.044832 C2.919692,12.044832 2.345917,11.831712 2.001652,11.405484 C1.657386,10.979244 1.477057,10.528428 1.460664,10.053012 C1.460664,9.52842 1.616402,9.10218 1.92788,8.774304 C2.23936,8.44644 2.608214,8.282508 3.034452,8.282508 C3.739368,8.282508 4.091832,8.626764 4.091832,9.3153 C4.091832,9.643176 3.993468,9.93006 3.796752,10.175964 C3.600024,10.421868 3.411504,10.5858 3.231168,10.667772 C3.050844,10.749732 2.944283,10.790724 2.911496,10.790724 L2.837725,10.815312 C2.837725,10.831704 2.886906,10.864488 2.985268,10.913676 C3.083628,10.962852 3.214776,11.020236 3.378708,11.085804 C3.542652,11.151384 3.698388,11.175972 3.845928,11.15958 C4.4361,11.15958 4.9443,10.790724 5.37054,10.053012 C5.51808,9.790716 5.7066,9.233328 5.936112,8.38086 C6.165624,7.52839 6.395136,6.64314 6.624648,5.7251 C6.85416,4.80706 6.985308,4.26607 7.01809,4.10214 C7.10006,3.65951 7.14104,3.33984 7.14104,3.14311 C7.14104,2.68409 7.01809,2.35622 6.772188,2.1595 C6.526284,1.96277 6.247596,1.86442 5.936112,1.86442 C5.280372,1.86442 4.665612,2.12671 4.091832,2.6513 C3.518064,3.1759 3.116412,3.84804 2.886906,4.66771 C2.854118,4.81526 2.813135,4.89722 2.763954,4.91362 C2.714773,4.93001 2.583624,4.94641 2.370508,4.9628 L2.026242,4.9628 C1.92788,4.86444 1.8787,4.77427 1.8787,4.69231 L1.8787,4.69231 Z" id="Fill-1"></path>
                        <path d="M16.87398,7.43683 C16.561,7.43683 16.31756,7.3383 16.14368,7.14124 C15.9698,6.94417 15.87707,6.68915 15.86548,6.37615 C15.86548,5.73859 16.14368,5.17058 16.7001,4.67213 C17.25652,4.17367 17.92885,3.92444 18.71711,3.92444 C19.12283,3.92444 19.37785,3.93024 19.48218,3.94183 C20.33999,4.08094 20.99494,4.38812 21.44704,4.8634 C21.89912,5.33867 22.13096,5.85451 22.14256,6.41093 C22.14256,7.01372 21.94549,7.59912 21.55136,8.167128 C21.15722,8.735136 20.6124,9.146652 19.91688,9.401676 L19.86472,9.436452 C19.86472,9.448044 19.91688,9.465432 20.02121,9.488616 C20.12554,9.5118 20.29362,9.563964 20.52546,9.645108 C20.7573,9.726252 20.97755,9.847968 21.1862,10.010256 C22.13676,10.624632 22.61203,11.436072 22.61203,12.444576 C22.61203,13.360344 22.25268,14.160204 21.53398,14.844132 C20.81526,15.52806 19.90529,15.870024 18.80405,15.870024 C17.87669,15.870024 17.07684,15.620796 16.4045,15.12234 C15.73217,14.623884 15.396,13.99212 15.396,13.227036 C15.396,12.90246 15.50033,12.64164 15.70898,12.444576 C15.91764,12.247512 16.17846,12.143184 16.49144,12.131592 C16.81602,12.131592 17.08264,12.23592 17.29129,12.444576 C17.49995,12.653232 17.60428,12.914052 17.60428,13.227036 C17.60428,13.354548 17.58689,13.470468 17.55211,13.574796 C17.51734,13.679124 17.47676,13.77186 17.4304,13.853004 C17.38403,13.93416 17.32027,14.003712 17.23913,14.061672 C17.15798,14.119632 17.08843,14.166 17.03047,14.200776 C16.97251,14.235552 16.91455,14.258736 16.85659,14.270328 C16.79863,14.28192 16.75226,14.299308 16.71749,14.322492 L16.64794,14.33988 C17.23913,14.86152 17.95783,15.12234 18.80405,15.12234 C19.44161,15.12234 19.92268,14.815152 20.24725,14.200776 C20.44432,13.818228 20.54285,13.232832 20.54285,12.444576 L20.54285,12.096816 C20.54285,10.995576 20.1719,10.259484 19.43002,9.88854 C19.25614,9.818988 18.90258,9.778416 18.36935,9.766824 L17.63905,9.749436 L17.58689,9.71466 C17.5637,9.679884 17.55211,9.587148 17.55211,9.436452 C17.55211,9.227796 17.59848,9.123468 17.69122,9.123468 C18.01579,9.123468 18.35196,9.094488 18.69972,9.036528 C19.09385,8.978568 19.4532,8.735136 19.77778,8.306232 C20.10235,7.87733 20.26464,7.22818 20.26464,6.35876 L20.26464,6.21966 C20.26464,5.55892 20.06178,5.10103 19.65606,4.84601 C19.40104,4.68372 19.12862,4.60258 18.83882,4.60258 C18.46788,4.60258 18.12592,4.66633 17.81293,4.79384 C17.49995,4.92136 17.2797,5.05466 17.15219,5.19377 C17.02468,5.33287 16.96092,5.40242 16.96092,5.40242 L17.01308,5.40242 C17.04786,5.41402 17.09423,5.42561 17.15219,5.4372 C17.21015,5.44879 17.26811,5.47777 17.32607,5.52414 C17.38403,5.57051 17.45358,5.61108 17.53472,5.64586 C17.61587,5.68063 17.67383,5.74439 17.7086,5.83712 C17.74338,5.92986 17.78975,6.0168 17.84771,6.09794 C17.90567,6.17909 17.92306,6.29501 17.89987,6.44572 C17.89987,6.70074 17.81873,6.92678 17.65644,7.12385 C17.49415,7.32091 17.23333,7.42524 16.87398,7.43683 L16.87398,7.43683 Z" id="Fill-3"></path>
                    </g>
                    <g id="Imported-Layers" transform="translate(0.000000, 210.000000)">
                        <path d="M1.8787,4.28358 C1.993456,3.59504 2.436082,2.79996 3.20658,1.8983 C3.977076,0.99666 4.927908,0.53764 6.059064,0.52124 C6.632844,0.52124 7.15744,0.66878 7.63285,0.96388 C8.10827,1.25896 8.46073,1.62781 8.69023,2.07044 C9.37877,1.03764 10.20665,0.52124 11.17386,0.52124 C11.78042,0.52124 12.30503,0.70158 12.74765,1.06224 C13.19028,1.42289 13.41979,1.9065 13.43618,2.51306 C13.43618,2.98848 13.32143,3.37373 13.09192,3.66882 C12.8624,3.9639 12.64109,4.14422 12.42798,4.2098 C12.21486,4.27538 12.02633,4.30817 11.8624,4.30817 C11.55091,4.30817 11.29681,4.218 11.1001,4.03768 C10.90337,3.85734 10.805,3.61963 10.805,3.32455 C10.805,2.57045 11.21485,2.05405 12.03452,1.77535 C11.8542,1.56224 11.52632,1.45568 11.05091,1.45568 C10.8378,1.45568 10.68205,1.47208 10.5837,1.50486 C9.96074,1.76716 9.50172,2.30815 9.20664,3.12782 C8.22302,6.75082 7.73122,8.865588 7.73122,9.472152 C7.73122,9.931164 7.86236,10.25904 8.12466,10.455756 C8.38696,10.652484 8.67384,10.750848 8.98532,10.750848 C9.59189,10.750848 10.19024,10.480356 10.78042,9.93936 C11.37059,9.398376 11.77223,8.73444 11.98535,7.94754 C12.03452,7.78361 12.08371,7.69344 12.13289,7.67705 C12.18208,7.66066 12.31322,7.64426 12.52633,7.62787 L12.6247,7.62787 C12.8706,7.62787 12.99355,7.69344 12.99355,7.82459 C12.99355,7.84098 12.97716,7.93115 12.94438,8.09508 C12.68208,9.02952 12.17388,9.8574 11.41976,10.578708 C10.66566,11.300028 9.7886,11.660688 8.7886,11.660688 C7.64105,11.660688 6.772188,11.144292 6.182016,10.1115 C5.509884,11.1279 4.739376,11.6361 3.870516,11.6361 L3.722976,11.6361 C2.919692,11.6361 2.345917,11.42298 2.001652,10.996752 C1.657386,10.570512 1.477057,10.119696 1.460664,9.64428 C1.460664,9.119688 1.616402,8.693448 1.92788,8.365584 C2.23936,8.037708 2.608214,7.87378 3.034452,7.87378 C3.739368,7.87378 4.091832,8.218032 4.091832,8.906568 C4.091832,9.234444 3.993468,9.521328 3.796752,9.767232 C3.600024,10.013136 3.411504,10.177068 3.231168,10.25904 C3.050844,10.341012 2.944283,10.381992 2.911496,10.381992 L2.837725,10.40658 C2.837725,10.422972 2.886906,10.455756 2.985268,10.504944 C3.083628,10.55412 3.214776,10.611504 3.378708,10.677072 C3.542652,10.742652 3.698388,10.76724 3.845928,10.750848 C4.4361,10.750848 4.9443,10.381992 5.37054,9.64428 C5.51808,9.381984 5.7066,8.824596 5.936112,7.97213 C6.165624,7.11966 6.395136,6.23441 6.624648,5.31637 C6.85416,4.39834 6.985308,3.85734 7.01809,3.69341 C7.10006,3.25078 7.14104,2.93111 7.14104,2.73438 C7.14104,2.27536 7.01809,1.94749 6.772188,1.75076 C6.526284,1.55405 6.247596,1.45568 5.936112,1.45568 C5.280372,1.45568 4.665612,1.71798 4.091832,2.24257 C3.518064,2.76716 3.116412,3.43931 2.886906,4.25898 C2.854118,4.40653 2.813135,4.48849 2.763954,4.50488 C2.714773,4.52128 2.583624,4.53768 2.370508,4.55407 L2.026242,4.55407 C1.92788,4.45571 1.8787,4.36554 1.8787,4.28358 L1.8787,4.28358 Z" id="Fill-1"></path>
                        <path d="M22.69897,15.078756 C22.49032,15.04398 21.74263,15.026592 20.45591,15.026592 C19.11124,15.026592 18.33457,15.04398 18.12592,15.078756 L17.96942,15.078756 L17.96942,14.278908 L18.50845,14.278908 L18.97793,14.278908 C19.05907,14.278908 19.1576,14.267316 19.27352,14.244132 C19.38944,14.220948 19.47059,14.191968 19.51696,14.157192 C19.56332,14.122416 19.6039,14.076048 19.63867,14.018088 C19.65026,13.994904 19.65606,13.68192 19.65606,13.079136 L19.65606,12.209724 L15.15257,12.209724 L15.15257,11.409876 L17.77816,7.39325 C19.55173,4.70389 20.45011,3.35342 20.4733,3.34183 C20.49648,3.31865 20.6182,3.30706 20.83844,3.30706 L21.15143,3.30706 L21.25576,3.41138 L21.25576,11.409876 L22.85546,11.409876 L22.85546,12.209724 L21.25576,12.209724 L21.25576,13.096524 L21.25576,13.931148 C21.25576,14.012292 21.29054,14.081844 21.3601,14.139804 C21.45283,14.220948 21.7832,14.267316 22.35121,14.278908 L22.85546,14.278908 L22.85546,15.078756 L22.69897,15.078756 L22.69897,15.078756 Z M19.76039,11.409876 L19.76039,5.60228 L15.95242,11.392488 L17.84771,11.409876 L19.76039,11.409876 L19.76039,11.409876 Z" id="Fill-3"></path>
                    </g>
                </g>
            </g>
        </g>
    </g>
</svg>