<?xml version="1.0" encoding="UTF-8" standalone="no"?>
<svg width="378px" height="463px" viewBox="0 0 378 463" version="1.1" xmlns="http://www.w3.org/2000/svg" xmlns:xlink="http://www.w3.org/1999/xlink" xmlns:sketch="http://www.bohemiancoding.com/sketch/ns">
    <!-- Generator: Sketch 3.3.3 (12081) - http://www.bohemiancoding.com/sketch -->
    <title>Group</title>
    <desc>Created with Sketch.</desc>
    <defs></defs>
    <g id="Page-1" stroke="none" stroke-width="1" fill="none" fill-rule="evenodd" sketch:type="MSPage">
        <g id="Group" sketch:type="MSLayerGroup" transform="translate(1.000000, 1.000000)">
            <g id="c_{t-1}-node" transform="translate(248.000000, 0.000000)" sketch:type="MSShapeGroup">
                <ellipse id="Oval-23-Copy" stroke="#979797" cx="64" cy="34.5" rx="64" ry="34.5"></ellipse>
                <g id="Imported-Layers" transform="translate(46.000000, 18.000000)" fill="#000000">
                    <path d="M1.444374,18.44307 C1.444374,16.63843 2.156298,15.01591 3.58014,13.5755 C5.003988,12.1351 6.543732,11.4149 8.19937,11.4149 C9.12653,11.4149 9.855,11.61357 10.38481,12.01093 C10.91461,12.40828 11.18779,12.9298 11.20435,13.5755 C11.20435,14.05563 11.04707,14.46127 10.73249,14.7924 C10.41792,15.12352 10.02056,15.29737 9.54043,15.31392 C9.22586,15.31392 8.97752,15.23114 8.7954,15.06558 C8.61328,14.90001 8.52222,14.65167 8.52222,14.32054 C8.52222,13.98942 8.61328,13.70796 8.7954,13.47616 C8.97752,13.24437 9.15964,13.07054 9.34176,12.95464 C9.52388,12.83875 9.63977,12.78908 9.68944,12.80563 L9.71428,12.80563 C9.71428,12.77252 9.66461,12.72285 9.56527,12.65662 C9.46594,12.5904 9.29209,12.52418 9.04374,12.45795 C8.7954,12.39172 8.51394,12.35862 8.19937,12.35862 C7.70268,12.35862 7.23083,12.4745 6.783804,12.70629 C6.436116,12.8553 6.08016,13.11193 5.715912,13.47616 C4.98744,14.20465 4.457628,15.23114 4.1265,16.55565 C3.795372,17.88015 3.62154,18.84043 3.60498,19.43646 C3.60498,20.19805 3.820212,20.76924 4.250676,21.15003 C4.614912,21.54739 5.095056,21.74607 5.691084,21.74607 L5.79042,21.74607 C7.64473,21.74607 9.1762,21.04242 10.38481,19.63513 C10.53382,19.46956 10.63315,19.38679 10.68282,19.38679 C10.74905,19.38679 10.85666,19.46128 11.00567,19.6103 C11.15468,19.7593 11.23746,19.8752 11.25402,19.95798 C11.27058,20.04076 11.19607,20.16494 11.03051,20.3305 C10.86494,20.49606 10.62487,20.72785 10.3103,21.02587 C9.99574,21.32388 9.62322,21.57223 9.19276,21.7709 C8.76228,21.96957 8.23248,22.176536 7.60334,22.391768 C6.974196,22.607 6.31194,22.698056 5.616576,22.664948 C4.374852,22.664948 3.373188,22.267592 2.611597,21.47289 C1.850005,20.67818 1.46093,19.66825 1.444374,18.44307 L1.444374,18.44307 Z" id="Fill-1"></path>
                    <path d="M13.40796,12.61393 C13.40796,13.00027 13.55429,13.19343 13.84697,13.19343 C14.28013,13.19343 14.6489,12.5788 14.9533,11.34956 C15.02353,11.11542 15.08207,10.99249 15.1289,10.98079 C15.15232,10.96908 15.21085,10.96322 15.30451,10.96322 L15.37475,10.96322 L15.58548,10.96322 C15.6206,10.96322 15.64987,10.97493 15.67328,10.99834 C15.6967,11.02176 15.70841,11.06274 15.70841,11.12127 C15.6967,11.19151 15.67914,11.28517 15.65572,11.40224 C15.6323,11.51931 15.56791,11.74174 15.46255,12.06955 C15.35719,12.39734 15.24012,12.67246 15.11134,12.8949 C14.98256,13.11733 14.8011,13.33392 14.56696,13.54465 C14.33281,13.75537 14.06356,13.85488 13.75916,13.84317 C13.33771,13.84317 12.94553,13.7144 12.5826,13.45684 C12.21968,13.19929 12.03236,12.76612 12.02066,12.15735 C12.02066,12.01687 12.02652,11.91735 12.03822,11.85882 L13.17966,7.32817 C13.91722,4.34286 14.28599,2.80336 14.28599,2.7097 C14.28599,2.67459 14.28013,2.64532 14.26843,2.6219 C14.25672,2.59849 14.23331,2.57508 14.19818,2.55166 C14.16306,2.52825 14.13379,2.51654 14.11038,2.51654 C14.08697,2.51654 14.04014,2.51068 13.9699,2.49898 C13.89965,2.48727 13.85282,2.48142 13.82941,2.48142 C13.806,2.48142 13.75332,2.47556 13.67136,2.46386 C13.58941,2.45215 13.53088,2.45215 13.49575,2.46386 L13.26746,2.46386 C13.23235,2.46386 13.18552,2.458 13.12698,2.44629 C13.06844,2.43459 13.03333,2.41702 13.02162,2.39361 C13.00991,2.3702 13.00406,2.33508 13.00406,2.28825 C13.00406,2.26484 13.01576,2.18289 13.03918,2.04241 C13.09771,1.81996 13.1621,1.69704 13.23235,1.67362 C13.30259,1.65021 13.72405,1.61509 14.49672,1.56826 C14.67233,1.55655 14.87135,1.54485 15.09378,1.53314 C15.31621,1.52144 15.49182,1.50387 15.6206,1.48046 C15.74938,1.45705 15.81377,1.45119 15.81377,1.4629 C15.95425,1.4629 16.0245,1.50973 16.0245,1.60339 C16.0245,1.73216 15.59718,3.48823 14.74256,6.87159 C13.88795,10.25494 13.44893,12.02857 13.42552,12.19248 L13.42552,12.33296 C13.42552,12.4032 13.41966,12.46173 13.40796,12.50857 L13.40796,12.61393 L13.40796,12.61393 Z" id="Fill-3"></path>
                    <path d="M11.80993,23.255108 C11.72798,23.17316 11.687,23.114624 11.687,23.0795 C11.687,23.032676 11.70457,22.939016 11.7397,22.798532 C11.77481,22.658048 11.80408,22.5761 11.82749,22.552688 C11.85091,22.494152 11.90359,22.464884 11.98554,22.464884 C12.06749,22.464884 12.36602,22.459028 12.88114,22.447316 L13.81184,22.447316 L14.1455,21.04246 C14.18063,20.91368 14.2216,20.74393 14.26843,20.53321 C14.31526,20.32248 14.35624,20.17028 14.39135,20.07663 C14.42647,19.98297 14.4616,19.8659 14.49672,19.72542 C14.53183,19.58493 14.57867,19.48542 14.6372,19.42688 C14.69574,19.36834 14.75428,19.29811 14.81281,19.21616 C14.87135,19.1342 14.9533,19.08152 15.05866,19.05811 C15.16402,19.0347 15.26939,19.02298 15.37475,19.02298 C15.58548,19.0347 15.73182,19.09909 15.81377,19.21616 C15.89572,19.33322 15.9367,19.44445 15.9367,19.54981 C15.9367,19.63176 15.884,19.90688 15.77864,20.37516 C15.67328,20.84344 15.55621,21.30588 15.42743,21.76245 L15.25182,22.412192 C15.25182,22.435616 15.5445,22.447316 16.12986,22.447316 L17.02546,22.447316 C17.1074,22.529264 17.14837,22.593656 17.14837,22.640492 C17.14837,22.898048 17.07228,23.102912 16.92008,23.255108 L15.0411,23.255108 L14.40892,25.801412 C13.95234,27.67454 13.72405,28.681352 13.72405,28.821848 C13.72405,29.313536 13.88209,29.559392 14.19818,29.559392 C14.60794,29.559392 15.00598,29.360372 15.39232,28.962332 C15.77864,28.564292 16.08888,28.072592 16.32302,27.487232 C16.34644,27.416984 16.3757,27.376016 16.41083,27.364304 C16.44595,27.352604 16.53376,27.340892 16.67424,27.32918 L16.74449,27.32918 C16.92008,27.32918 17.00789,27.376016 17.00789,27.469676 C17.00789,27.504788 16.99033,27.575036 16.95521,27.680396 C16.89667,27.867716 16.79131,28.090148 16.63912,28.347704 C16.48692,28.60526 16.2879,28.880384 16.04206,29.173052 C15.7962,29.465732 15.49768,29.711588 15.14646,29.910608 C14.79524,30.109628 14.43818,30.209132 14.07526,30.209132 C13.72405,30.209132 13.39039,30.121328 13.0743,29.94572 C12.75821,29.770124 12.52992,29.465732 12.38944,29.032568 C12.36602,28.93892 12.35431,28.780868 12.35431,28.558436 L12.35431,28.242344 L12.96894,25.783844 C13.37869,24.133148 13.58941,23.301932 13.60112,23.290232 C13.60112,23.26682 13.30259,23.255108 12.70553,23.255108 L11.80993,23.255108 L11.80993,23.255108 Z" id="Fill-4"></path>
                    <path d="M19.16126,25.854092 L19.16126,25.625804 C19.16126,25.473608 19.24321,25.356536 19.40711,25.274588 L29.60986,25.274588 C29.78546,25.368248 29.87327,25.48532 29.87327,25.625804 C29.87327,25.766288 29.78546,25.88336 29.60986,25.977008 L19.40711,25.977008 C19.24321,25.89506 19.16126,25.777988 19.16126,25.625804 L19.16126,25.854092 Z" id="Fill-5"></path>
                    <path d="M35.08559,19.8659 L34.8573,19.9537 C34.69339,20.01224 34.45925,20.07078 34.15487,20.12931 C33.85049,20.18785 33.51097,20.22882 33.13634,20.25224 L32.8027,20.25224 L32.8027,19.44445 L33.13634,19.44445 C33.68658,19.42102 34.19585,19.33322 34.66412,19.18104 C35.13241,19.02884 35.46022,18.88836 35.64752,18.75957 C35.83484,18.6308 35.99874,18.50202 36.13922,18.37324 C36.16264,18.33812 36.23288,18.32056 36.34996,18.32056 C36.45532,18.32056 36.55483,18.35568 36.64848,18.42592 L36.64848,23.67656 L36.66605,28.944764 C36.748,29.026712 36.81823,29.079404 36.87677,29.102816 C36.9353,29.126228 37.07579,29.14964 37.29823,29.173052 C37.52066,29.196476 37.88358,29.208176 38.38699,29.208176 L38.84357,29.208176 L38.84357,30.015968 L38.6504,30.015968 C38.40455,29.980844 37.47384,29.963288 35.85826,29.963288 C34.26608,29.963288 33.34708,29.980844 33.10123,30.015968 L32.8905,30.015968 L32.8905,29.208176 L33.34708,29.208176 L34.01438,29.208176 C34.20169,29.208176 34.34803,29.20232 34.4534,29.19062 C34.55876,29.178908 34.65242,29.161352 34.73437,29.13794 C34.81632,29.114516 34.86314,29.102816 34.87486,29.102816 C34.88657,29.102816 34.92168,29.073548 34.98022,29.015012 C35.03875,28.956476 35.07388,28.933064 35.08559,28.944764 L35.08559,19.8659 L35.08559,19.8659 Z" id="Fill-6"></path>
                </g>
            </g>
            <path d="M311,170 L311,199" id="Line-Copy-34" stroke="#979797" stroke-linecap="square" fill="#979797" sketch:type="MSShapeGroup"></path>
            <path id="Line-Copy-34-decoration-1" d="M311,199 L314,188.2 L308,188.2 L311,199 Z" stroke="#979797" stroke-linecap="square" fill="#979797"></path>
            <path d="M311,70 L311,99" id="Line-Copy-39" stroke="#979797" stroke-linecap="square" fill="#979797" sketch:type="MSShapeGroup"></path>
            <path id="Line-Copy-39-decoration-1" d="M311,99 L314,88.2 L308,88.2 L311,99 Z" stroke="#979797" stroke-linecap="square" fill="#979797"></path>
            <path d="M64.5,69.5 L64.5,194.5" id="Line-Copy-35" stroke="#979797" stroke-linecap="round" fill="#979797" sketch:type="MSShapeGroup"></path>
            <path d="M64.5,194.5 L247.5,235.5" id="Line-Copy-36" stroke="#979797" stroke-linecap="round" fill="#979797" sketch:type="MSShapeGroup"></path>
            <path id="Line-Copy-36-decoration-1" d="M247.5,235.5 L237.617132,230.211434 L236.305389,236.066289 L247.5,235.5 Z" stroke="#979797" stroke-linecap="round" fill="#979797"></path>
            <g id="c_input-node" sketch:type="MSShapeGroup">
                <g id="sigmoid_chunk-node-copy-2" stroke="#979797">
                    <ellipse id="Oval-23-Copy-2" cx="64" cy="34.5" rx="64" ry="34.5"></ellipse>
                </g>
                <g id="Imported-Layers" transform="translate(24.000000, 22.700000)" fill="#000000">
                    <path d="M9.81614,9.72805 L9.29306,9.72805 C8.94436,9.72805 8.64545,9.6035 8.39636,9.35442 C8.14728,9.10534 8.01443,8.78983 7.99783,8.4079 C7.99783,8.02597 8.12237,7.71046 8.37145,7.46137 C8.45448,7.37834 8.496,7.32853 8.496,7.31192 C8.496,7.29532 8.41297,7.27871 8.24692,7.26211 C7.81517,7.19568 7.40832,7.16248 7.0264,7.16248 C6.212712,7.16248 5.548488,7.42817 5.033712,7.95955 C4.253244,8.74001 3.863016,10.04356 3.863016,11.87018 C3.863016,13.23185 4.120404,14.302908 4.63518,15.083376 C5.316012,16.09632 6.22932,16.602804 7.37512,16.602804 C8.05595,16.602804 8.60394,16.386924 9.01908,15.955176 C9.43422,15.523428 9.73312,15.008652 9.91578,14.410848 C9.949,14.278008 9.9905,14.19498 10.04033,14.161764 C10.09014,14.128548 10.22299,14.111952 10.43886,14.111952 L10.78758,14.111952 C10.88722,14.211588 10.93703,14.286312 10.93703,14.336124 C10.93703,14.402544 10.90382,14.535396 10.83739,14.734656 C10.77097,14.933928 10.63813,15.207924 10.43886,15.556644 C10.23959,15.905364 9.99881,16.220868 9.71652,16.503168 C9.43422,16.785456 9.03569,17.042844 8.5209,17.275332 C8.00614,17.507808 7.43323,17.615748 6.802224,17.59914 C5.374128,17.59914 4.128708,17.067756 3.06594,16.005 C2.003179,14.942232 1.463495,13.60548 1.446889,11.99472 C1.446889,10.26774 1.986574,8.86456 3.06594,7.78519 C4.145316,6.70582 5.39904,6.16613 6.827124,6.16613 C8.25522,6.16613 9.25156,6.39031 9.81614,6.83867 C10.38074,7.28701 10.66303,7.8184 10.66303,8.43281 C10.66303,8.81474 10.52189,9.12194 10.23959,9.35442 L9.81614,9.72805 Z" id="Fill-1"></path>
                    <path d="M11.65938,18.869472 L11.65938,17.94786 L24.08873,17.94786 L24.08873,18.869472 L11.65938,18.869472 L11.65938,18.869472 Z" id="Fill-3"></path>
                    <path d="M25.83232,2.15586 C25.83232,1.69091 25.98178,1.32558 26.28067,1.05989 C26.57958,0.7942 26.9449,0.66136 27.37664,0.66136 C27.75858,0.69456 28.09069,0.83572 28.37299,1.0848 C28.65528,1.33388 28.79644,1.69091 28.79644,2.15586 C28.79644,2.65404 28.65528,3.02766 28.37299,3.27674 C28.09069,3.52583 27.74197,3.65038 27.32683,3.65038 C26.91169,3.65038 26.56297,3.52583 26.28067,3.27674 C25.99837,3.02766 25.84892,2.65404 25.83232,2.15586 L25.83232,2.15586 Z M30.26603,17.325144 C30.01694,17.275332 29.15346,17.25042 27.67555,17.25042 L26.75394,17.25042 C26.32219,17.25042 25.90704,17.267028 25.50851,17.300232 L24.96052,17.325144 L24.76126,17.325144 L24.76126,16.17936 L25.15979,16.17936 C25.62475,16.17936 26.03159,16.154448 26.38031,16.104624 C26.52976,16.038204 26.62109,15.946872 26.6543,15.83064 C26.68751,15.714396 26.70412,15.365676 26.70412,14.78448 L26.70412,12.2189 L26.70412,10.02695 C26.70412,9.16345 26.68751,8.61547 26.6543,8.383 C26.62109,8.15051 26.50484,7.99276 26.30558,7.90973 C26.0731,7.79348 25.68287,7.73537 25.13488,7.73537 L24.86089,7.73537 L24.86089,7.16248 C24.86089,6.78054 24.87749,6.58958 24.9107,6.58958 L25.15979,6.56467 C25.32584,6.54806 25.55832,6.53146 25.85723,6.51485 C26.15612,6.49825 26.45503,6.48164 26.75394,6.46504 C27.03623,6.44843 27.33514,6.43182 27.65064,6.41522 C27.96614,6.39862 28.20694,6.3737 28.37299,6.34049 C28.53905,6.30728 28.63038,6.29898 28.64698,6.31559 L28.72171,6.31559 L28.72171,15.780816 C28.80474,15.946872 28.90436,16.046508 29.02061,16.079724 C29.13685,16.112928 29.42744,16.146144 29.89241,16.17936 L30.4653,16.17936 L30.4653,17.325144 L30.26603,17.325144 L30.26603,17.325144 Z" id="Fill-4"></path>
                    <path d="M32.05945,16.17936 L32.40816,16.17936 C33.05579,16.17936 33.44602,16.063116 33.57887,15.83064 L33.57887,15.631368 L33.57887,15.058476 L33.57887,14.286312 C33.57887,14.004012 33.58717,13.6802 33.60378,13.31488 C33.62038,12.94955 33.62038,12.60083 33.60378,12.26872 L33.60378,10.62475 C33.60378,10.04356 33.59548,9.55369 33.57887,9.15516 L33.57887,8.58226 C33.52904,8.26675 33.41281,8.05918 33.23015,7.95955 C33.04748,7.85992 32.67385,7.78519 32.10926,7.73537 L31.66091,7.73537 L31.66091,7.16248 C31.66091,6.78054 31.67752,6.58958 31.71073,6.58958 L31.95982,6.56467 C32.12587,6.54806 32.35835,6.53146 32.65726,6.51485 C32.95615,6.49825 33.26335,6.48164 33.57887,6.46504 C33.86117,6.44843 34.16006,6.43182 34.47557,6.41522 C34.79108,6.39862 35.03186,6.3737 35.19792,6.34049 C35.36398,6.30728 35.45531,6.29898 35.47192,6.31559 L35.54664,6.31559 L35.54664,7.31192 C35.54664,7.94294 35.55494,8.25845 35.57155,8.25845 C35.58815,8.25845 35.62967,8.21693 35.69609,8.13391 C35.76251,8.05087 35.86214,7.92634 35.995,7.76028 C36.12784,7.59422 36.28559,7.44478 36.46825,7.31192 C36.65092,7.17908 36.8917,7.02132 37.1906,6.83867 C37.4895,6.656 37.805,6.52315 38.13713,6.44012 C38.46924,6.3571 38.89268,6.31559 39.40746,6.31559 C41.30051,6.38201 42.35496,7.32023 42.57084,9.13025 C42.58745,9.24648 42.59574,10.40058 42.59574,12.59252 L42.59574,14.734656 C42.59574,15.365676 42.61235,15.739308 42.64556,15.85554 C42.67878,15.971784 42.7701,16.054812 42.91956,16.104624 C43.26828,16.154448 43.67512,16.17936 44.14007,16.17936 L44.53861,16.17936 L44.53861,17.325144 L44.33934,17.325144 L43.74154,17.300232 C43.35961,17.283636 42.94446,17.275332 42.49612,17.275332 C42.04776,17.275332 41.73226,17.267028 41.54959,17.25042 C39.83921,17.25042 38.90929,17.275332 38.75983,17.325144 L38.56057,17.325144 L38.56057,16.17936 L38.9591,16.17936 C39.97205,16.17936 40.47852,16.046508 40.47852,15.780816 C40.49513,15.747612 40.50343,14.601816 40.50343,12.34344 C40.48682,10.10168 40.47022,8.91437 40.45361,8.78153 C40.35398,8.31656 40.18793,7.96784 39.95544,7.73537 C39.72296,7.50289 39.52369,7.36175 39.35764,7.31192 C39.19158,7.26211 38.97571,7.2455 38.71002,7.26211 C37.96277,7.26211 37.30684,7.5444 36.74225,8.109 C36.29389,8.55736 36.01159,9.014 35.89536,9.47897 C35.77912,9.94392 35.7127,10.63306 35.69609,11.54638 L35.69609,13.14052 L35.69609,14.635032 C35.69609,15.1332 35.70439,15.465312 35.721,15.631368 C35.73761,15.797424 35.76251,15.905364 35.79572,15.955176 C35.82894,16.005 35.90366,16.054812 36.0199,16.104624 C36.36862,16.154448 36.77545,16.17936 37.24042,16.17936 L37.63895,16.17936 L37.63895,17.325144 L37.43969,17.325144 L36.86678,17.300232 C36.46825,17.283636 36.04481,17.275332 35.59645,17.275332 C35.1481,17.275332 34.83259,17.267028 34.64993,17.25042 C32.93954,17.25042 32.00963,17.275332 31.86018,17.325144 L31.66091,17.325144 L31.66091,16.17936 L32.05945,16.17936 L32.05945,16.17936 Z" id="Fill-5"></path>
                    <path d="M45.78403,21.011604 L46.13275,21.011604 C46.78038,21.011604 47.17061,20.89536 47.30345,20.662884 L47.30345,20.463612 L47.30345,19.990356 L47.30345,19.243104 C47.30345,18.944196 47.31175,18.620388 47.32836,18.271668 C47.34497,17.922948 47.34497,17.55762 47.32836,17.175696 C47.31175,16.79376 47.31175,16.386924 47.32836,15.955176 C47.34497,15.523428 47.34497,15.099984 47.32836,14.684844 L47.32836,12.91634 L47.32836,11.27238 L47.32836,9.95222 C47.32836,9.55369 47.32006,9.22988 47.30345,8.9808 C47.28685,8.73172 47.28685,8.59886 47.30345,8.58226 C47.25364,8.26675 47.13739,8.05918 46.95474,7.95955 C46.77208,7.85992 46.39844,7.78519 45.83386,7.73537 L45.3855,7.73537 L45.3855,7.16248 C45.3855,6.78054 45.40211,6.58958 45.43531,6.58958 L45.6844,6.56467 C45.85045,6.54806 46.09124,6.53146 46.40675,6.51485 C46.72225,6.49825 47.02946,6.48164 47.32836,6.46504 C47.61066,6.44843 47.91786,6.43182 48.24997,6.41522 C48.5821,6.39862 48.83118,6.3737 48.99724,6.34049 C49.16329,6.30728 49.25462,6.29898 49.27122,6.31559 L49.34596,6.31559 L49.34596,6.9632 L49.37086,7.61083 L49.57013,7.43647 C50.54987,6.70582 51.69565,6.34049 53.0075,6.34049 C54.35256,6.34049 55.49836,6.87187 56.44488,7.93464 C57.3914,8.9974 57.87296,10.33416 57.88957,11.94491 C57.88957,13.62208 57.34988,14.98374 56.27052,16.0299 C55.19114,17.07606 53.97064,17.59914 52.60897,17.59914 C51.47978,17.59914 50.48344,17.233812 49.61994,16.503168 L49.42068,16.328808 L49.42068,18.446028 L49.42068,19.840908 C49.42068,20.289264 49.43729,20.563248 49.47049,20.662884 C49.50371,20.76252 49.59504,20.853852 49.74449,20.93688 C50.09321,20.986692 50.50004,21.011604 50.96501,21.011604 L51.36354,21.011604 L51.36354,22.1574 L51.16427,22.1574 L50.56646,22.132488 C50.18454,22.11588 49.7694,22.107576 49.32104,22.107576 C48.87269,22.107576 48.55718,22.099272 48.37452,22.082676 C46.66414,22.082676 45.73422,22.107576 45.58477,22.1574 L45.3855,22.1574 L45.3855,21.011604 L45.78403,21.011604 L45.78403,21.011604 Z M55.44853,11.8951 C55.44853,10.66627 55.16624,9.5952 54.60164,8.68189 C54.03706,7.76858 53.33131,7.31192 52.48442,7.31192 C51.30542,7.31192 50.28418,7.85161 49.42068,8.93098 L49.42068,14.884116 C50.0849,16.079724 51.01482,16.677528 52.21043,16.677528 C53.05732,16.677528 53.80458,16.229172 54.4522,15.33246 C55.09981,14.43576 55.43194,13.28996 55.44853,11.8951 L55.44853,11.8951 Z" id="Fill-6"></path>
                    <path d="M68.27642,15.880452 C67.3465,17.00964 66.29204,17.574228 65.11303,17.574228 L64.93867,17.574228 C62.86297,17.574228 61.66736,16.752252 61.35185,15.108288 C61.33525,14.992044 61.31864,13.85456 61.30204,11.69582 C61.28543,9.8858 61.27712,8.87286 61.27712,8.65698 C61.27712,8.44111 61.22731,8.26675 61.12768,8.13391 C60.96162,7.86822 60.46345,7.73537 59.63316,7.73537 L59.35918,7.73537 L59.35918,7.16248 C59.35918,6.78054 59.37577,6.58958 59.40899,6.58958 L59.68298,6.56467 C59.84904,6.54806 60.08982,6.53146 60.40532,6.51485 C60.72084,6.49825 61.03634,6.48164 61.35185,6.46504 C61.63415,6.44843 61.94136,6.43182 62.27347,6.41522 C62.60558,6.39862 62.85467,6.3737 63.02072,6.34049 C63.18678,6.30728 63.28642,6.29898 63.31962,6.31559 L63.39436,6.31559 L63.39436,10.82402 C63.41095,13.87946 63.43586,15.515124 63.46908,15.731004 C63.51889,15.980088 63.63514,16.17936 63.8178,16.328808 C64.14991,16.561284 64.64808,16.677528 65.3123,16.677528 C65.74405,16.677528 66.13429,16.602804 66.483,16.453344 C66.83172,16.303896 67.09741,16.112928 67.28008,15.880452 C67.46274,15.647976 67.6288,15.382284 67.77824,15.083376 C67.9277,14.78448 68.02733,14.535396 68.07715,14.336124 C68.12696,14.136852 68.16018,13.93759 68.17679,13.73832 L68.17679,13.31488 C68.17679,13.04918 68.18509,12.71707 68.20169,12.31854 C68.2183,11.92 68.2183,11.52977 68.20169,11.14783 L68.20169,9.47897 C68.20169,8.71511 68.11866,8.24184 67.9526,8.05918 C67.78655,7.87651 67.37141,7.76858 66.70718,7.73537 L66.25883,7.73537 L66.25883,6.58958 C66.29204,6.58958 66.92305,6.54806 68.15188,6.46504 C69.3807,6.38201 70.03662,6.3322 70.11965,6.31559 L70.29401,6.31559 L70.29401,10.7493 C70.29401,13.73832 70.30231,15.257736 70.31892,15.30756 C70.36873,15.639672 70.48498,15.85554 70.66764,15.955176 C70.85029,16.054812 71.22392,16.129536 71.78851,16.17936 L72.23687,16.17936 L72.23687,17.325144 C72.20366,17.325144 71.58095,17.366664 70.36873,17.449692 C69.15652,17.53272 68.5172,17.582532 68.45077,17.59914 L68.27642,17.59914 L68.27642,15.880452 L68.27642,15.880452 Z" id="Fill-7"></path>
                    <path d="M73.25812,6.81376 C74.13822,6.74734 74.81905,6.28237 75.30061,5.41888 C75.78218,4.55538 76.04788,3.54244 76.09769,2.38004 L76.09769,2.00641 L77.09404,2.00641 L77.09404,6.58958 L80.45668,6.58958 L80.45668,7.73537 L77.09404,7.73537 L77.09404,11.32219 C77.11063,13.3979 77.11894,14.5686 77.11894,14.834292 C77.11894,15.099984 77.17706,15.365676 77.2933,15.631368 C77.52577,16.278984 77.93262,16.602804 78.51382,16.602804 C79.24446,16.602804 79.69282,16.013292 79.85887,14.834292 C79.87548,14.701452 79.88378,14.319516 79.88378,13.68851 L79.88378,12.81671 L80.88012,12.81671 L80.88012,13.68851 L80.88012,13.9874 C80.88012,15.26604 80.5314,16.237476 79.83397,16.9017 C79.38562,17.350056 78.80442,17.574228 78.09037,17.574228 C77.52577,17.574228 77.03591,17.474592 76.62077,17.275332 C76.20563,17.07606 75.89012,16.818672 75.67424,16.503168 C75.45838,16.187652 75.30061,15.89706 75.20099,15.631368 C75.10135,15.365676 75.04322,15.099984 75.02663,14.834292 C75.01002,14.71806 75.00172,13.48924 75.00172,11.14783 L75.00172,7.73537 L73.03394,7.73537 L73.03394,6.81376 L73.25812,6.81376 L73.25812,6.81376 Z" id="Fill-8"></path>
                </g>
            </g>
            <g id="c_forget-node" transform="translate(248.000000, 101.000000)" sketch:type="MSShapeGroup">
                <g id="sigmoid_chunk-node-copy" stroke="#979797">
                    <ellipse id="Oval-23-Copy-2" cx="64" cy="34.5" rx="64" ry="34.5"></ellipse>
                </g>
                <g id="Imported-Layers" transform="translate(21.200000, 21.700000)" fill="#000000">
                    <path d="M9.80741,11.41888 L9.28483,11.41888 C8.93644,11.41888 8.63782,11.29447 8.38897,11.04561 C8.14013,10.79677 8.00741,10.48155 7.99081,10.09999 C7.99081,9.71842 8.11524,9.40321 8.36408,9.15436 C8.44704,9.07141 8.48851,9.02164 8.48851,9.00505 C8.48851,8.98846 8.40556,8.97187 8.23966,8.95528 C7.80833,8.88892 7.40188,8.85574 7.0203,8.85574 C6.207396,8.85574 5.543796,9.12118 5.029512,9.65206 C4.249788,10.43179 3.85992,11.7341 3.85992,13.55899 C3.85992,14.91937 4.117068,15.98941 4.631352,16.769144 C5.311536,17.781128 6.22398,18.28712 7.3687,18.28712 C8.04888,18.28712 8.59634,18.071444 9.01109,17.640116 C9.42584,17.208776 9.72446,16.69448 9.90695,16.097252 C9.94013,15.96453 9.9816,15.88158 10.03138,15.8484 C10.08114,15.81522 10.21386,15.79863 10.42954,15.79863 L10.77792,15.79863 C10.87746,15.89817 10.92724,15.97282 10.92724,16.022588 C10.92724,16.088948 10.89406,16.221668 10.8277,16.420748 C10.76134,16.619828 10.62862,16.89356 10.42954,17.241956 C10.23046,17.59034 9.9899,17.905556 9.70787,18.18758 C9.42584,18.469604 9.02768,18.726752 8.5134,18.959012 C7.9991,19.191272 7.42675,19.299104 6.796344,19.28252 C5.369604,19.28252 4.12536,18.75164 3.0636,17.68988 C2.001848,16.62812 1.462676,15.29264 1.446086,13.68342 C1.446086,11.95806 1.98526,10.55622 3.0636,9.47787 C4.141944,8.39952 5.394492,7.86034 6.82122,7.86034 C8.24796,7.86034 9.24335,8.08431 9.80741,8.53224 C10.37147,8.98017 10.65349,9.51105 10.65349,10.12488 C10.65349,10.50644 10.51248,10.81335 10.23046,11.04561 L9.80741,11.41888 Z" id="Fill-1"></path>
                    <path d="M11.64889,20.55164 L11.64889,19.630904 L24.06646,19.630904 L24.06646,20.55164 L11.64889,20.55164 L11.64889,20.55164 Z" id="Fill-3"></path>
                    <path d="M30.88492,19.008776 C30.5863,18.959012 29.53284,18.934124 27.72454,18.934124 C26.01577,18.934124 25.08673,18.959012 24.93743,19.008776 L24.73835,19.008776 L24.73835,17.864072 L25.13651,17.864072 C25.60102,17.864072 26.00748,17.839196 26.35586,17.78942 C26.48858,17.739656 26.58812,17.648408 26.65448,17.515688 C26.67107,17.482508 26.67937,16.122128 26.67937,13.43456 L26.67937,9.4281 L24.91254,9.4281 L24.91254,8.28339 L26.67937,8.28339 L26.67937,6.64099 L26.70425,4.9737 L26.75402,4.72485 C27.06923,3.64651 27.60011,2.86678 28.34665,2.38567 C29.0932,1.90456 29.88122,1.60594 30.71072,1.48982 L30.93468,1.48982 C31.0674,1.48982 31.18354,1.48152 31.28308,1.46493 C31.96326,1.5147 32.47754,1.73037 32.82594,2.11194 C33.17432,2.49351 33.34852,2.92484 33.34852,3.40596 C33.34852,3.78752 33.23239,4.09443 33.00013,4.32669 C32.76787,4.55895 32.46096,4.67509 32.07938,4.67509 C31.69782,4.67509 31.39091,4.55895 31.15865,4.32669 C30.92639,4.09443 30.81026,3.78752 30.81026,3.40596 C30.81026,3.07416 30.95957,2.74236 31.25819,2.41056 L31.15865,2.41056 C31.09229,2.39397 31.00104,2.38567 30.88492,2.38567 C30.4204,2.38567 30.00565,2.55987 29.64067,2.90826 C29.27569,3.25664 28.99366,3.71287 28.79459,4.27693 C28.69505,4.60873 28.63698,5.39674 28.62038,6.64099 L28.62038,8.28339 L31.38262,8.28339 L31.38262,9.4281 L28.69505,9.4281 L28.69505,13.40968 C28.69505,16.097252 28.70334,17.45762 28.71992,17.4908 C28.73652,17.52398 28.76141,17.55716 28.79459,17.59034 C28.82777,17.62352 28.86924,17.648408 28.919,17.664992 C28.96878,17.681588 29.01025,17.706476 29.04343,17.739656 C29.07661,17.772836 29.13468,17.78942 29.21762,17.78942 C29.30058,17.78942 29.35864,17.797712 29.39182,17.814308 C29.425,17.830892 29.49966,17.839196 29.61578,17.839196 L29.83975,17.839196 C29.87293,17.839196 29.95588,17.847488 30.0886,17.864072 C30.22132,17.880668 30.30427,17.880668 30.33745,17.864072 L31.10887,17.864072 L31.10887,19.008776 L30.88492,19.008776 L30.88492,19.008776 Z" id="Fill-4"></path>
                    <path d="M32.40289,13.68342 C32.40289,12.10737 32.94206,10.74699 34.02041,9.60229 C35.09875,8.45758 36.40106,7.87694 37.92734,7.86034 C39.42043,7.86034 40.70615,8.4244 41.78449,9.55252 C42.86284,10.68063 43.41031,12.0493 43.4269,13.65853 C43.4269,15.23457 42.89603,16.561772 41.83427,17.640116 C40.77251,18.71846 39.4702,19.257632 37.92734,19.257632 C36.31812,19.257632 34.99921,18.701864 33.97064,17.59034 C32.94206,16.478816 32.41949,15.1765 32.40289,13.68342 L32.40289,13.68342 Z M37.92734,18.262232 C39.95131,18.262232 40.9633,16.910156 40.9633,14.20599 L40.9633,13.40968 L40.9633,12.78756 C40.9633,12.42258 40.955,12.10737 40.93841,11.84193 C40.92182,11.57649 40.86376,11.26129 40.76422,10.89631 C40.66468,10.53133 40.53196,10.23271 40.36606,10.00045 C40.20016,9.76819 39.94302,9.53593 39.59462,9.30367 C39.24624,9.07141 38.83979,8.90552 38.37527,8.80598 C38.29231,8.78938 38.15959,8.78109 37.97711,8.78109 C37.47941,8.78109 37.0066,8.88063 36.55867,9.07971 C35.84531,9.44469 35.38079,9.95068 35.16511,10.59769 C34.94945,11.24469 34.84162,12.00783 34.84162,12.8871 L34.84162,13.3848 C34.84162,14.97742 34.99921,16.097252 35.31443,16.744256 C35.84531,17.75624 36.71627,18.262232 37.92734,18.262232 L37.92734,18.262232 Z" id="Fill-5"></path>
                    <path d="M45.04441,17.864072 L45.39281,17.864072 C46.03981,17.864072 46.42968,17.747948 46.5624,17.515688 L46.5624,17.316608 L46.5624,16.744256 C46.5624,16.511996 46.57069,16.254848 46.58728,15.97282 C46.60387,15.6908 46.60387,15.36729 46.58728,15.00231 C46.57069,14.63733 46.57069,14.28895 46.58728,13.95715 L46.58728,12.31474 L46.58728,10.84653 L46.5624,10.27418 C46.51262,9.95898 46.3965,9.7516 46.214,9.65206 C46.03152,9.55252 45.65825,9.47787 45.09419,9.4281 L44.64626,9.4281 L44.64626,8.85574 C44.64626,8.47418 44.66285,8.28339 44.69603,8.28339 L44.94487,8.2585 C45.11077,8.24192 45.34303,8.22532 45.64165,8.20874 C45.94027,8.19214 46.23889,8.17556 46.53751,8.15896 C46.80295,8.14238 47.09327,8.12578 47.40848,8.1092 C47.72369,8.0926 47.96424,8.06773 48.13014,8.03455 C48.29604,8.00137 48.38729,7.99306 48.40387,8.00966 L48.47854,8.00966 L48.47854,9.72672 C49.12554,8.5986 49.93015,8.03455 50.89237,8.03455 L51.04168,8.03455 C51.78822,8.03455 52.3357,8.21703 52.68408,8.58201 C53.03246,8.94699 53.20666,9.32856 53.20666,9.72672 C53.20666,10.0751 53.09882,10.37372 52.88316,10.62258 C52.66748,10.87142 52.35228,10.99585 51.93754,10.99585 C51.52278,10.99585 51.21587,10.86313 51.01679,10.59769 C50.81771,10.33225 50.70988,10.05022 50.69329,9.7516 C50.69329,9.60229 50.70988,9.46957 50.74306,9.35344 C50.77624,9.23731 50.81771,9.13777 50.86748,9.05482 C50.91725,8.97187 50.94214,8.9304 50.94214,8.9304 C50.90896,8.89722 50.71817,8.9304 50.36978,9.02994 C50.10434,9.16266 49.90526,9.28708 49.77254,9.40321 C48.99282,10.14976 48.60295,11.63456 48.60295,13.85761 L48.60295,15.1765 L48.60295,15.8484 L48.60295,16.495412 C48.60295,16.69448 48.61126,16.86038 48.62784,16.9931 C48.64444,17.12582 48.64444,17.250248 48.62784,17.366372 L48.62784,17.4908 C48.64444,17.52398 48.66931,17.55716 48.70249,17.59034 C48.73567,17.62352 48.77716,17.648408 48.82692,17.664992 C48.8767,17.681588 48.91817,17.706476 48.95135,17.739656 C48.98453,17.772836 49.0426,17.78942 49.12554,17.78942 C49.20848,17.78942 49.26655,17.797712 49.29973,17.814308 C49.33291,17.830892 49.40756,17.839196 49.5237,17.839196 L49.74766,17.839196 C49.78084,17.839196 49.86379,17.847488 49.99651,17.864072 C50.12923,17.880668 50.21218,17.880668 50.24536,17.864072 L51.01679,17.864072 L51.01679,19.008776 L50.79283,19.008776 C50.49421,18.959012 49.44074,18.934124 47.63245,18.934124 C45.92369,18.934124 44.99465,18.959012 44.84534,19.008776 L44.64626,19.008776 L44.64626,17.864072 L45.04441,17.864072 L45.04441,17.864072 Z" id="Fill-6"></path>
                    <path d="M62.09057,8.83086 C62.82053,8.10091 63.65003,7.73593 64.57906,7.73593 C65.07676,7.73593 65.43344,7.89352 65.64911,8.20874 C65.86477,8.52394 65.97262,8.83916 65.97262,9.15436 C65.97262,9.38662 65.89795,9.594 65.74865,9.77648 C65.59934,9.95898 65.37538,10.05022 65.07676,10.05022 C64.52929,10.05022 64.22238,9.80137 64.15602,9.30367 C64.12284,9.07141 64.14772,8.89722 64.23067,8.78109 C64.23067,8.7645 64.23896,8.73962 64.25555,8.70644 L64.25555,8.68155 C63.79104,8.73132 63.35141,8.91381 62.93665,9.22902 C62.80393,9.31197 62.73757,9.37003 62.73757,9.40321 C62.73757,9.4198 62.77075,9.46128 62.83711,9.52764 C62.90347,9.594 62.97814,9.69354 63.06108,9.82626 C63.14402,9.95898 63.23527,10.10828 63.33481,10.27418 C63.43435,10.44008 63.509,10.65576 63.55878,10.9212 C63.60854,11.18662 63.64172,11.46037 63.65832,11.74239 C63.65832,12.77097 63.25187,13.64194 62.43895,14.35531 C61.62605,15.06867 60.62236,15.43365 59.42789,15.45024 C58.59839,15.45024 57.77719,15.21798 56.96428,14.75347 C56.78179,15.05209 56.69054,15.36729 56.69054,15.69909 C56.69054,16.279736 56.90622,16.711076 57.33755,16.9931 C57.48686,17.09264 57.62788,17.142416 57.7606,17.142416 C57.89332,17.142416 58.49056,17.159 59.5523,17.19218 C60.94586,17.208776 61.84172,17.25854 62.23987,17.341496 C63.25187,17.4908 64.04818,17.830892 64.62883,18.361772 C65.27584,19.008776 65.59934,19.821692 65.59934,20.800496 C65.59934,21.91202 64.95233,22.766396 63.65832,23.363636 C62.66292,23.87792 61.48504,24.135068 60.12466,24.135068 C58.74769,24.135068 57.56152,23.87792 56.56613,23.363636 C55.27211,22.782992 54.6251,21.953492 54.6251,20.875148 C54.6251,20.277908 54.7993,19.780208 55.14768,19.382048 C55.49608,18.9839 55.84446,18.710156 56.19284,18.560852 L56.46659,18.411548 C55.86935,17.897252 55.57073,17.200484 55.57073,16.321208 C55.57073,15.54148 55.81128,14.83641 56.29238,14.20599 C55.56244,13.47604 55.19746,12.65484 55.19746,11.74239 C55.19746,10.69723 55.6122,9.81796 56.4417,9.10459 C57.2712,8.39122 58.27488,8.02624 59.45276,8.00966 C60.29886,8.00966 61.08688,8.22532 61.81684,8.65666 L62.09057,8.83086 L62.09057,8.83086 Z M61.34402,10.47326 C61.26107,10.00874 61.0454,9.64376 60.69702,9.37833 C60.34862,9.11289 59.91728,8.97187 59.403,8.95528 C58.9219,8.95528 58.50714,9.088 58.15876,9.35344 C57.81037,9.61888 57.5947,9.99216 57.51175,10.47326 C57.46198,10.7553 57.43709,11.17833 57.43709,11.74239 C57.43709,12.47235 57.49516,13.01152 57.61129,13.35991 C57.72742,13.7083 57.97627,13.99862 58.35784,14.23088 C58.63986,14.39678 58.99655,14.47974 59.42789,14.47974 C59.79287,14.47974 60.10807,14.42167 60.37351,14.30553 C60.63895,14.18941 60.82974,14.04009 60.94586,13.85761 C61.06199,13.67512 61.15324,13.50922 61.2196,13.35991 C61.28596,13.2106 61.32743,13.08618 61.34402,12.98664 C61.39379,12.7212 61.41868,12.30645 61.41868,11.74239 C61.41868,11.17833 61.39379,10.7553 61.34402,10.47326 L61.34402,10.47326 Z M63.93205,20.875148 C63.93205,20.460404 63.81592,20.1203 63.58366,19.854872 C63.35141,19.589432 63.0113,19.398644 62.56338,19.28252 C62.11546,19.166384 61.709,19.091732 61.34402,19.058552 C60.97904,19.025372 60.53112,19.008776 60.00024,19.008776 L59.32835,19.008776 C58.21682,19.008776 57.55322,19.058552 57.33755,19.158092 C57.00576,19.307396 56.74861,19.539656 56.56613,19.854872 C56.38363,20.170076 56.28409,20.501876 56.26751,20.85026 C56.26751,21.01616 56.31727,21.206948 56.41681,21.422612 C56.51635,21.638288 56.69054,21.887132 56.9394,22.169156 C57.18824,22.451192 57.5864,22.683452 58.13387,22.865936 C58.68134,23.048432 59.34493,23.147972 60.12466,23.164556 C61.26937,23.164556 62.19011,22.932296 62.88689,22.467776 C63.58366,22.003268 63.93205,21.472388 63.93205,20.875148 L63.93205,20.875148 Z" id="Fill-7"></path>
                    <path d="M67.04266,13.58388 C67.04266,12.67143 67.20856,11.84193 67.54036,11.09539 C67.87216,10.34884 68.28691,9.7433 68.7846,9.27879 C69.2823,8.81427 69.82147,8.46588 70.40213,8.23363 C70.98277,8.00137 71.53024,7.87694 72.04452,7.86034 C72.9238,7.86034 73.67863,8.00966 74.30905,8.30828 C74.93947,8.6069 75.42058,9.02164 75.75238,9.55252 C76.08418,10.0834 76.31644,10.61427 76.44916,11.14515 C76.58188,11.67603 76.65653,12.26498 76.67311,12.91198 C76.67311,13.02811 76.61506,13.14424 76.49892,13.26037 L69.48138,13.26037 L69.48138,13.63364 C69.48138,16.088948 70.31088,17.582048 71.96987,18.112928 C72.30167,18.212468 72.66665,18.262232 73.06481,18.262232 C73.76159,18.262232 74.35882,17.996792 74.85652,17.465912 C75.13855,17.183888 75.36251,16.835504 75.52841,16.420748 L75.77726,15.82352 C75.82703,15.77374 75.95975,15.74886 76.17541,15.74886 L76.25008,15.74886 C76.5321,15.74886 76.67311,15.83181 76.67311,15.99771 C76.67311,16.064072 76.64824,16.171904 76.59846,16.321208 C76.28326,17.233664 75.76067,17.95532 75.03071,18.4862 C74.30076,19.01708 73.47955,19.28252 72.56711,19.28252 C70.99106,19.28252 69.68046,18.710156 68.6353,17.565452 C67.59013,16.420748 67.05925,15.09356 67.04266,13.58388 L67.04266,13.58388 Z M74.63255,12.16544 C74.45006,10.04192 73.66205,8.91381 72.26849,8.78109 L72.21872,8.78109 C72.086,8.78109 71.95328,8.78938 71.82056,8.80598 C71.68784,8.82256 71.48047,8.88892 71.19844,9.00505 C70.91641,9.12118 70.67586,9.29538 70.47678,9.52764 C70.2777,9.7599 70.08691,10.09999 69.90443,10.54791 C69.72193,10.99585 69.58921,11.54331 69.50627,12.19032 L69.50627,12.36452 L74.63255,12.36452 L74.63255,12.16544 L74.63255,12.16544 Z" id="Fill-8"></path>
                    <path d="M78.06667,8.50736 C78.94594,8.441 79.62612,7.97648 80.10724,7.1138 C80.58834,6.25112 80.85378,5.23914 80.90354,4.07785 L80.90354,3.70458 L81.89894,3.70458 L81.89894,8.28339 L85.2584,8.28339 L85.2584,9.4281 L81.89894,9.4281 L81.89894,13.01152 C81.91553,15.08527 81.92383,16.254848 81.92383,16.520288 C81.92383,16.785728 81.98189,17.051168 82.09802,17.316608 C82.33028,17.963612 82.73674,18.28712 83.31738,18.28712 C84.04734,18.28712 84.49526,17.698172 84.66116,16.520288 C84.67776,16.387568 84.68605,16.006004 84.68605,15.37558 L84.68605,14.50461 L85.68145,14.50461 L85.68145,15.37558 L85.68145,15.6742 C85.68145,16.951628 85.33306,17.92214 84.63628,18.58574 C84.18835,19.033664 83.60771,19.257632 82.89434,19.257632 C82.33028,19.257632 81.84088,19.158092 81.42613,18.959012 C81.01138,18.759932 80.69617,18.502784 80.48051,18.18758 C80.26483,17.872376 80.10724,17.582048 80.0077,17.316608 C79.90816,17.051168 79.85009,16.785728 79.83349,16.520288 C79.81691,16.404164 79.80862,15.1765 79.80862,12.83733 L79.80862,9.4281 L77.8427,9.4281 L77.8427,8.50736 L78.06667,8.50736 L78.06667,8.50736 Z" id="Fill-9"></path>
                </g>
            </g>
            <g id="next_c-node" transform="translate(248.000000, 201.000000)" sketch:type="MSShapeGroup">
                <g id="sigmoid_chunk-node-copy-3" stroke="#979797">
                    <ellipse id="Oval-23-Copy-2" cx="64" cy="34.5" rx="64" ry="34.5"></ellipse>
                </g>
                <g id="Imported-Layers" transform="translate(27.300000, 23.700000)" fill="#000000">
                    <path d="M1.825453,15.173308 L2.17611,15.173308 C2.82733,15.173308 3.219732,15.056428 3.353316,14.822656 L3.353316,14.62228 L3.353316,14.046196 L3.353316,13.269748 C3.353316,12.985876 3.361668,12.660268 3.37836,12.292912 C3.395064,11.92557 3.395064,11.5749 3.37836,11.24094 L3.37836,9.58785 C3.37836,9.00342 3.370008,8.51084 3.353316,8.11008 L3.353316,7.534 C3.303216,7.21674 3.186336,7.00802 3.002664,6.90783 C2.818981,6.80764 2.443278,6.73251 1.875547,6.68241 L1.424704,6.68241 L1.424704,6.10634 C1.424704,5.72228 1.441402,5.53025 1.474798,5.53025 L1.725266,5.50521 C1.892245,5.4885 2.126017,5.47181 2.42658,5.45511 C2.727143,5.43842 3.03606,5.42171 3.353316,5.40502 C3.637176,5.38832 3.93774,5.37162 4.255008,5.35492 C4.572264,5.33823 4.814388,5.31318 4.981368,5.27979 C5.148348,5.24639 5.240184,5.23804 5.256876,5.25473 L5.33202,5.25473 L5.33202,6.25661 C5.33202,6.89114 5.340372,7.20839 5.357064,7.20839 C5.373768,7.20839 5.415516,7.16666 5.482296,7.08316 C5.549088,6.99968 5.649276,6.87443 5.78286,6.70745 C5.916444,6.54048 6.075084,6.3902 6.258756,6.25661 C6.442428,6.12303 6.684552,5.9644 6.985116,5.78073 C7.28568,5.59704 7.60294,5.46346 7.9369,5.37998 C8.27086,5.29648 8.69665,5.25473 9.2143,5.25473 C11.11786,5.32152 12.17818,6.26496 12.39524,8.08504 C12.41195,8.20192 12.42029,9.36243 12.42029,11.56655 L12.42029,13.720588 C12.42029,14.355112 12.43699,14.73082 12.47039,14.8477 C12.50378,14.964592 12.59562,15.048076 12.74591,15.098176 C13.09656,15.148264 13.50566,15.173308 13.9732,15.173308 L14.37395,15.173308 L14.37395,16.325464 L14.17357,16.325464 L13.57246,16.30042 C13.1884,16.283728 12.77095,16.275376 12.3201,16.275376 C11.86926,16.275376 11.552,16.267024 11.36832,16.250332 C9.64843,16.250332 8.71336,16.275376 8.56307,16.325464 L8.36269,16.325464 L8.36269,15.173308 L8.76344,15.173308 C9.78202,15.173308 10.29131,15.039724 10.29131,14.772556 C10.308,14.73916 10.31635,13.587004 10.31635,11.31609 C10.29966,9.06186 10.28296,7.86796 10.26626,7.73438 C10.16608,7.26684 9.9991,6.91618 9.76532,6.68241 C9.53155,6.44864 9.33118,6.30671 9.1642,6.25661 C8.99722,6.20652 8.78015,6.18982 8.51298,6.20652 C7.76156,6.20652 7.102,6.49038 6.534276,7.05812 C6.083424,7.50896 5.799564,7.96815 5.682672,8.43569 C5.565792,8.90324 5.499,9.5962 5.482296,10.51458 L5.482296,12.117592 L5.482296,13.6204 C5.482296,14.12134 5.490648,14.4553 5.507352,14.62228 C5.524044,14.78926 5.549088,14.8978 5.582484,14.947888 C5.61588,14.997988 5.691024,15.048076 5.807916,15.098176 C6.158568,15.148264 6.567672,15.173308 7.0352,15.173308 L7.43596,15.173308 L7.43596,16.325464 L7.23558,16.325464 L6.659508,16.30042 C6.258756,16.283728 5.83296,16.275376 5.382108,16.275376 C4.931268,16.275376 4.614012,16.267024 4.430328,16.250332 C2.710445,16.250332 1.77536,16.275376 1.625078,16.325464 L1.424704,16.325464 L1.424704,15.173308 L1.825453,15.173308 L1.825453,15.173308 Z" id="Fill-1"></path>
                    <path d="M15.42592,10.86525 C15.42592,9.94685 15.5929,9.11196 15.92686,8.36055 C16.26082,7.60914 16.67827,6.99968 17.1792,6.53213 C17.68014,6.06459 18.22283,5.71394 18.80725,5.48016 C19.39168,5.24639 19.94272,5.12115 20.46035,5.10446 C21.34534,5.10446 22.10509,5.25473 22.73962,5.5553 C23.37414,5.85586 23.85838,6.27332 24.19234,6.80764 C24.5263,7.34198 24.76007,7.87631 24.89365,8.41065 C25.02724,8.94498 25.10238,9.53776 25.11907,10.18898 C25.11907,10.30587 25.06063,10.42275 24.94374,10.53964 L17.88052,10.53964 L17.88052,10.91534 C17.88052,13.386628 18.71542,14.889448 20.3852,15.423784 C20.71916,15.523972 21.08652,15.57406 21.48727,15.57406 C22.18859,15.57406 22.78972,15.306892 23.29064,14.772556 C23.57452,14.488696 23.79994,14.138044 23.96692,13.720588 L24.21738,13.11946 C24.26748,13.069372 24.40106,13.044328 24.61813,13.044328 L24.69328,13.044328 C24.97714,13.044328 25.11907,13.127812 25.11907,13.294792 C25.11907,13.361584 25.09403,13.470124 25.04393,13.6204 C24.72667,14.538784 24.20069,15.265144 23.46598,15.79948 C22.73126,16.333816 21.90472,16.600984 20.98633,16.600984 C19.40003,16.600984 18.08089,16.0249 17.02892,14.872744 C15.97696,13.720588 15.44262,12.38476 15.42592,10.86525 L15.42592,10.86525 Z M23.06522,9.43757 C22.88155,7.30024 22.0884,6.16478 20.68577,6.03119 L20.63568,6.03119 C20.5021,6.03119 20.36851,6.03954 20.23493,6.05624 C20.10134,6.07294 19.89262,6.13973 19.60876,6.25661 C19.32488,6.3735 19.08277,6.54882 18.8824,6.7826 C18.68202,7.01637 18.49,7.35868 18.30631,7.80952 C18.12264,8.26036 17.98906,8.8114 17.90556,9.46262 L17.90556,9.63795 L23.06522,9.63795 L23.06522,9.43757 L23.06522,9.43757 Z" id="Fill-3"></path>
                    <path d="M30.87986,16.325464 C30.67949,16.275376 29.85294,16.250332 28.40022,16.250332 C27.13117,16.250332 26.42152,16.275376 26.27123,16.325464 L26.12095,16.325464 L26.12095,15.173308 L26.4716,15.173308 C26.85566,15.156616 27.20632,15.106516 27.52357,15.023032 C27.84084,14.939536 28.08295,14.864404 28.24993,14.797612 C28.41691,14.73082 28.62564,14.588884 28.8761,14.371816 C29.12658,14.154736 29.27686,14.00446 29.32696,13.920964 C29.37704,13.83748 29.55238,13.6204 29.85294,13.269748 C30.1535,12.919084 30.32048,12.685324 30.35388,12.568432 L31.50604,11.06562 L30.05332,9.11196 C29.90303,8.89488 29.7444,8.66946 29.57742,8.43569 C29.41044,8.20192 29.27686,8.0266 29.17667,7.90971 C29.07648,7.79283 28.98464,7.66758 28.90116,7.534 C28.81766,7.40043 28.74252,7.30024 28.67573,7.23345 C28.60894,7.16666 28.55885,7.1082 28.52545,7.05812 C28.49206,7.00802 28.43362,6.95793 28.35012,6.90783 C28.26664,6.85774 28.21654,6.8327 28.19984,6.8327 C28.18314,6.8327 28.13305,6.81599 28.04956,6.7826 C27.96607,6.7492 27.89928,6.73251 27.84918,6.73251 C27.749,6.73251 27.44844,6.7158 26.9475,6.68241 L26.24618,6.68241 L26.24618,5.53025 L26.42152,5.53025 C27.02263,5.56365 27.88258,5.58035 29.00135,5.58035 C30.55426,5.58035 31.4142,5.56365 31.58118,5.53025 L31.78154,5.53025 L31.78154,6.68241 C31.18043,6.7492 30.87986,6.88278 30.87986,7.08316 C30.87986,7.11656 30.96335,7.25014 31.13033,7.48391 C31.29731,7.71768 31.53108,8.03494 31.83164,8.43569 C32.13221,8.83644 32.37433,9.17876 32.558,9.46262 L32.65819,9.5628 L33.28436,8.71121 C33.8187,8.0266 34.08587,7.57575 34.08587,7.35868 C34.08587,7.25849 34.06916,7.16666 34.03577,7.08316 C34.00237,6.99968 33.96062,6.94122 33.91054,6.90783 C33.86045,6.87443 33.8187,6.84104 33.7853,6.80764 C33.75191,6.77424 33.69347,6.74085 33.60997,6.70745 L33.53483,6.68241 L33.4096,6.68241 L33.4096,5.53025 L33.58493,5.53025 C33.83539,5.58035 34.66194,5.6054 36.06457,5.6054 C37.38371,5.6054 38.09336,5.58035 38.19355,5.53025 L38.34384,5.53025 L38.34384,6.68241 L38.16851,6.68241 C37.35031,6.68241 36.67404,6.82434 36.13972,7.1082 C35.85584,7.24179 35.57198,7.46721 35.28811,7.78448 C35.00425,8.10173 34.46156,8.80305 33.66007,9.88841 L33.25932,10.4144 L34.81223,12.543388 C35.91428,14.046196 36.50706,14.831008 36.59056,14.8978 C36.67404,14.964592 36.81598,15.023032 37.01635,15.07312 C37.31692,15.139912 37.75942,15.173308 38.34384,15.173308 L38.76964,15.173308 L38.76964,16.325464 L38.61935,16.325464 L38.41898,16.325464 C38.2854,16.308772 38.11842,16.30042 37.91804,16.30042 C37.71767,16.30042 37.50894,16.292068 37.29187,16.275376 C37.07479,16.258672 36.86608,16.258672 36.6657,16.275376 C36.46532,16.292068 36.31504,16.283728 36.21485,16.250332 L35.28811,16.250332 C34.85396,16.250332 34.43652,16.267024 34.03577,16.30042 L33.4597,16.325464 L33.23426,16.325464 L33.23426,15.173308 L33.30941,15.173308 C33.49309,15.173308 33.67676,15.131572 33.86045,15.048076 C34.04412,14.964592 34.13596,14.864404 34.13596,14.747512 C34.13596,14.714116 33.802,14.238232 33.13409,13.319836 L32.10716,11.94226 C32.09046,11.95896 31.83164,12.309616 31.3307,12.994228 C30.82976,13.67884 30.5459,14.054548 30.47911,14.12134 C30.41232,14.204836 30.37892,14.321716 30.37892,14.471992 C30.37892,14.655676 30.43736,14.814304 30.55426,14.947888 C30.67114,15.081472 30.82142,15.156616 31.0051,15.173308 C31.03849,15.173308 31.05518,15.365332 31.05518,15.749392 L31.05518,16.325464 L30.87986,16.325464 L30.87986,16.325464 Z" id="Fill-4"></path>
                    <path d="M39.74646,5.75567 C40.63146,5.68888 41.31607,5.22134 41.80031,4.35305 C42.28456,3.48476 42.55171,2.46618 42.60181,1.29732 L42.60181,0.92163 L43.60369,0.92163 L43.60369,5.53025 L46.98502,5.53025 L46.98502,6.68241 L43.60369,6.68241 L43.60369,10.28916 C43.62038,12.376408 43.62874,13.553608 43.62874,13.820776 C43.62874,14.087944 43.68718,14.355112 43.80407,14.62228 C44.03783,15.273496 44.44693,15.599104 45.03136,15.599104 C45.76607,15.599104 46.21692,15.006328 46.38389,13.820776 C46.40059,13.687192 46.40894,13.303144 46.40894,12.66862 L46.40894,11.79198 L47.41081,11.79198 L47.41081,12.66862 L47.41081,12.969184 C47.41081,14.254924 47.06016,15.231748 46.35884,15.899668 C45.908,16.35052 45.32358,16.57594 44.60556,16.57594 C44.03783,16.57594 43.54524,16.475752 43.1278,16.275376 C42.71035,16.075 42.39308,15.816184 42.17602,15.498916 C41.95894,15.18166 41.80031,14.889448 41.70012,14.62228 C41.59993,14.355112 41.54149,14.087944 41.5248,13.820776 C41.5081,13.703896 41.49974,12.468244 41.49974,10.11383 L41.49974,6.68241 L39.52104,6.68241 L39.52104,5.75567 L39.74646,5.75567 L39.74646,5.75567 Z" id="Fill-5"></path>
                    <path d="M48.81344,17.878372 L48.81344,16.951636 L61.31185,16.951636 L61.31185,17.878372 L48.81344,17.878372 L48.81344,17.878372 Z" id="Fill-6"></path>
                    <path d="M70.60424,8.68617 L70.07826,8.68617 C69.72761,8.68617 69.42704,8.56092 69.17658,8.31046 C68.9261,8.06 68.79252,7.74273 68.77583,7.35868 C68.77583,6.97462 68.90106,6.65736 69.15152,6.4069 C69.23502,6.3234 69.27677,6.27332 69.27677,6.25661 C69.27677,6.23992 69.19327,6.22322 69.02629,6.20652 C68.59214,6.13973 68.18305,6.10634 67.79899,6.10634 C66.9808,6.10634 66.31288,6.3735 65.79524,6.90783 C65.01044,7.69264 64.61804,9.00342 64.61804,10.84019 C64.61804,12.209428 64.87686,13.28644 65.39449,14.071252 C66.0791,15.089824 66.9975,15.599104 68.14966,15.599104 C68.83427,15.599104 69.3853,15.382036 69.80275,14.947888 C70.2202,14.51374 70.52076,13.996108 70.70443,13.39498 C70.73783,13.261396 70.77958,13.177912 70.82968,13.144516 C70.87976,13.11112 71.01335,13.094416 71.23042,13.094416 L71.58108,13.094416 C71.68127,13.194604 71.73136,13.269748 71.73136,13.319836 C71.73136,13.386628 71.69796,13.520212 71.63117,13.720588 C71.56438,13.920964 71.43079,14.196484 71.23042,14.547136 C71.03004,14.8978 70.78793,15.215056 70.50406,15.498916 C70.2202,15.782788 69.81944,16.041604 69.30181,16.275376 C68.78417,16.509148 68.2081,16.617688 67.57357,16.600984 C66.13756,16.600984 64.8852,16.066648 63.81654,14.997988 C62.74787,13.929316 62.20519,12.585136 62.18849,10.96544 C62.18849,9.22884 62.73118,7.81787 63.81654,6.73251 C64.9019,5.64714 66.1626,5.10446 67.59862,5.10446 C69.03464,5.10446 70.03652,5.32988 70.60424,5.78073 C71.17198,6.23157 71.45585,6.7659 71.45585,7.38372 C71.45585,7.76777 71.31391,8.07669 71.03004,8.31046 L70.60424,8.68617 Z" id="Fill-7"></path>
                </g>
            </g>
            <path d="M311,271 L311,300" id="Line-Copy-37" stroke="#979797" stroke-linecap="square" fill="#979797" sketch:type="MSShapeGroup"></path>
            <path id="Line-Copy-37-decoration-1" d="M311,300 L314,289.2 L308,289.2 L311,300 Z" stroke="#979797" stroke-linecap="square" fill="#979797"></path>
            <path d="M311,372 L252.5,425.5" id="Line-Copy-38" stroke="#979797" stroke-linecap="square" fill="#979797" sketch:type="MSShapeGroup"></path>
            <path id="Line-Copy-38-decoration-1" d="M252.5,425.5 L262.494344,420.42525 L258.44514,415.997615 L252.5,425.5 Z" stroke="#979797" stroke-linecap="square" fill="#979797"></path>
            <path d="M188.5,47 L188.5,390.5" id="Line-Copy-31" stroke="#979797" stroke-linecap="round" fill="#979797" sketch:type="MSShapeGroup"></path>
            <path id="Line-Copy-31-decoration-1" d="M188.5,390.5 L191.5,379.7 L185.5,379.7 L188.5,390.5 Z" stroke="#979797" stroke-linecap="round" fill="#979797"></path>
            <g id="c_transform-node" transform="translate(248.000000, 302.000000)" sketch:type="MSShapeGroup">
                <g id="sigmoid_chunk-node-copy-4" stroke="#979797">
                    <ellipse id="Oval-23-Copy-2" cx="64" cy="34.5" rx="64" ry="34.5"></ellipse>
                </g>
                <g id="Imported-Layers" transform="translate(9.000000, 23.000000)" fill="#000000">
                    <path d="M8.32596784,9.68374167 L7.88229327,9.68374167 C7.58651023,9.68374167 7.3329807,9.579925 7.1216962,9.37229167 C6.91042865,9.16465 6.79774415,8.90165 6.78365965,8.58328333 C6.78365965,8.26491667 6.88929766,8.00191667 7.10057368,7.79428333 C7.1709962,7.725075 7.2062117,7.68354167 7.2062117,7.6697 C7.2062117,7.65585 7.13578918,7.64201667 6.99493567,7.628175 C6.62873012,7.5728 6.2836386,7.545125 5.95968655,7.545125 C5.26951368,7.545125 4.70612,7.76659167 4.26948175,8.20954167 C3.60747789,8.86013333 3.27648105,9.94674167 3.27648105,11.4693833 C3.27648105,12.6044433 3.49480526,13.4972633 3.93143333,14.1478533 C4.50893018,14.9922233 5.28360667,15.4144133 6.25546959,15.4144133 C6.83295965,15.4144133 7.2977652,15.2344633 7.64989474,14.8745633 C8.00201579,14.5146733 8.25554532,14.0855633 8.41047485,13.5872433 C8.43865234,13.4765033 8.47385936,13.4072933 8.51612135,13.3796033 C8.55837485,13.3519233 8.67105936,13.3380833 8.85415789,13.3380833 L9.14994942,13.3380833 C9.23445643,13.4211333 9.27670994,13.4834233 9.27670994,13.5249533 C9.27670994,13.5803233 9.24854942,13.6910533 9.19220292,13.8571633 C9.13586491,14.0232733 9.02318041,14.2516633 8.85415789,14.5423533 C8.68514386,14.8330433 8.48091433,15.0960433 8.24146082,15.3313633 C8.00201579,15.5666733 7.66397924,15.7812333 7.22734269,15.9750233 C6.79069766,16.1688133 6.30476959,16.2587833 5.76953474,16.2449433 C4.55822,16.2449433 3.50184667,15.8019933 2.60040456,14.9160933 C1.69895822,14.0301933 1.24119406,12.9158933 1.22710871,11.5732 C1.22710871,10.1336167 1.68487371,8.96394167 2.60040456,8.0642 C3.51592947,7.16446667 4.57935439,6.71458333 5.79066912,6.71458333 C7.00198216,6.71458333 7.84708626,6.90145 8.32596784,7.27519167 C8.80486637,7.64893333 9.04430292,8.09188333 9.04430292,8.60405 C9.04430292,8.922425 8.92458889,9.1785 8.68514386,9.37229167 L8.32596784,9.68374167 Z" id="Fill-1"></path>
                    <path d="M9.8894155,17.3038733 L9.8894155,16.5356333 L20.4320687,16.5356333 L20.4320687,17.3038733 L9.8894155,17.3038733 L9.8894155,17.3038733 Z" id="Fill-3"></path>
                    <path d="M21.0236433,7.25443333 C21.7701474,7.19906667 22.3476374,6.81148333 22.756105,6.09169167 C23.1645725,5.37189167 23.389933,4.527525 23.4321865,3.55856667 L23.4321865,3.24711667 L24.2772822,3.24711667 L24.2772822,7.06756667 L27.1295085,7.06756667 L27.1295085,8.022675 L24.2772822,8.022675 L24.2772822,11.0125917 C24.2913751,12.7428633 24.2984216,13.7187433 24.2984216,13.9402133 C24.2984216,14.1616933 24.3477216,14.3831633 24.4463047,14.6046433 C24.6434962,15.1444933 24.9885877,15.4144133 25.4815538,15.4144133 C26.1013058,15.4144133 26.4815959,14.9230133 26.6224494,13.9402133 C26.6365339,13.8294833 26.6435719,13.5111133 26.6435719,12.9851033 L26.6435719,12.2583917 L27.4886845,12.2583917 L27.4886845,12.9851033 L27.4886845,13.2342633 C27.4886845,14.3001133 27.192893,15.1098833 26.6013269,15.6635733 C26.2210284,16.0373133 25.7280453,16.2241833 25.1223947,16.2241833 C24.6434962,16.2241833 24.2279906,16.1411233 23.8758611,15.9750233 C23.5237401,15.8089133 23.256126,15.5943633 23.073019,15.3313633 C22.889912,15.0683533 22.756105,14.8261133 22.6715895,14.6046433 C22.5870825,14.3831633 22.5377825,14.1616933 22.523698,13.9402133 C22.5096135,13.8433233 22.5025754,12.8190033 22.5025754,10.86725 L22.5025754,8.022675 L20.8334982,8.022675 L20.8334982,7.25443333 L21.0236433,7.25443333 L21.0236433,7.25443333 Z" id="Fill-4"></path>
                    <path d="M29.4324137,15.0614333 L29.7282053,15.0614333 C30.2775178,15.0614333 30.6085164,14.9645433 30.7211924,14.7707533 L30.7211924,14.6046433 L30.7211924,14.1270833 C30.7211924,13.9332933 30.7282389,13.7187433 30.7423319,13.4834233 C30.7564164,13.2481033 30.7564164,12.9781833 30.7423319,12.6736533 C30.7282389,12.369125 30.7282389,12.0784417 30.7423319,11.8015917 L30.7423319,10.431225 L30.7423319,9.20618333 L30.7211924,8.72863333 C30.6789474,8.465625 30.5803474,8.2926 30.4254178,8.20954167 C30.2704713,8.12649167 29.9535573,8.0642 29.4746757,8.022675 L29.0943772,8.022675 L29.0943772,7.545125 C29.0943772,7.22675 29.1084617,7.06756667 29.1366222,7.06756667 L29.3479067,7.0468 C29.4887602,7.03296667 29.6859433,7.01911667 29.9394813,7.005275 C30.1930108,6.99143333 30.4465404,6.97759167 30.7000699,6.96374167 C30.9254304,6.9499 31.1719135,6.93606667 31.4395275,6.922225 C31.7071585,6.90838333 31.911388,6.88761667 32.052233,6.85993333 C32.1930865,6.83224167 32.2705471,6.825325 32.2846401,6.83916667 L32.3480246,6.83916667 L32.3480246,8.27183333 C32.8973371,7.33056667 33.5804652,6.85993333 34.3974003,6.85993333 L34.5241608,6.85993333 C35.1579889,6.85993333 35.6227944,7.01219167 35.9185775,7.316725 C36.214369,7.62125 36.362252,7.939625 36.362252,8.27183333 C36.362252,8.562525 36.270707,8.81168333 36.0876,9.01931667 C35.904493,9.22694167 35.6368789,9.33076667 35.2847579,9.33076667 C34.9326284,9.33076667 34.6720523,9.220025 34.5030298,8.99855 C34.3340158,8.777075 34.2424538,8.54176667 34.2283778,8.2926 C34.2283778,8.168025 34.2424538,8.05728333 34.2706313,7.96038333 C34.2988003,7.86349167 34.3340158,7.78043333 34.3762608,7.711225 C34.4185228,7.64201667 34.4396453,7.60741667 34.4396453,7.60741667 C34.4114848,7.579725 34.2495003,7.60741667 33.9537173,7.69046667 C33.7283567,7.8012 33.5593427,7.90501667 33.4466582,8.00191667 C32.7846526,8.62481667 32.4536541,9.86369167 32.4536541,11.7185417 L32.4536541,12.8190033 L32.4536541,13.3796033 L32.4536541,13.9194533 C32.4536541,14.0855633 32.4607006,14.2239833 32.4747936,14.3347233 C32.4888696,14.4454533 32.4888696,14.5492733 32.4747936,14.6461733 L32.4747936,14.7499833 C32.4888696,14.7776733 32.5100006,14.8053533 32.5381696,14.8330433 C32.5663386,14.8607233 32.6015541,14.8814833 32.6438076,14.8953333 C32.6860611,14.9091733 32.7212681,14.9299333 32.7494456,14.9576233 C32.7776146,14.9853033 32.8269146,14.9991433 32.8973371,14.9991433 C32.9677596,14.9991433 33.0170596,15.0060633 33.0452371,15.0199133 C33.0733977,15.0337533 33.1367822,15.0406733 33.2353737,15.0406733 L33.4255187,15.0406733 C33.4536962,15.0406733 33.5241187,15.0475933 33.6368032,15.0614333 C33.7494877,15.0752733 33.8199102,15.0752733 33.8480792,15.0614333 L34.5030298,15.0614333 L34.5030298,16.0165433 L34.3128848,16.0165433 C34.0593468,15.9750233 33.1649512,15.9542533 31.629681,15.9542533 C30.1789263,15.9542533 29.3901602,15.9750233 29.2633912,16.0165433 L29.0943772,16.0165433 L29.0943772,15.0614333 L29.4324137,15.0614333 L29.4324137,15.0614333 Z" id="Fill-5"></path>
                    <path d="M39.8483064,9.68374167 L39.3835094,9.68374167 C39.0736333,9.68374167 38.8130573,9.579925 38.6017813,9.37229167 C38.3905053,9.16465 38.2848673,8.89473333 38.2848673,8.562525 C38.2848673,8.07804167 38.5243123,7.64893333 39.0032108,7.27519167 C39.4820924,6.90145 40.3342345,6.71458333 41.5596456,6.71458333 C42.5878567,6.71458333 43.4188678,6.93606667 44.0526959,7.37901667 C44.6865155,7.82196667 45.109076,8.34796667 45.3203436,8.957025 C45.3907661,9.15081667 45.4259901,9.365375 45.4259901,9.60068333 C45.4259901,9.836 45.4330281,10.6319333 45.4471126,11.9884667 L45.4471126,13.4418933 C45.4471126,14.1063233 45.4823281,14.5631133 45.5527506,14.8122733 C45.6231731,15.0614333 45.7710646,15.1860133 45.9964336,15.1860133 C46.2077012,15.1860133 46.3485547,15.0752733 46.4189857,14.8538033 C46.4894082,14.6323233 46.5246152,14.2655133 46.5246152,13.7533433 L46.5246152,13.0058733 L47.3697193,13.0058733 L47.3697193,13.8156333 C47.3556348,14.3693233 47.3345123,14.6946133 47.3063348,14.7915133 C47.1795743,15.2067833 46.9330912,15.5320733 46.5668772,15.7673833 C46.2006632,16.0027033 45.8133266,16.1272833 45.4048591,16.1411233 C44.9963915,16.1549733 44.665393,16.0303933 44.4118635,15.7673833 C44.1583339,15.5043833 43.9893199,15.2137033 43.9047959,14.8953333 L43.9047959,14.8122733 L43.8625509,14.8745633 C43.8343734,14.9160933 43.7991664,14.9576233 43.7569129,14.9991433 C43.7146509,15.0406733 43.6583129,15.1029633 43.5878819,15.1860133 C43.5174594,15.2690733 43.4329523,15.3452033 43.3343523,15.4144133 C43.2357608,15.4836233 43.1301228,15.5666733 43.0174383,15.6635733 C42.9047708,15.7604633 42.7780018,15.8366033 42.6371398,15.8919633 C42.4962947,15.9473333 42.3413652,16.0027033 42.1723427,16.0580733 C42.0033287,16.1134433 41.8202216,16.1549733 41.6230301,16.1826533 C41.4258301,16.2103333 41.2075161,16.2311033 40.9680626,16.2449433 C40.122967,16.2449433 39.3623699,16.0303933 38.6862968,15.6012833 C38.0102067,15.1721733 37.6721702,14.5700333 37.6721702,13.7948733 C37.6721702,13.5041833 37.7214702,13.2273433 37.8200617,12.9643433 C37.9186617,12.7013433 38.1088067,12.417575 38.3905053,12.1130417 C38.6722038,11.8085167 39.0102488,11.5524333 39.4046319,11.3448 C39.7990064,11.137175 40.3483275,10.9433833 41.0525865,10.7634333 C41.7568371,10.5834833 42.5315102,10.4796667 43.3766143,10.4519833 L43.6724058,10.4519833 L43.6724058,9.99519167 C43.6724058,9.52455 43.6301439,9.1785 43.5456368,8.957025 C43.2357608,7.974225 42.5526327,7.48283333 41.4962611,7.48283333 C41.2427316,7.48283333 41.0032865,7.48975 40.7779175,7.50359167 C40.5525655,7.51743333 40.3764965,7.545125 40.2497275,7.58664167 C40.122967,7.628175 40.0666205,7.64893333 40.080705,7.64893333 C40.390581,7.856575 40.545519,8.16109167 40.545519,8.562525 C40.545519,8.908575 40.4328345,9.1785 40.207474,9.37229167 L39.8483064,9.68374167 Z M39.6158994,13.8156333 C39.6158994,14.2447433 39.7849304,14.6254033 40.122967,14.9576233 C40.4610035,15.2898333 40.8765175,15.4628633 41.3695006,15.4767033 C41.9047287,15.4767033 42.3765722,15.3175133 42.7850398,14.9991433 C43.1935073,14.6807733 43.4681594,14.2655133 43.6090213,13.7533433 C43.6371819,13.6564533 43.6583129,13.1996633 43.6724058,12.382975 C43.6724058,11.580125 43.6653594,11.1786917 43.6512664,11.1786917 C43.5385988,11.1786917 43.3906988,11.185625 43.2075918,11.1994667 C43.0244848,11.2133 42.7075792,11.2755917 42.2568497,11.3863333 C41.8061287,11.497075 41.3976611,11.6354917 41.0314471,11.8015917 C40.6652415,11.9677 40.3412895,12.2237833 40.0595825,12.5698433 C39.7778839,12.9158933 39.6299839,13.3311633 39.6158994,13.8156333 L39.6158994,13.8156333 Z" id="Fill-6"></path>
                    <path d="M48.3838459,15.0614333 L48.6796374,15.0614333 C49.2289415,15.0614333 49.5599485,14.9645433 49.6726246,14.7707533 L49.6726246,14.6046433 L49.6726246,14.1270833 L49.6726246,13.4834233 C49.6726246,13.2481033 49.6796626,12.9781833 49.6937556,12.6736533 C49.7078401,12.369125 49.7078401,12.0784417 49.6937556,11.8015917 L49.6937556,10.431225 C49.6937556,9.94674167 49.6867175,9.53839167 49.6726246,9.20618333 L49.6726246,8.72863333 C49.6303795,8.465625 49.5317795,8.2926 49.3768415,8.20954167 C49.2219035,8.12649167 48.9049895,8.0642 48.4260994,8.022675 L48.0458094,8.022675 L48.0458094,7.545125 C48.0458094,7.22675 48.0598854,7.06756667 48.0880629,7.06756667 L48.2993389,7.0468 C48.4401839,7.03296667 48.6373754,7.01911667 48.890905,7.005275 C49.1444345,6.99143333 49.4050105,6.97759167 49.6726246,6.96374167 C49.9120696,6.9499 50.1656076,6.93606667 50.4332216,6.922225 C50.7008357,6.90838333 50.9050737,6.88761667 51.0459187,6.85993333 C51.1867722,6.83224167 51.2642327,6.825325 51.2783173,6.83916667 L51.3417018,6.83916667 L51.3417018,7.6697 C51.3417018,8.1957 51.3487567,8.4587 51.3628327,8.4587 C51.3769173,8.4587 51.4121327,8.4241 51.4684708,8.35489167 C51.5248088,8.285675 51.6093243,8.18186667 51.7220003,8.04344167 C51.8346848,7.90501667 51.9684918,7.78043333 52.1234298,7.6697 C52.2783594,7.55896667 52.4825889,7.42746667 52.7361269,7.27519167 C52.9896564,7.12293333 53.2572705,7.01219167 53.5389775,6.94298333 C53.820676,6.873775 54.1798436,6.83916667 54.6164801,6.83916667 C56.2221813,6.89453333 57.1165769,7.676625 57.2996839,9.185425 C57.3137684,9.28231667 57.3208064,10.24435 57.3208064,12.071525 L57.3208064,13.8571633 C57.3208064,14.3831633 57.3348909,14.6946133 57.3630684,14.7915133 C57.3912374,14.8884033 57.468698,14.9576233 57.595467,14.9991433 C57.8912585,15.0406733 58.236333,15.0614333 58.6307161,15.0614333 L58.9687611,15.0614333 L58.9687611,16.0165433 L58.7997386,16.0165433 L58.2926795,15.9957833 C57.968719,15.9819433 57.616598,15.9750233 57.2362994,15.9750233 C56.8560094,15.9750233 56.5883784,15.9681033 56.4334488,15.9542533 C54.9826857,15.9542533 54.1939281,15.9750233 54.0671591,16.0165433 L53.8981365,16.0165433 L53.8981365,15.0614333 L54.2361901,15.0614333 C55.0953702,15.0614333 55.5249687,14.9506933 55.5249687,14.7292233 C55.5390532,14.7015333 55.5460912,13.7464233 55.5460912,11.8638833 C55.5320067,9.99519167 55.5179222,9.005475 55.5038462,8.89473333 C55.4193222,8.50715 55.2784772,8.21646667 55.0812857,8.022675 C54.8840942,7.82888333 54.7150716,7.711225 54.5742266,7.6697 C54.4333731,7.628175 54.2502661,7.61433333 54.0249056,7.628175 C53.3910775,7.628175 52.8347269,7.86349167 52.3558284,8.334125 C51.9755298,8.70786667 51.7360933,9.088525 51.6374933,9.4761 C51.5389018,9.86369167 51.4825637,10.4381417 51.4684708,11.1994667 L51.4684708,12.5283133 L51.4684708,13.7741133 C51.4684708,14.1893733 51.4755173,14.4662233 51.4896018,14.6046433 C51.5036863,14.7430633 51.5248088,14.8330433 51.5529863,14.8745633 C51.5811468,14.9160933 51.6445313,14.9576233 51.7431313,14.9991433 C52.0389143,15.0406733 52.3840058,15.0614333 52.7783804,15.0614333 L53.116417,15.0614333 L53.116417,16.0165433 L52.9474029,16.0165433 L52.4614664,15.9957833 C52.1234298,15.9819433 51.7642538,15.9750233 51.3839637,15.9750233 C51.0036652,15.9750233 50.7360512,15.9681033 50.5811216,15.9542533 C49.1303585,15.9542533 48.3415924,15.9750233 48.2148319,16.0165433 L48.0458094,16.0165433 L48.0458094,15.0614333 L48.3838459,15.0614333 L48.3838459,15.0614333 Z" id="Fill-7"></path>
                    <path d="M65.4971784,9.45534167 C65.4971784,8.90165 65.3070333,8.4241 64.9267348,8.022675 C64.5464363,7.62125 63.9971152,7.42054167 63.2787801,7.42054167 C62.7717211,7.42054167 62.3350845,7.51051667 61.9688789,7.69046667 C61.5463269,7.95346667 61.3350509,8.31336667 61.3350509,8.77015 C61.3209579,8.83936667 61.3209579,8.92934167 61.3350509,9.040075 C61.3491354,9.15081667 61.4618199,9.316925 61.6730874,9.53839167 C61.8843635,9.759875 62.187193,9.9329 62.581576,10.0574833 C62.8351056,10.1266917 63.1449731,10.1889833 63.5111871,10.24435 C63.8773927,10.2997167 64.1872687,10.362 64.4407982,10.431225 C64.6943278,10.5004333 64.9196968,10.5904 65.1168883,10.7011417 C65.3563333,10.8118833 65.5887319,10.9503 65.8140924,11.1164 C66.0394529,11.2825167 66.2648135,11.5662833 66.490174,11.9677 C66.7155345,12.369125 66.8352655,12.7982333 66.8493415,13.2550233 C66.8493415,14.1132433 66.5817275,14.8191933 66.0464909,15.3728833 C65.5112629,15.9265733 64.6450278,16.2103333 63.4478111,16.2241833 L63.2787801,16.2241833 C62.546369,16.2241833 61.8702789,15.9750233 61.2505354,15.4767033 L61.0815213,15.6220433 L60.8913678,15.8089133 C60.8068523,15.8919633 60.7223453,15.9681033 60.6378383,16.0373133 L60.4054313,16.2449433 L60.2364088,16.2449433 L60.1519018,16.2449433 C60.1096398,16.2449433 60.0462637,16.2034133 59.9617567,16.1203633 L59.9617567,14.4800633 L59.9617567,13.2757933 C59.9617567,12.9851033 59.9758327,12.8120733 60.0040102,12.7567133 C60.0321792,12.7013433 60.1026018,12.6667333 60.2152863,12.6528933 L60.4054313,12.6528933 C60.5744538,12.6528933 60.6871383,12.6805733 60.7434678,12.7359433 C60.7998143,12.7913133 60.8350298,12.8743633 60.8491143,12.9851033 C60.8631988,13.0958433 60.9124988,13.2827133 60.9970058,13.5457133 C61.0815213,13.8087133 61.2153284,14.0994033 61.3984354,14.4177733 C61.8914015,15.1237233 62.5745295,15.4767033 63.4478111,15.4767033 C64.8140503,15.4767033 65.4971784,14.9368533 65.4971784,13.8571633 C65.4971784,13.4557433 65.3704178,13.1304533 65.1168883,12.8812933 C64.8351813,12.5490733 64.2506532,12.2999167 63.3632871,12.1338167 C62.4759295,11.9677 61.8914015,11.8085167 61.6097029,11.65625 C61.1026439,11.4209333 60.7012228,11.1025667 60.4054313,10.7011417 C60.1096398,10.2997167 59.9617567,9.87061667 59.9617567,9.41381667 C59.9617567,8.873975 60.0814792,8.41718333 60.3209243,8.04344167 C60.5603778,7.6697 60.8631988,7.39285 61.2294129,7.2129 C61.5956269,7.03296667 61.947748,6.90838333 62.2857845,6.83916667 C62.6238295,6.76995 62.9337056,6.73535 63.2154041,6.73535 L63.4478111,6.73535 C64.0111997,6.73535 64.5041827,6.83916667 64.9267348,7.0468 L65.2436488,7.2129 L65.4338023,7.06756667 C65.5746474,6.94298333 65.7295769,6.825325 65.8985994,6.71458333 L66.0676304,6.71458333 L66.1521374,6.71458333 C66.1943909,6.71458333 66.2577754,6.75611667 66.3422825,6.83916667 L66.3422825,9.579925 L66.2155135,9.7045 L65.6239474,9.7045 C65.5394319,9.62145 65.4971784,9.53839167 65.4971784,9.45534167 L65.4971784,9.45534167 Z" id="Fill-8"></path>
                    <path d="M73.3566363,16.0165433 C73.1031067,15.9750233 72.2087111,15.9542533 70.6734409,15.9542533 C69.2226778,15.9542533 68.4339117,15.9750233 68.3071512,16.0165433 L68.1381287,16.0165433 L68.1381287,15.0614333 L68.4761652,15.0614333 C68.8705398,15.0614333 69.2156313,15.0406733 69.5114143,14.9991433 C69.6240988,14.9576233 69.7086143,14.8814833 69.7649439,14.7707533 C69.7790368,14.7430633 69.7860749,13.6080033 69.7860749,11.3655667 L69.7860749,8.022675 L68.2860117,8.022675 L68.2860117,7.06756667 L69.7860749,7.06756667 L69.7860749,5.69718333 L69.8072058,4.30604167 L69.8494594,4.09841667 C70.1170734,3.19866667 70.5677944,2.54808333 71.2016225,2.14666667 C71.8354506,1.74523333 72.5044857,1.496075 73.2087363,1.39918333 L73.3988898,1.39918333 C73.5115743,1.39918333 73.6101573,1.39226667 73.6946813,1.378425 C74.2721629,1.41994167 74.7087994,1.59989167 75.0045825,1.91826667 C75.300374,2.23663333 75.4482655,2.59653333 75.4482655,2.99795 C75.4482655,3.316325 75.349674,3.5724 75.1524825,3.7662 C74.9552909,3.95999167 74.6947064,4.05688333 74.3707544,4.05688333 C74.0468023,4.05688333 73.7862263,3.95999167 73.5890348,3.7662 C73.3918433,3.5724 73.2932602,3.316325 73.2932602,2.99795 C73.2932602,2.72111667 73.4200208,2.444275 73.6735418,2.167425 L73.5890348,2.167425 C73.5326968,2.15358333 73.4552278,2.14666667 73.3566363,2.14666667 C72.9622532,2.14666667 72.6101322,2.292 72.3002561,2.58269167 C71.9903801,2.873375 71.7509351,3.25403333 71.5819211,3.724675 C71.4974056,4.00151667 71.448114,4.659025 71.4340211,5.69718333 L71.4340211,7.06756667 L73.7791883,7.06756667 L73.7791883,8.022675 L71.4974056,8.022675 L71.4974056,11.3448 C71.4974056,13.5872433 71.504452,14.7223033 71.5185365,14.7499833 C71.5326211,14.7776733 71.5537436,14.8053533 71.5819211,14.8330433 C71.6100901,14.8607233 71.6453056,14.8814833 71.6875506,14.8953333 C71.7298126,14.9091733 71.7650281,14.9299333 71.7931971,14.9576233 C71.8213661,14.9853033 71.8706576,14.9991433 71.9410801,14.9991433 C72.0115196,14.9991433 72.0608111,15.0060633 72.0889801,15.0199133 C72.1171491,15.0337533 72.1805336,15.0406733 72.2791336,15.0406733 L72.4692787,15.0406733 C72.4974477,15.0406733 72.5678702,15.0475933 72.6805547,15.0614333 C72.7932392,15.0752733 72.8636617,15.0752733 72.8918222,15.0614333 L73.5467813,15.0614333 L73.5467813,16.0165433 L73.3566363,16.0165433 L73.3566363,16.0165433 Z" id="Fill-9"></path>
                    <path d="M74.6454234,11.5732 C74.6454234,10.2581917 75.1031825,9.12313333 76.0187091,8.168025 C76.9342357,7.2129 78.0399158,6.72843333 79.3357409,6.71458333 C80.6033971,6.71458333 81.6949842,7.185225 82.6104854,8.12649167 C83.5260205,9.06776667 83.9908684,10.2097417 84.0049444,11.5524333 C84.0049444,12.8674433 83.5541725,13.9748233 82.6527982,14.8745633 C81.7513222,15.7743133 80.6456421,16.2241833 79.3357409,16.2241833 C77.9694933,16.2241833 76.8497287,15.7604633 75.9764471,14.8330433 C75.1031825,13.9056133 74.6594994,12.8190033 74.6454234,11.5732 L74.6454234,11.5732 Z M79.3357409,15.3936533 C81.0541181,15.3936533 81.9132982,14.2655133 81.9132982,12.0092333 L81.9132982,11.3448 L81.9132982,10.825725 C81.9132982,10.5211917 81.9062602,10.2581917 81.8921757,10.0367167 C81.8780912,9.81524167 81.8287912,9.55224167 81.7442842,9.24771667 C81.6597687,8.94318333 81.5470927,8.694025 81.4062392,8.50023333 C81.2653857,8.30644167 81.0470716,8.11265 80.7512801,7.91886667 C80.4554971,7.725075 80.110414,7.58664167 79.716031,7.50359167 C79.6456085,7.48975 79.532924,7.48283333 79.3779944,7.48283333 C78.9554424,7.48283333 78.5540213,7.56588333 78.1737228,7.73199167 C77.5680637,8.03651667 77.1736807,8.4587 76.9905737,8.99855 C76.8074667,9.53839167 76.7159216,10.1751333 76.7159216,10.908775 L76.7159216,11.3240417 C76.7159216,12.6528933 76.8497287,13.5872433 77.1173427,14.1270833 C77.5680637,14.9714633 78.3075298,15.3936533 79.3357409,15.3936533 L79.3357409,15.3936533 Z" id="Fill-10"></path>
                    <path d="M85.3782047,15.0614333 L85.6739708,15.0614333 C86.2233596,15.0614333 86.5543158,14.9645433 86.6670088,14.7707533 L86.6670088,14.6046433 L86.6670088,14.1270833 C86.6670088,13.9332933 86.6740468,13.7187433 86.6881228,13.4834233 C86.7021988,13.2481033 86.7021988,12.9781833 86.6881228,12.6736533 C86.6740468,12.369125 86.6740468,12.0784417 86.6881228,11.8015917 L86.6881228,10.431225 L86.6881228,9.20618333 L86.6670088,8.72863333 C86.6247807,8.465625 86.5261637,8.2926 86.3712427,8.20954167 C86.2163216,8.12649167 85.8993567,8.0642 85.4205175,8.022675 L85.0402105,8.022675 L85.0402105,7.545125 C85.0402105,7.22675 85.0542865,7.06756667 85.0824386,7.06756667 L85.2937485,7.0468 C85.4345936,7.03296667 85.6317427,7.01911667 85.8852807,7.005275 C86.1388187,6.99143333 86.3923567,6.97759167 86.6458947,6.96374167 C86.8712807,6.9499 87.1176959,6.93606667 87.3853099,6.922225 C87.652924,6.90838333 87.8571959,6.88761667 87.9980409,6.85993333 C88.138886,6.83224167 88.2163889,6.825325 88.2304649,6.83916667 L88.293807,6.83916667 L88.293807,8.27183333 C88.8431111,7.33056667 89.526307,6.85993333 90.3432251,6.85993333 L90.4699942,6.85993333 C91.1037544,6.85993333 91.5686023,7.01219167 91.8643684,7.316725 C92.1601345,7.62125 92.3081023,7.939625 92.3081023,8.27183333 C92.3081023,8.562525 92.2165234,8.81168333 92.0333655,9.01931667 C91.8502924,9.22694167 91.5826784,9.33076667 91.2305234,9.33076667 C90.8784532,9.33076667 90.6178772,9.220025 90.4488801,8.99855 C90.2797982,8.777075 90.1883041,8.54176667 90.1741433,8.2926 C90.1741433,8.168025 90.1883041,8.05728333 90.2164561,7.96038333 C90.2446082,7.86349167 90.2797982,7.78043333 90.3221111,7.711225 C90.3643392,7.64201667 90.3854532,7.60741667 90.3854532,7.60741667 C90.3573012,7.579725 90.1953421,7.60741667 89.8994912,7.69046667 C89.6741901,7.8012 89.5051082,7.90501667 89.3925,8.00191667 C88.7305029,8.62481667 88.399462,9.86369167 88.399462,11.7185417 L88.399462,12.8190033 L88.399462,13.3796033 L88.399462,13.9194533 C88.399462,14.0855633 88.4065,14.2239833 88.420576,14.3347233 C88.434652,14.4454533 88.434652,14.5492733 88.420576,14.6461733 L88.420576,14.7499833 C88.434652,14.7776733 88.4558509,14.8053533 88.4840029,14.8330433 C88.512155,14.8607233 88.547345,14.8814833 88.5896579,14.8953333 C88.631886,14.9091733 88.667076,14.9299333 88.6952281,14.9576233 C88.7234649,14.9853033 88.772731,14.9991433 88.8431111,14.9991433 C88.913576,14.9991433 88.9628421,15.0060633 88.9910789,15.0199133 C89.019231,15.0337533 89.0825731,15.0406733 89.1811901,15.0406733 L89.3713012,15.0406733 C89.399538,15.0406733 89.4699181,15.0475933 89.5826111,15.0614333 C89.6953041,15.0752733 89.7656842,15.0752733 89.7939211,15.0614333 L90.4488801,15.0614333 L90.4488801,16.0165433 L90.2586842,16.0165433 C90.0051462,15.9750233 89.1107251,15.9542533 87.5755058,15.9542533 C86.1247427,15.9542533 85.3359766,15.9750233 85.2092076,16.0165433 L85.0402105,16.0165433 L85.0402105,15.0614333 L85.3782047,15.0614333 L85.3782047,15.0614333 Z" id="Fill-11"></path>
                    <path d="M93.7659035,15.0614333 L94.0616696,15.0614333 C94.6108889,15.0614333 94.9419298,14.9645433 95.0547076,14.7707533 L95.0547076,14.6046433 L95.0547076,14.1270833 L95.0547076,13.4834233 C95.0547076,13.2481033 95.0616608,12.9781833 95.0757368,12.6736533 C95.0898977,12.369125 95.0898977,12.0784417 95.0757368,11.8015917 L95.0757368,10.431225 C95.0757368,9.94674167 95.0686988,9.53839167 95.0547076,9.20618333 L95.0547076,8.72863333 C95.0123099,8.465625 94.9138626,8.2926 94.7588567,8.20954167 C94.6039357,8.12649167 94.2870556,8.0642 93.8081316,8.022675 L93.4278246,8.022675 L93.4278246,7.545125 C93.4278246,7.22675 93.4419006,7.06756667 93.4700526,7.06756667 L93.6813626,7.0468 C93.8222076,7.03296667 94.0193567,7.01911667 94.2728947,7.005275 C94.5264327,6.99143333 94.7870936,6.97759167 95.0547076,6.96374167 C95.2940848,6.9499 95.5477076,6.93606667 95.8153216,6.922225 C96.0829357,6.90838333 96.2871228,6.88761667 96.4279678,6.85993333 C96.5688129,6.83224167 96.646231,6.825325 96.6603918,6.83916667 L96.7237339,6.83916667 L96.7237339,7.6697 C96.7237339,8.1957 96.7307719,8.4587 96.744848,8.4587 C96.758924,8.4587 96.7941988,8.4241 96.8505029,8.35489167 C96.906807,8.285675 96.991348,8.18186667 97.1040409,8.04344167 C97.2167339,7.90501667 97.3505409,7.78043333 97.505462,7.6697 C97.660383,7.55896667 97.864655,7.42746667 98.118193,7.27519167 C98.3716462,7.12293333 98.6392602,7.01219167 98.9210351,6.94298333 C99.2027251,6.873775 99.5619181,6.83916667 99.9985292,6.83916667 C100.209754,6.83916667 100.406988,6.85301667 100.590146,6.88069167 C100.773135,6.90838333 100.935178,6.9499 101.076023,7.005275 C101.216784,7.06064167 101.350591,7.11601667 101.477444,7.17138333 C101.604213,7.22675 101.709784,7.28904167 101.794409,7.35825 C101.878865,7.42746667 101.956368,7.50359167 102.026749,7.58664167 C102.097213,7.6697 102.160556,7.74583333 102.21686,7.81504167 C102.273249,7.88425 102.322599,7.96038333 102.364827,8.04344167 C102.407056,8.12649167 102.435208,8.1957 102.449284,8.251075 C102.463444,8.30644167 102.484474,8.36181667 102.512626,8.41718333 L102.554854,8.52099167 L102.618281,8.43794167 C102.660594,8.382575 102.702822,8.3272 102.74505,8.27183333 C102.787278,8.21646667 102.850705,8.14033333 102.935246,8.04344167 C103.019702,7.94654167 103.111281,7.856575 103.209898,7.77351667 C103.308515,7.69046667 103.414085,7.60049167 103.526863,7.50359167 C103.639471,7.40669167 103.780316,7.32364167 103.949313,7.25443333 C104.11831,7.185225 104.280354,7.11601667 104.435275,7.0468 C104.590196,6.97759167 104.773354,6.92914167 104.984579,6.90145 C105.195889,6.873775 105.414152,6.85301667 105.639538,6.83916667 C107.414304,6.83916667 108.379105,7.62125 108.534111,9.185425 C108.548102,9.28231667 108.55514,10.24435 108.55514,12.071525 L108.55514,13.8571633 C108.55514,14.3831633 108.569301,14.6946133 108.597453,14.7915133 C108.62552,14.8884033 108.703108,14.9576233 108.829792,14.9991433 C109.125558,15.0406733 109.47076,15.0614333 109.865143,15.0614333 L110.203137,15.0614333 L110.203137,16.0165433 L110.03414,16.0165433 L109.548178,15.9957833 C109.210099,15.9819433 108.850906,15.9750233 108.470684,15.9750233 C108.090292,15.9750233 107.822678,15.9681033 107.667842,15.9542533 C106.216994,15.9542533 105.428313,15.9750233 105.301544,16.0165433 L105.132547,16.0165433 L105.132547,15.0614333 L105.470541,15.0614333 C106.329772,15.0614333 106.75926,14.9506933 106.75926,14.7292233 C106.773421,14.7015333 106.780459,13.7464233 106.780459,11.8638833 C106.766383,9.99519167 106.752222,9.005475 106.738231,8.89473333 C106.65369,8.50715 106.512845,8.21646667 106.315611,8.022675 C106.118462,7.82888333 105.94938,7.711225 105.80862,7.6697 C105.667775,7.628175 105.484617,7.61433333 105.259316,7.628175 C104.625471,7.628175 104.069129,7.86349167 103.590205,8.334125 C103.209898,8.70786667 102.970436,9.088525 102.871819,9.4761 C102.773287,9.86369167 102.716898,10.4381417 102.702822,11.1994667 L102.702822,12.5283133 L102.702822,13.7741133 C102.702822,14.1893733 102.70986,14.4662233 102.72402,14.6046433 C102.738012,14.7430633 102.759211,14.8330433 102.787278,14.8745633 C102.815515,14.9160933 102.878857,14.9576233 102.977474,14.9991433 C103.27324,15.0406733 103.618357,15.0614333 104.01274,15.0614333 L104.350734,15.0614333 L104.350734,16.0165433 L104.181737,16.0165433 L103.674661,15.9957833 C103.350743,15.9819433 102.998673,15.9750233 102.618281,15.9750233 C102.238058,15.9750233 101.970444,15.9681033 101.815439,15.9542533 C100.36476,15.9542533 99.5759094,15.9750233 99.4491404,16.0165433 L99.2801433,16.0165433 L99.2801433,15.0614333 L99.6181374,15.0614333 C100.477368,15.0614333 100.906942,14.9506933 100.906942,14.7292233 C100.921102,14.7015333 100.92814,13.7464233 100.92814,11.8638833 C100.91398,9.99519167 100.899988,9.005475 100.885827,8.89473333 C100.801371,8.50715 100.660526,8.21646667 100.463292,8.022675 C100.266143,7.82888333 100.097146,7.711225 99.9563012,7.6697 C99.8153713,7.628175 99.6322982,7.61433333 99.4069123,7.628175 C98.7730673,7.628175 98.2168099,7.86349167 97.7378012,8.334125 C97.3575789,8.70786667 97.118117,9.088525 97.0195848,9.4761 C96.9209678,9.86369167 96.8645789,10.4381417 96.8505029,11.1994667 L96.8505029,12.5283133 L96.8505029,13.7741133 C96.8505029,14.1893733 96.8575409,14.4662233 96.871617,14.6046433 C96.8857778,14.7430633 96.906807,14.8330433 96.9349591,14.8745633 C96.9631959,14.9160933 97.026538,14.9576233 97.125155,14.9991433 C97.4210058,15.0406733 97.766038,15.0614333 98.1604211,15.0614333 L98.4984152,15.0614333 L98.4984152,16.0165433 L98.3294181,16.0165433 L97.8434561,15.9957833 C97.505462,15.9819433 97.146269,15.9750233 96.765962,15.9750233 C96.3857398,15.9750233 96.1181257,15.9681033 95.9631199,15.9542533 C94.5124415,15.9542533 93.7235906,15.9750233 93.5968216,16.0165433 L93.4278246,16.0165433 L93.4278246,15.0614333 L93.7659035,15.0614333 L93.7659035,15.0614333 Z" id="Fill-12"></path>
                </g>
            </g>
            <g id="next_h-node" transform="translate(124.000000, 392.000000)" sketch:type="MSShapeGroup">
                <g id="sigmoid_chunk-node-copy-5" stroke="#979797">
                    <ellipse id="Oval-23-Copy-2" cx="64" cy="34.5" rx="64" ry="34.5"></ellipse>
                </g>
                <g id="Imported-Layers" transform="translate(26.200000, 20.700000)" fill="#000000">
                    <path d="M1.62681,17.983816 L1.977428,17.983816 C2.628576,17.983816 3.02094,17.866948 3.1545,17.6332 L3.1545,17.432848 L3.1545,16.856836 L3.1545,16.08046 C3.1545,15.796624 3.162852,15.471052 3.179544,15.103744 C3.196248,14.73642 3.196248,14.38581 3.179544,14.05188 L3.179544,12.39897 C3.179544,11.8146 3.171204,11.32208 3.1545,10.92137 L3.1545,10.34535 C3.104412,10.02813 2.987542,9.81942 2.803885,9.71925 C2.620228,9.61907 2.244566,9.54394 1.676898,9.49385 L1.226104,9.49385 L1.226104,8.91784 C1.226104,8.53383 1.2428,8.34182 1.276192,8.34182 L1.526634,8.31677 C1.693595,8.30008 1.92734,8.28339 2.22787,8.26668 C2.528399,8.24999 2.837278,8.2333 3.1545,8.2166 C3.438336,8.1999 3.738864,8.18321 4.056096,8.16651 C4.373316,8.14982 4.615416,8.12477 4.782372,8.09138 C4.949328,8.05799 5.041164,8.04964 5.057856,8.06633 L5.132988,8.06633 L5.132988,9.0681 C5.132988,9.70256 5.14134,10.01978 5.158032,10.01978 C5.174736,10.01978 5.216472,9.97804 5.283252,9.89456 C5.350044,9.81107 5.45022,9.68585 5.58378,9.5189 C5.717352,9.35193 5.875968,9.20166 6.059628,9.0681 C6.243276,8.93453 6.485376,8.77592 6.785904,8.59226 C7.08643,8.40861 7.40366,8.27504 7.73758,8.19155 C8.0715,8.10808 8.49726,8.06633 9.01483,8.06633 C10.91819,8.13312 11.97839,9.07644 12.19544,10.89633 C12.21214,11.0132 12.22049,12.17357 12.22049,14.37746 L12.22049,16.531252 C12.22049,17.165704 12.23718,17.541376 12.27058,17.658244 C12.30396,17.775112 12.3958,17.858596 12.54606,17.908684 C12.89668,17.958772 13.30573,17.983816 13.77322,17.983816 L14.17393,17.983816 L14.17393,19.135852 L13.97358,19.135852 L13.37251,19.110808 C12.9885,19.094104 12.5711,19.085764 12.12031,19.085764 C11.66951,19.085764 11.35229,19.077412 11.16863,19.06072 C9.44893,19.06072 8.51395,19.085764 8.36369,19.135852 L8.16334,19.135852 L8.16334,17.983816 L8.56404,17.983816 C9.5825,17.983816 10.09174,17.850244 10.09174,17.583112 C10.10843,17.549716 10.11678,16.397692 10.11678,14.12702 C10.10008,11.87304 10.08338,10.67927 10.06669,10.5457 C9.96652,10.07822 9.79955,9.7276 9.5658,9.49385 C9.33206,9.2601 9.13171,9.11819 8.96474,9.0681 C8.79779,9.01802 8.58073,9.00131 8.3136,9.01802 C7.56227,9.01802 6.902772,9.30184 6.335112,9.86951 C5.88432,10.3203 5.600484,10.77945 5.483604,11.24694 C5.366736,11.71443 5.299956,12.40732 5.283252,13.32561 L5.283252,14.92844 L5.283252,16.431076 C5.283252,16.931968 5.291604,17.26588 5.308296,17.432848 C5.325,17.599804 5.350044,17.708332 5.383428,17.75842 C5.416824,17.808508 5.491956,17.858596 5.608824,17.908684 C5.959452,17.958772 6.368508,17.983816 6.835992,17.983816 L7.2367,17.983816 L7.2367,19.135852 L7.03634,19.135852 L6.460332,19.110808 C6.059628,19.094104 5.633868,19.085764 5.183076,19.085764 C4.732284,19.085764 4.415064,19.077412 4.231404,19.06072 C2.511703,19.06072 1.576722,19.085764 1.426457,19.135852 L1.226104,19.135852 L1.226104,17.983816 L1.62681,17.983816 L1.62681,17.983816 Z" id="Fill-1"></path>
                    <path d="M15.22578,13.67622 C15.22578,12.75794 15.39275,11.92313 15.72666,11.17181 C16.06058,10.42048 16.47799,9.81107 16.97887,9.34359 C17.47975,8.87609 18.02238,8.52548 18.60674,8.29173 C19.19111,8.05799 19.74208,7.93276 20.25966,7.91607 C21.14455,7.91607 21.90422,8.06633 22.53868,8.36686 C23.17313,8.6674 23.65732,9.0848 23.99123,9.61907 C24.32515,10.15335 24.5589,10.68762 24.69247,11.2219 C24.82604,11.75618 24.90118,12.34888 24.91787,13.00004 C24.91787,13.1169 24.85943,13.23377 24.74256,13.35065 L17.6801,13.35065 L17.6801,13.72631 C17.6801,16.19734 18.51491,17.69998 20.18453,18.234256 C20.51844,18.334432 20.88576,18.38452 21.28646,18.38452 C21.9877,18.38452 22.58876,18.117388 23.08964,17.583112 C23.37348,17.299276 23.59888,16.94866 23.76583,16.531252 L24.01627,15.930196 C24.06637,15.880108 24.19993,15.855064 24.41699,15.855064 L24.49212,15.855064 C24.77596,15.855064 24.91787,15.938548 24.91787,16.105504 C24.91787,16.172296 24.89282,16.280812 24.84274,16.431076 C24.5255,17.349364 23.99958,18.07564 23.26495,18.609916 C22.53032,19.144192 21.70387,19.411336 20.78558,19.411336 C19.19945,19.411336 17.88046,18.835312 16.82861,17.683288 C15.77675,16.531252 15.24248,15.195568 15.22578,13.67622 L15.22578,13.67622 Z M22.86425,12.2487 C22.68059,10.11161 21.88752,8.97627 20.48506,8.84271 L20.43497,8.84271 C20.3014,8.84271 20.16782,8.85105 20.03426,8.86775 C19.90069,8.88444 19.69199,8.95122 19.40815,9.0681 C19.12432,9.18497 18.88223,9.36028 18.68188,9.59403 C18.48152,9.82778 18.28951,10.17004 18.10586,10.62083 C17.9222,11.07164 17.78863,11.6226 17.70515,12.27375 L17.70515,12.44906 L22.86425,12.44906 L22.86425,12.2487 L22.86425,12.2487 Z" id="Fill-3"></path>
                    <path d="M30.67802,19.135852 C30.47767,19.085764 29.65121,19.06072 28.19866,19.06072 C26.92975,19.06072 26.22017,19.085764 26.06989,19.135852 L25.91963,19.135852 L25.91963,17.983816 L26.27026,17.983816 C26.65426,17.967124 27.00488,17.917036 27.3221,17.833552 C27.63934,17.750068 27.88142,17.674936 28.04838,17.608156 C28.21535,17.541376 28.42405,17.399452 28.67449,17.182408 C28.92493,16.965352 29.0752,16.815088 29.12528,16.731604 C29.17537,16.648132 29.35068,16.431076 29.65121,16.08046 C29.95174,15.729844 30.1187,15.496096 30.15209,15.379228 L31.30412,13.87658 L29.85156,11.92313 C29.7013,11.70609 29.54269,11.48069 29.37572,11.24694 C29.20877,11.0132 29.0752,10.83789 28.97502,10.72102 C28.87484,10.60414 28.78301,10.47892 28.69954,10.34535 C28.61605,10.21179 28.54092,10.11161 28.47414,10.04482 C28.40735,9.97804 28.35726,9.9196 28.32388,9.86951 C28.29048,9.81942 28.23204,9.76934 28.14857,9.71925 C28.06508,9.66916 28.015,9.64412 27.99829,9.64412 C27.9816,9.64412 27.93151,9.62742 27.84803,9.59403 C27.76456,9.56063 27.69776,9.54394 27.64768,9.54394 C27.5475,9.54394 27.24697,9.52725 26.74609,9.49385 L26.04485,9.49385 L26.04485,8.34182 L26.22017,8.34182 C26.82122,8.37521 27.68107,8.3919 28.79971,8.3919 C30.35245,8.3919 31.2123,8.37521 31.37926,8.34182 L31.57961,8.34182 L31.57961,9.49385 C30.97855,9.56063 30.67802,9.6942 30.67802,9.89456 C30.67802,9.92795 30.7615,10.06151 30.92846,10.29526 C31.09542,10.52901 31.32917,10.84624 31.6297,11.24694 C31.93022,11.64765 32.17232,11.98991 32.35598,12.27375 L32.45616,12.37392 L33.08226,11.52243 C33.61654,10.83789 33.88367,10.3871 33.88367,10.17004 C33.88367,10.06986 33.86698,9.97804 33.83358,9.89456 C33.8002,9.81107 33.75845,9.75264 33.70836,9.71925 C33.65827,9.68585 33.61654,9.65247 33.58314,9.61907 C33.54976,9.58568 33.49132,9.55229 33.40783,9.5189 L33.3327,9.49385 L33.20748,9.49385 L33.20748,8.34182 L33.38279,8.34182 C33.63323,8.3919 34.45969,8.41695 35.86216,8.41695 C37.18115,8.41695 37.89073,8.3919 37.99091,8.34182 L38.14117,8.34182 L38.14117,9.49385 L37.96586,9.49385 C37.14776,9.49385 36.47156,9.63576 35.93729,9.9196 C35.65346,10.05317 35.36963,10.27857 35.08579,10.59579 C34.80196,10.91302 34.25934,11.61425 33.45792,12.6995 L33.05722,13.22543 L34.60996,15.354184 C35.71189,16.856836 36.30461,17.641552 36.38809,17.708332 C36.47156,17.775112 36.61349,17.833552 36.81384,17.88364 C37.11437,17.95042 37.55681,17.983816 38.14117,17.983816 L38.56693,17.983816 L38.56693,19.135852 L38.41667,19.135852 L38.2163,19.135852 C38.08274,19.119148 37.91578,19.110808 37.71542,19.110808 C37.51507,19.110808 37.30637,19.102456 37.08932,19.085764 C36.87227,19.06906 36.66358,19.06906 36.46322,19.085764 C36.26286,19.102456 36.1126,19.094104 36.01242,19.06072 L35.08579,19.06072 C34.65169,19.06072 34.23428,19.077412 33.83358,19.110808 L33.25757,19.135852 L33.03217,19.135852 L33.03217,17.983816 L33.1073,17.983816 C33.29096,17.983816 33.47461,17.94208 33.65827,17.858596 C33.84193,17.775112 33.93376,17.674936 33.93376,17.558068 C33.93376,17.524672 33.59984,17.048836 32.932,16.130548 L31.90518,14.75312 C31.88849,14.76982 31.6297,15.120436 31.12882,15.804976 C30.62794,16.489516 30.3441,16.865176 30.27732,16.931968 C30.21053,17.01544 30.17713,17.13232 30.17713,17.282584 C30.17713,17.466232 30.23557,17.624848 30.35245,17.75842 C30.46932,17.891992 30.61958,17.967124 30.80324,17.983816 C30.83664,17.983816 30.85333,18.175816 30.85333,18.559828 L30.85333,19.135852 L30.67802,19.135852 L30.67802,19.135852 Z" id="Fill-4"></path>
                    <path d="M39.54365,8.56721 C40.42854,8.50043 41.11308,8.03295 41.59727,7.16475 C42.08146,6.29655 42.34859,5.27808 42.39868,4.10936 L42.39868,3.7337 L43.40045,3.7337 L43.40045,8.34182 L46.78141,8.34182 L46.78141,9.49385 L43.40045,9.49385 L43.40045,13.10021 C43.41714,15.187216 43.42549,16.364296 43.42549,16.631428 C43.42549,16.898572 43.48393,17.165704 43.6008,17.432848 C43.83455,18.083992 44.2436,18.409564 44.82797,18.409564 C45.5626,18.409564 46.01339,17.81686 46.18034,16.631428 C46.19705,16.497868 46.20539,16.113856 46.20539,15.479404 L46.20539,14.60285 L47.20716,14.60285 L47.20716,15.479404 L47.20716,15.779932 C47.20716,17.065528 46.85654,18.042256 46.1553,18.710092 C45.70451,19.160896 45.12014,19.386292 44.40221,19.386292 C43.83455,19.386292 43.34201,19.286116 42.92461,19.085764 C42.5072,18.885412 42.18998,18.62662 41.97293,18.309388 C41.75588,17.992168 41.59727,17.69998 41.49709,17.432848 C41.39692,17.165704 41.33848,16.898572 41.32178,16.631428 C41.30509,16.51456 41.29674,15.279052 41.29674,12.9249 L41.29674,9.49385 L39.31825,9.49385 L39.31825,8.56721 L39.54365,8.56721 L39.54365,8.56721 Z" id="Fill-5"></path>
                    <path d="M48.60964,20.68858 L48.60964,19.761952 L61.10666,19.761952 L61.10666,20.68858 L48.60964,20.68858 L48.60964,20.68858 Z" id="Fill-6"></path>
                    <path d="M62.15851,17.983816 L62.50913,17.983816 C63.16028,17.983816 63.55264,17.866948 63.68621,17.6332 L63.68621,17.432848 L63.68621,16.856836 L63.68621,16.030372 L63.68621,14.95348 C63.68621,14.55276 63.69456,14.13537 63.71125,13.70127 C63.72794,13.26717 63.72794,12.80802 63.71125,12.32384 C63.69456,11.83965 63.69456,11.36381 63.71125,10.89633 L63.71125,8.94288 L63.71125,7.06457 C63.71125,6.4969 63.7029,5.99602 63.68621,5.56192 C63.66952,5.12782 63.66952,4.76051 63.68621,4.45997 C63.7029,4.15944 63.7029,4.01753 63.68621,4.03422 C63.63612,3.717 63.51925,3.5083 63.33559,3.40812 C63.15193,3.30795 62.77627,3.23282 62.2086,3.18273 L61.75781,3.18273 L61.75781,2.60672 C61.75781,2.2227 61.7745,2.03069 61.8079,2.03069 L62.05834,2.00565 C62.2253,1.98896 62.46739,1.97225 62.78461,1.95556 C63.10184,1.93887 63.41072,1.92216 63.71125,1.90547 C63.99509,1.88878 64.30397,1.87208 64.63788,1.85538 C64.9718,1.83869 65.22224,1.81365 65.38921,1.78025 C65.55617,1.74686 65.648,1.73852 65.6647,1.75521 L65.73983,1.75521 L65.73983,9.94464 C66.74159,8.69244 67.94371,8.06633 69.34619,8.06633 C71.39981,8.06633 72.52679,9.00966 72.72714,10.89633 C72.74384,11.0132 72.75218,12.17357 72.75218,14.37746 L72.75218,16.531252 C72.75218,17.165704 72.76889,17.541376 72.80227,17.658244 C72.83567,17.775112 72.92749,17.858596 73.07777,17.908684 C73.42838,17.958772 73.83744,17.983816 74.30492,17.983816 L74.70563,17.983816 L74.70563,19.135852 L74.50528,19.135852 L73.90422,19.110808 C73.52021,19.094104 73.10281,19.085764 72.65201,19.085764 C72.20122,19.085764 71.884,19.077412 71.70034,19.06072 C69.98064,19.06072 69.04566,19.085764 68.89538,19.135852 L68.69503,19.135852 L68.69503,17.983816 L69.09575,17.983816 C70.1142,17.983816 70.62343,17.850244 70.62343,17.583112 C70.64014,17.549716 70.64848,16.397692 70.64848,14.12702 C70.63178,11.87304 70.61509,10.67927 70.59839,10.5457 C70.49821,10.07822 70.33126,9.7276 70.09751,9.49385 C69.86376,9.2601 69.66341,9.11819 69.49645,9.0681 C69.32948,9.01802 69.11244,9.00131 68.8453,9.01802 C68.09398,9.01802 67.43448,9.30184 66.86681,9.86951 C66.41602,10.3203 66.13218,10.77945 66.01531,11.24694 C65.89844,11.71443 65.83165,12.40732 65.81496,13.32561 L65.81496,14.92844 L65.81496,16.431076 C65.81496,16.931968 65.82331,17.26588 65.84,17.432848 C65.8567,17.599804 65.88174,17.708332 65.91514,17.75842 C65.94853,17.808508 66.02366,17.858596 66.14053,17.908684 C66.49115,17.958772 66.9002,17.983816 67.3677,17.983816 L67.7684,17.983816 L67.7684,19.135852 L67.56805,19.135852 L66.99204,19.110808 C66.59132,19.094104 66.16558,19.085764 65.71478,19.085764 C65.26399,19.085764 64.94676,19.077412 64.7631,19.06072 C63.0434,19.06072 62.10842,19.085764 61.95816,19.135852 L61.75781,19.135852 L61.75781,17.983816 L62.15851,17.983816 L62.15851,17.983816 Z" id="Fill-7"></path>
                </g>
            </g>
            <g id="output-gate-vector-copy" transform="translate(158.000000, 19.000000)" sketch:type="MSShapeGroup">
                <g id="Imported-Layers-Copy-3" transform="translate(26.000000, 9.000000)" fill="#000000">
                    <path d="M3.442257,9.9134112 C2.455378,9.9134112 1.659297,9.5876352 1.05400767,8.9360832 C0.4487215,8.284544 0.146078417,7.500016 0.146078417,6.582536 C0.146078417,5.718232 0.343453583,4.900472 0.7382055,4.129256 C1.13295821,3.358032 1.6724545,2.686544 2.356692,2.114776 C3.3567285,1.303664 4.376506,0.898112 5.416015,0.898112 C5.83708667,0.898112 6.1002525,0.904752 6.20552042,0.918048 C6.37657583,0.957944 6.54763917,1.004488 6.71869458,1.057672 C6.88975792,1.110856 7.12003,1.217232 7.40951083,1.376792 C7.69899958,1.536352 7.93585042,1.735816 8.12006333,1.975152 C8.30428417,2.214496 8.47533958,2.540272 8.63324542,2.95248 C8.79114333,3.364688 8.87008833,3.830072 8.87008833,4.348656 C8.87008833,5.771424 8.30428417,7.054568 7.17266,8.198112 C6.04103583,9.3416448 4.79757292,9.9134112 3.442257,9.9134112 L3.442257,9.9134112 Z M1.8632525,7.300568 C1.8632525,7.965408 2.0343095,8.444104 2.3764235,8.736632 C2.718547,9.0291648 3.106717,9.1754304 3.540943,9.1754304 C4.119911,9.1754304 4.66599,8.9626752 5.17916417,8.537176 C5.69233833,8.111672 6.1002525,7.5532 6.40289083,6.861776 C6.52132417,6.582536 6.67264333,6.090544 6.85686417,5.385808 C7.04107708,4.681072 7.1331875,4.069424 7.1331875,3.55084 C7.1331875,2.965776 7.01476208,2.520328 6.77790333,2.214496 C6.4621075,1.815592 6.04103583,1.616144 5.51470417,1.616144 C4.68571833,1.616144 3.9554375,2.001752 3.32383,2.772968 C2.836974,3.358032 2.4751095,4.135904 2.238265,5.106576 C2.001411,6.077248 1.87641,6.808576 1.8632525,7.300568 L1.8632525,7.300568 Z" id="Fill-1"></path>
                </g>
                <rect id="Rectangle-2-Copy-3" stroke="#979797" stroke-width="0.8" x="0.5" y="0" width="61.6" height="28"></rect>
            </g>
        </g>
    </g>
</svg>