<?xml version="1.0" encoding="UTF-8" standalone="no"?>
<svg width="34px" height="26px" viewBox="0 0 34 26" version="1.1" xmlns="http://www.w3.org/2000/svg" xmlns:xlink="http://www.w3.org/1999/xlink" xmlns:sketch="http://www.bohemiancoding.com/sketch/ns">
    <!-- Generator: Sketch 3.3.3 (12081) - http://www.bohemiancoding.com/sketch -->
    <title>envelope</title>
    <desc>Created with Sketch.</desc>
    <defs></defs>
    <g id="Page-1" stroke="none" stroke-width="1" fill="none" fill-rule="evenodd" sketch:type="MSPage">
        <g id="Evil-Icons" sketch:type="MSArtboardGroup" transform="translate(-78.000000, -232.000000)" fill="#9A9A9A">
            <g id="envelope" sketch:type="MSLayerGroup" transform="translate(78.000000, 232.000000)">
                <path d="M31,26 L3,26 C1.346,26 0,24.654 0,23 L0,3 C0,1.346 1.346,0 3,0 L31,0 C32.654,0 34,1.346 34,3 L34,23 C34,24.654 32.654,26 31,26 Z M33.658,3.658 L32.342,2.342 L19.878,14.807 C18.291,16.394 15.709,16.394 14.122,14.807 L1.658,2.342 L0.342,3.658 L9.649,12.964 L0.342,22.271 L1.658,23.586 L10.964,14.28 L12.807,16.122 C13.927,17.242 15.416,17.859 17,17.859 C18.584,17.859 20.073,17.242 21.193,16.122 L23.036,14.28 L32.342,23.586 L33.658,22.271 L24.351,12.964 L33.658,3.658 Z" id="Fill-4" sketch:type="MSShapeGroup"></path>
            </g>
        </g>
    </g>
</svg>