<?xml version="1.0" encoding="UTF-8" standalone="no"?>
<svg width="30px" height="30px" viewBox="0 0 30 30" version="1.1" xmlns="http://www.w3.org/2000/svg" xmlns:xlink="http://www.w3.org/1999/xlink" xmlns:sketch="http://www.bohemiancoding.com/sketch/ns">
    <!-- Generator: Sketch 3.3.3 (12081) - http://www.bohemiancoding.com/sketch -->
    <title>github</title>
    <desc>Created with Sketch.</desc>
    <defs></defs>
    <g id="Page-1" stroke="none" stroke-width="1" fill="none" fill-rule="evenodd" sketch:type="MSPage">
        <g id="Evil-Icons" sketch:type="MSArtboardGroup" transform="translate(-130.000000, -680.000000)" fill="#9A9A9A">
            <g id="github" sketch:type="MSLayerGroup" transform="translate(130.000000, 680.000000)">
                <path d="M14.999,0 C6.716,0 0,6.716 0,15.001 C0,21.628 4.298,27.25 10.259,29.233 C11.009,29.371 11.282,28.908 11.282,28.51 C11.282,28.154 11.27,27.211 11.262,25.959 C7.09,26.866 6.209,23.948 6.209,23.948 C5.527,22.216 4.544,21.754 4.544,21.754 C3.182,20.824 4.647,20.842 4.647,20.842 C6.152,20.948 6.945,22.388 6.945,22.388 C8.283,24.681 10.455,24.019 11.31,23.635 C11.446,22.665 11.834,22.004 12.262,21.629 C8.931,21.251 5.43,19.964 5.43,14.216 C5.43,12.578 6.014,11.239 6.974,10.191 C6.819,9.811 6.305,8.286 7.121,6.221 C7.121,6.221 8.38,5.818 11.246,7.759 C12.442,7.426 13.725,7.26 15.001,7.254 C16.275,7.26 17.558,7.426 18.756,7.759 C21.62,5.818 22.877,6.221 22.877,6.221 C23.695,8.286 23.18,9.811 23.026,10.191 C23.988,11.239 24.568,12.578 24.568,14.216 C24.568,19.978 21.061,21.246 17.719,21.618 C18.258,22.081 18.738,22.996 18.738,24.395 C18.738,26.401 18.719,28.019 18.719,28.51 C18.719,28.911 18.99,29.378 19.751,29.232 C25.706,27.244 30,21.626 30,15.001 C30,6.716 23.283,0 14.999,0" id="Fill-123" sketch:type="MSShapeGroup"></path>
            </g>
        </g>
    </g>
</svg>