<?xml version="1.0" encoding="UTF-8" standalone="no"?>
<svg width="26px" height="26px" viewBox="0 0 26 26" version="1.1" xmlns="http://www.w3.org/2000/svg" xmlns:xlink="http://www.w3.org/1999/xlink" xmlns:sketch="http://www.bohemiancoding.com/sketch/ns">
    <!-- Generator: Sketch 3.3.3 (12081) - http://www.bohemiancoding.com/sketch -->
    <title>linkedin</title>
    <desc>Created with Sketch.</desc>
    <defs></defs>
    <g id="Page-1" stroke="none" stroke-width="1" fill="none" fill-rule="evenodd" sketch:type="MSPage">
        <g id="Evil-Icons" sketch:type="MSArtboardGroup" transform="translate(-82.000000, -732.000000)" fill="#9A9A9A">
            <g id="linkedin" sketch:type="MSLayerGroup" transform="translate(82.000000, 732.000000)">
                <path d="M24.076,0 L1.918,0 C0.86,0 0,0.839 0,1.875 L0,24.124 C0,25.159 0.86,26 1.918,26 L24.076,26 C25.136,26 25.999,25.159 25.999,24.124 L25.999,1.875 C25.999,0.839 25.136,0 24.076,0 L24.076,0 Z M4,10 L8,10 L8,22 L4,22 L4,10 Z M6.001,8.4 C4.672,8.4 3.6,7.325 3.6,6 C3.6,4.675 4.672,3.6 6.001,3.6 C7.325,3.6 8.4,4.675 8.4,6 C8.4,7.325 7.325,8.4 6.001,8.4 L6.001,8.4 Z M22,22 L18,22 L18,16 C18,14.375 17.562,12.831 16,12.831 C14.437,12.831 14,14.399 14,16.018 L14,22 L10,22 L10,10 L14,10 L14,11.443 L14.2,11.443 C14.714,10.468 16,9.639 17.529,9.639 C21.219,9.639 22,12.063 22,15 L22,22 L22,22 Z" id="Fill-3" sketch:type="MSShapeGroup"></path>
            </g>
        </g>
    </g>
</svg>