<?xml version="1.0" encoding="UTF-8" standalone="no"?>
<svg width="31px" height="24px" viewBox="0 0 31 24" version="1.1" xmlns="http://www.w3.org/2000/svg" xmlns:xlink="http://www.w3.org/1999/xlink" xmlns:sketch="http://www.bohemiancoding.com/sketch/ns">
    <!-- Generator: Sketch 3.3.3 (12081) - http://www.bohemiancoding.com/sketch -->
    <style>
      #Evil-Icons {
        transition: all 2s;
      }
    </style>
    <title>twitter</title>
    <desc>Created with Sketch.</desc>
    <defs></defs>
    <g id="Page-1" stroke="none" stroke-width="1" fill="none" fill-rule="evenodd" sketch:type="MSPage">
        <g id="Evil-Icons" sketch:type="MSArtboardGroup" transform="translate(-79.000000, -684.000000)" fill="#9A9A9A">
            <g id="twitter" sketch:type="MSLayerGroup" transform="translate(79.000000, 684.000000)">
                <path d="M30.229,2.844 C29.141,3.325 27.979,3.65 26.754,3.8 C28.004,3.05 28.966,1.862 29.416,0.45 C28.247,1.144 26.954,1.65 25.573,1.919 C24.466,0.737 22.891,0 21.154,0 C17.81,0 15.104,2.712 15.104,6.056 C15.104,6.531 15.154,6.994 15.26,7.438 C10.229,7.188 5.766,4.775 2.785,1.106 C2.266,2 1.966,3.044 1.966,4.15 C1.966,6.25 3.041,8.106 4.666,9.194 C3.666,9.169 2.729,8.894 1.916,8.437 L1.916,8.513 C1.916,11.45 4.004,13.894 6.772,14.45 C6.266,14.587 5.729,14.662 5.179,14.662 C4.791,14.662 4.41,14.625 4.041,14.55 C4.81,16.956 7.048,18.706 9.698,18.756 C7.629,20.381 5.016,21.35 2.179,21.35 C1.691,21.35 1.21,21.319 0.735,21.263 C3.404,23 6.585,24 9.997,24 C21.141,24 27.229,14.769 27.229,6.762 C27.229,6.5 27.222,6.237 27.21,5.981 C28.391,5.125 29.416,4.063 30.229,2.844" id="Fill-122" sketch:type="MSShapeGroup"></path>
            </g>
        </g>
    </g>
</svg>
